<mxfile host="Electron" modified="2024-07-11T14:55:04.319Z" agent="Mozilla/5.0 (Windows NT 10.0; Win64; x64) AppleWebKit/537.36 (KHTML, like Gecko) draw.io/21.8.2 Chrome/114.0.5735.289 Electron/25.8.1 Safari/537.36" etag="-V9uTYwpYQmleVcwa6Hy" version="21.8.2" type="device">
  <diagram name="Page-1" id="2ca16b54-16f6-2749-3443-fa8db7711227">
    <mxGraphModel dx="3968" dy="2664" grid="1" gridSize="10" guides="1" tooltips="1" connect="1" arrows="1" fold="1" page="1" pageScale="1" pageWidth="1100" pageHeight="850" background="none" math="0" shadow="0">
      <root>
        <mxCell id="0" />
        <mxCell id="1" parent="0" />
        <mxCell id="UPTvRcya9LFYI0RSyNBZ-54" value="" style="edgeStyle=orthogonalEdgeStyle;fontSize=12;html=1;endArrow=ERmany;rounded=0;entryX=0;entryY=0.5;entryDx=0;entryDy=0;exitX=-0.021;exitY=0.761;exitDx=0;exitDy=0;exitPerimeter=0;" parent="1" source="CdEZ3CyZhxFSUictnTEU-89" target="UPTvRcya9LFYI0RSyNBZ-42" edge="1">
          <mxGeometry width="100" height="100" relative="1" as="geometry">
            <mxPoint x="180" y="760" as="sourcePoint" />
            <mxPoint x="280" y="660" as="targetPoint" />
            <Array as="points">
              <mxPoint x="60" y="493" />
              <mxPoint x="60" y="955" />
            </Array>
          </mxGeometry>
        </mxCell>
        <object label="User" id="CdEZ3CyZhxFSUictnTEU-2">
          <mxCell style="shape=table;startSize=30;container=1;collapsible=1;childLayout=tableLayout;fixedRows=1;rowLines=0;fontStyle=1;align=center;resizeLast=1;html=1;" parent="1" vertex="1">
            <mxGeometry x="730" y="410" width="180" height="390" as="geometry" />
          </mxCell>
        </object>
        <mxCell id="CdEZ3CyZhxFSUictnTEU-3" value="" style="shape=tableRow;horizontal=0;startSize=0;swimlaneHead=0;swimlaneBody=0;fillColor=none;collapsible=0;dropTarget=0;points=[[0,0.5],[1,0.5]];portConstraint=eastwest;top=0;left=0;right=0;bottom=1;" parent="CdEZ3CyZhxFSUictnTEU-2" vertex="1">
          <mxGeometry y="30" width="180" height="30" as="geometry" />
        </mxCell>
        <mxCell id="CdEZ3CyZhxFSUictnTEU-4" value="PK" style="shape=partialRectangle;connectable=0;fillColor=none;top=0;left=0;bottom=0;right=0;fontStyle=1;overflow=hidden;whiteSpace=wrap;html=1;" parent="CdEZ3CyZhxFSUictnTEU-3" vertex="1">
          <mxGeometry width="30" height="30" as="geometry">
            <mxRectangle width="30" height="30" as="alternateBounds" />
          </mxGeometry>
        </mxCell>
        <mxCell id="CdEZ3CyZhxFSUictnTEU-5" value="&lt;span style=&quot;font-weight: normal;&quot;&gt;userId&lt;/span&gt;" style="shape=partialRectangle;connectable=0;fillColor=none;top=0;left=0;bottom=0;right=0;align=left;spacingLeft=6;fontStyle=5;overflow=hidden;whiteSpace=wrap;html=1;" parent="CdEZ3CyZhxFSUictnTEU-3" vertex="1">
          <mxGeometry x="30" width="150" height="30" as="geometry">
            <mxRectangle width="150" height="30" as="alternateBounds" />
          </mxGeometry>
        </mxCell>
        <mxCell id="CdEZ3CyZhxFSUictnTEU-345" value="" style="shape=tableRow;horizontal=0;startSize=0;swimlaneHead=0;swimlaneBody=0;fillColor=none;collapsible=0;dropTarget=0;points=[[0,0.5],[1,0.5]];portConstraint=eastwest;top=0;left=0;right=0;bottom=0;" parent="CdEZ3CyZhxFSUictnTEU-2" vertex="1">
          <mxGeometry y="60" width="180" height="30" as="geometry" />
        </mxCell>
        <mxCell id="CdEZ3CyZhxFSUictnTEU-346" value="" style="shape=partialRectangle;connectable=0;fillColor=none;top=0;left=0;bottom=0;right=0;fontStyle=0;overflow=hidden;whiteSpace=wrap;html=1;" parent="CdEZ3CyZhxFSUictnTEU-345" vertex="1">
          <mxGeometry width="30" height="30" as="geometry">
            <mxRectangle width="30" height="30" as="alternateBounds" />
          </mxGeometry>
        </mxCell>
        <mxCell id="CdEZ3CyZhxFSUictnTEU-347" value="password" style="shape=partialRectangle;connectable=0;fillColor=none;top=0;left=0;bottom=0;right=0;align=left;spacingLeft=6;fontStyle=0;overflow=hidden;whiteSpace=wrap;html=1;" parent="CdEZ3CyZhxFSUictnTEU-345" vertex="1">
          <mxGeometry x="30" width="150" height="30" as="geometry">
            <mxRectangle width="150" height="30" as="alternateBounds" />
          </mxGeometry>
        </mxCell>
        <mxCell id="CdEZ3CyZhxFSUictnTEU-6" value="" style="shape=tableRow;horizontal=0;startSize=0;swimlaneHead=0;swimlaneBody=0;fillColor=none;collapsible=0;dropTarget=0;points=[[0,0.5],[1,0.5]];portConstraint=eastwest;top=0;left=0;right=0;bottom=0;" parent="CdEZ3CyZhxFSUictnTEU-2" vertex="1">
          <mxGeometry y="90" width="180" height="30" as="geometry" />
        </mxCell>
        <mxCell id="CdEZ3CyZhxFSUictnTEU-7" value="" style="shape=partialRectangle;connectable=0;fillColor=none;top=0;left=0;bottom=0;right=0;editable=1;overflow=hidden;whiteSpace=wrap;html=1;" parent="CdEZ3CyZhxFSUictnTEU-6" vertex="1">
          <mxGeometry width="30" height="30" as="geometry">
            <mxRectangle width="30" height="30" as="alternateBounds" />
          </mxGeometry>
        </mxCell>
        <mxCell id="CdEZ3CyZhxFSUictnTEU-8" value="fullName" style="shape=partialRectangle;connectable=0;fillColor=none;top=0;left=0;bottom=0;right=0;align=left;spacingLeft=6;overflow=hidden;whiteSpace=wrap;html=1;" parent="CdEZ3CyZhxFSUictnTEU-6" vertex="1">
          <mxGeometry x="30" width="150" height="30" as="geometry">
            <mxRectangle width="150" height="30" as="alternateBounds" />
          </mxGeometry>
        </mxCell>
        <mxCell id="CdEZ3CyZhxFSUictnTEU-12" value="" style="shape=tableRow;horizontal=0;startSize=0;swimlaneHead=0;swimlaneBody=0;fillColor=none;collapsible=0;dropTarget=0;points=[[0,0.5],[1,0.5]];portConstraint=eastwest;top=0;left=0;right=0;bottom=0;" parent="CdEZ3CyZhxFSUictnTEU-2" vertex="1">
          <mxGeometry y="120" width="180" height="30" as="geometry" />
        </mxCell>
        <mxCell id="CdEZ3CyZhxFSUictnTEU-13" value="" style="shape=partialRectangle;connectable=0;fillColor=none;top=0;left=0;bottom=0;right=0;editable=1;overflow=hidden;whiteSpace=wrap;html=1;" parent="CdEZ3CyZhxFSUictnTEU-12" vertex="1">
          <mxGeometry width="30" height="30" as="geometry">
            <mxRectangle width="30" height="30" as="alternateBounds" />
          </mxGeometry>
        </mxCell>
        <mxCell id="CdEZ3CyZhxFSUictnTEU-14" value="email" style="shape=partialRectangle;connectable=0;fillColor=none;top=0;left=0;bottom=0;right=0;align=left;spacingLeft=6;overflow=hidden;whiteSpace=wrap;html=1;" parent="CdEZ3CyZhxFSUictnTEU-12" vertex="1">
          <mxGeometry x="30" width="150" height="30" as="geometry">
            <mxRectangle width="150" height="30" as="alternateBounds" />
          </mxGeometry>
        </mxCell>
        <mxCell id="CdEZ3CyZhxFSUictnTEU-9" value="" style="shape=tableRow;horizontal=0;startSize=0;swimlaneHead=0;swimlaneBody=0;fillColor=none;collapsible=0;dropTarget=0;points=[[0,0.5],[1,0.5]];portConstraint=eastwest;top=0;left=0;right=0;bottom=0;" parent="CdEZ3CyZhxFSUictnTEU-2" vertex="1">
          <mxGeometry y="150" width="180" height="30" as="geometry" />
        </mxCell>
        <mxCell id="CdEZ3CyZhxFSUictnTEU-10" value="" style="shape=partialRectangle;connectable=0;fillColor=none;top=0;left=0;bottom=0;right=0;editable=1;overflow=hidden;whiteSpace=wrap;html=1;" parent="CdEZ3CyZhxFSUictnTEU-9" vertex="1">
          <mxGeometry width="30" height="30" as="geometry">
            <mxRectangle width="30" height="30" as="alternateBounds" />
          </mxGeometry>
        </mxCell>
        <mxCell id="CdEZ3CyZhxFSUictnTEU-11" value="phoneNumber" style="shape=partialRectangle;connectable=0;fillColor=none;top=0;left=0;bottom=0;right=0;align=left;spacingLeft=6;overflow=hidden;whiteSpace=wrap;html=1;" parent="CdEZ3CyZhxFSUictnTEU-9" vertex="1">
          <mxGeometry x="30" width="150" height="30" as="geometry">
            <mxRectangle width="150" height="30" as="alternateBounds" />
          </mxGeometry>
        </mxCell>
        <mxCell id="CdEZ3CyZhxFSUictnTEU-16" value="" style="shape=tableRow;horizontal=0;startSize=0;swimlaneHead=0;swimlaneBody=0;fillColor=none;collapsible=0;dropTarget=0;points=[[0,0.5],[1,0.5]];portConstraint=eastwest;top=0;left=0;right=0;bottom=0;" parent="CdEZ3CyZhxFSUictnTEU-2" vertex="1">
          <mxGeometry y="180" width="180" height="30" as="geometry" />
        </mxCell>
        <mxCell id="CdEZ3CyZhxFSUictnTEU-17" value="" style="shape=partialRectangle;connectable=0;fillColor=none;top=0;left=0;bottom=0;right=0;fontStyle=0;overflow=hidden;whiteSpace=wrap;html=1;" parent="CdEZ3CyZhxFSUictnTEU-16" vertex="1">
          <mxGeometry width="30" height="30" as="geometry">
            <mxRectangle width="30" height="30" as="alternateBounds" />
          </mxGeometry>
        </mxCell>
        <mxCell id="CdEZ3CyZhxFSUictnTEU-18" value="introduction&amp;nbsp;" style="shape=partialRectangle;connectable=0;fillColor=none;top=0;left=0;bottom=0;right=0;align=left;spacingLeft=6;fontStyle=0;overflow=hidden;whiteSpace=wrap;html=1;" parent="CdEZ3CyZhxFSUictnTEU-16" vertex="1">
          <mxGeometry x="30" width="150" height="30" as="geometry">
            <mxRectangle width="150" height="30" as="alternateBounds" />
          </mxGeometry>
        </mxCell>
        <mxCell id="CdEZ3CyZhxFSUictnTEU-156" value="" style="shape=tableRow;horizontal=0;startSize=0;swimlaneHead=0;swimlaneBody=0;fillColor=none;collapsible=0;dropTarget=0;points=[[0,0.5],[1,0.5]];portConstraint=eastwest;top=0;left=0;right=0;bottom=0;" parent="CdEZ3CyZhxFSUictnTEU-2" vertex="1">
          <mxGeometry y="210" width="180" height="30" as="geometry" />
        </mxCell>
        <mxCell id="CdEZ3CyZhxFSUictnTEU-157" value="" style="shape=partialRectangle;connectable=0;fillColor=none;top=0;left=0;bottom=0;right=0;fontStyle=0;overflow=hidden;whiteSpace=wrap;html=1;" parent="CdEZ3CyZhxFSUictnTEU-156" vertex="1">
          <mxGeometry width="30" height="30" as="geometry">
            <mxRectangle width="30" height="30" as="alternateBounds" />
          </mxGeometry>
        </mxCell>
        <mxCell id="CdEZ3CyZhxFSUictnTEU-158" value="roleId" style="shape=partialRectangle;connectable=0;fillColor=none;top=0;left=0;bottom=0;right=0;align=left;spacingLeft=6;fontStyle=0;overflow=hidden;whiteSpace=wrap;html=1;" parent="CdEZ3CyZhxFSUictnTEU-156" vertex="1">
          <mxGeometry x="30" width="150" height="30" as="geometry">
            <mxRectangle width="150" height="30" as="alternateBounds" />
          </mxGeometry>
        </mxCell>
        <mxCell id="CdEZ3CyZhxFSUictnTEU-342" value="" style="shape=tableRow;horizontal=0;startSize=0;swimlaneHead=0;swimlaneBody=0;fillColor=none;collapsible=0;dropTarget=0;points=[[0,0.5],[1,0.5]];portConstraint=eastwest;top=0;left=0;right=0;bottom=0;" parent="CdEZ3CyZhxFSUictnTEU-2" vertex="1">
          <mxGeometry y="240" width="180" height="30" as="geometry" />
        </mxCell>
        <mxCell id="CdEZ3CyZhxFSUictnTEU-343" value="" style="shape=partialRectangle;connectable=0;fillColor=none;top=0;left=0;bottom=0;right=0;fontStyle=0;overflow=hidden;whiteSpace=wrap;html=1;" parent="CdEZ3CyZhxFSUictnTEU-342" vertex="1">
          <mxGeometry width="30" height="30" as="geometry">
            <mxRectangle width="30" height="30" as="alternateBounds" />
          </mxGeometry>
        </mxCell>
        <mxCell id="CdEZ3CyZhxFSUictnTEU-344" value="isDeleted" style="shape=partialRectangle;connectable=0;fillColor=none;top=0;left=0;bottom=0;right=0;align=left;spacingLeft=6;fontStyle=0;overflow=hidden;whiteSpace=wrap;html=1;" parent="CdEZ3CyZhxFSUictnTEU-342" vertex="1">
          <mxGeometry x="30" width="150" height="30" as="geometry">
            <mxRectangle width="150" height="30" as="alternateBounds" />
          </mxGeometry>
        </mxCell>
        <mxCell id="QvAU7ecHsZQy278lUhVn-88" value="" style="shape=tableRow;horizontal=0;startSize=0;swimlaneHead=0;swimlaneBody=0;fillColor=none;collapsible=0;dropTarget=0;points=[[0,0.5],[1,0.5]];portConstraint=eastwest;top=0;left=0;right=0;bottom=0;" parent="CdEZ3CyZhxFSUictnTEU-2" vertex="1">
          <mxGeometry y="270" width="180" height="30" as="geometry" />
        </mxCell>
        <mxCell id="QvAU7ecHsZQy278lUhVn-89" value="" style="shape=partialRectangle;connectable=0;fillColor=none;top=0;left=0;bottom=0;right=0;fontStyle=0;overflow=hidden;whiteSpace=wrap;html=1;" parent="QvAU7ecHsZQy278lUhVn-88" vertex="1">
          <mxGeometry width="30" height="30" as="geometry">
            <mxRectangle width="30" height="30" as="alternateBounds" />
          </mxGeometry>
        </mxCell>
        <mxCell id="QvAU7ecHsZQy278lUhVn-90" value="avatarLink" style="shape=partialRectangle;connectable=0;fillColor=none;top=0;left=0;bottom=0;right=0;align=left;spacingLeft=6;fontStyle=0;overflow=hidden;whiteSpace=wrap;html=1;" parent="QvAU7ecHsZQy278lUhVn-88" vertex="1">
          <mxGeometry x="30" width="150" height="30" as="geometry">
            <mxRectangle width="150" height="30" as="alternateBounds" />
          </mxGeometry>
        </mxCell>
        <mxCell id="enUyEAp53rSovuV9Oe24-2" value="" style="shape=tableRow;horizontal=0;startSize=0;swimlaneHead=0;swimlaneBody=0;fillColor=none;collapsible=0;dropTarget=0;points=[[0,0.5],[1,0.5]];portConstraint=eastwest;top=0;left=0;right=0;bottom=0;" parent="CdEZ3CyZhxFSUictnTEU-2" vertex="1">
          <mxGeometry y="300" width="180" height="30" as="geometry" />
        </mxCell>
        <mxCell id="enUyEAp53rSovuV9Oe24-3" value="" style="shape=partialRectangle;connectable=0;fillColor=none;top=0;left=0;bottom=0;right=0;editable=1;overflow=hidden;whiteSpace=wrap;html=1;" parent="enUyEAp53rSovuV9Oe24-2" vertex="1">
          <mxGeometry width="30" height="30" as="geometry">
            <mxRectangle width="30" height="30" as="alternateBounds" />
          </mxGeometry>
        </mxCell>
        <mxCell id="enUyEAp53rSovuV9Oe24-4" value="createdDate" style="shape=partialRectangle;connectable=0;top=0;left=0;bottom=0;right=0;align=left;spacingLeft=6;overflow=hidden;whiteSpace=wrap;html=1;" parent="enUyEAp53rSovuV9Oe24-2" vertex="1">
          <mxGeometry x="30" width="150" height="30" as="geometry">
            <mxRectangle width="150" height="30" as="alternateBounds" />
          </mxGeometry>
        </mxCell>
        <mxCell id="j1l9nlEc9lx-D9-xVbDg-4" value="" style="shape=tableRow;horizontal=0;startSize=0;swimlaneHead=0;swimlaneBody=0;fillColor=none;collapsible=0;dropTarget=0;points=[[0,0.5],[1,0.5]];portConstraint=eastwest;top=0;left=0;right=0;bottom=0;" parent="CdEZ3CyZhxFSUictnTEU-2" vertex="1">
          <mxGeometry y="330" width="180" height="30" as="geometry" />
        </mxCell>
        <mxCell id="j1l9nlEc9lx-D9-xVbDg-5" value="" style="shape=partialRectangle;connectable=0;fillColor=none;top=0;left=0;bottom=0;right=0;editable=1;overflow=hidden;whiteSpace=wrap;html=1;" parent="j1l9nlEc9lx-D9-xVbDg-4" vertex="1">
          <mxGeometry width="30" height="30" as="geometry">
            <mxRectangle width="30" height="30" as="alternateBounds" />
          </mxGeometry>
        </mxCell>
        <mxCell id="j1l9nlEc9lx-D9-xVbDg-6" value="buyRating" style="shape=partialRectangle;connectable=0;top=0;left=0;bottom=0;right=0;align=left;spacingLeft=6;overflow=hidden;whiteSpace=wrap;html=1;fillColor=none;" parent="j1l9nlEc9lx-D9-xVbDg-4" vertex="1">
          <mxGeometry x="30" width="150" height="30" as="geometry">
            <mxRectangle width="150" height="30" as="alternateBounds" />
          </mxGeometry>
        </mxCell>
        <mxCell id="j1l9nlEc9lx-D9-xVbDg-7" value="" style="shape=tableRow;horizontal=0;startSize=0;swimlaneHead=0;swimlaneBody=0;fillColor=none;collapsible=0;dropTarget=0;points=[[0,0.5],[1,0.5]];portConstraint=eastwest;top=0;left=0;right=0;bottom=0;" parent="CdEZ3CyZhxFSUictnTEU-2" vertex="1">
          <mxGeometry y="360" width="180" height="30" as="geometry" />
        </mxCell>
        <mxCell id="j1l9nlEc9lx-D9-xVbDg-8" value="" style="shape=partialRectangle;connectable=0;fillColor=none;top=0;left=0;bottom=0;right=0;editable=1;overflow=hidden;whiteSpace=wrap;html=1;" parent="j1l9nlEc9lx-D9-xVbDg-7" vertex="1">
          <mxGeometry width="30" height="30" as="geometry">
            <mxRectangle width="30" height="30" as="alternateBounds" />
          </mxGeometry>
        </mxCell>
        <mxCell id="j1l9nlEc9lx-D9-xVbDg-9" value="sellRating" style="shape=partialRectangle;connectable=0;top=0;left=0;bottom=0;right=0;align=left;spacingLeft=6;overflow=hidden;whiteSpace=wrap;html=1;fillColor=none;" parent="j1l9nlEc9lx-D9-xVbDg-7" vertex="1">
          <mxGeometry x="30" width="150" height="30" as="geometry">
            <mxRectangle width="150" height="30" as="alternateBounds" />
          </mxGeometry>
        </mxCell>
        <mxCell id="CdEZ3CyZhxFSUictnTEU-88" value="Product" style="shape=table;startSize=30;container=1;collapsible=1;childLayout=tableLayout;fixedRows=1;rowLines=0;fontStyle=1;align=center;resizeLast=1;html=1;" parent="1" vertex="1">
          <mxGeometry x="131" y="440" width="180" height="360" as="geometry" />
        </mxCell>
        <mxCell id="CdEZ3CyZhxFSUictnTEU-89" value="" style="shape=tableRow;horizontal=0;startSize=0;swimlaneHead=0;swimlaneBody=0;fillColor=none;collapsible=0;dropTarget=0;points=[[0,0.5],[1,0.5]];portConstraint=eastwest;top=0;left=0;right=0;bottom=1;" parent="CdEZ3CyZhxFSUictnTEU-88" vertex="1">
          <mxGeometry y="30" width="180" height="30" as="geometry" />
        </mxCell>
        <mxCell id="CdEZ3CyZhxFSUictnTEU-90" value="PK" style="shape=partialRectangle;connectable=0;fillColor=none;top=0;left=0;bottom=0;right=0;fontStyle=1;overflow=hidden;whiteSpace=wrap;html=1;" parent="CdEZ3CyZhxFSUictnTEU-89" vertex="1">
          <mxGeometry width="30" height="30" as="geometry">
            <mxRectangle width="30" height="30" as="alternateBounds" />
          </mxGeometry>
        </mxCell>
        <mxCell id="CdEZ3CyZhxFSUictnTEU-91" value="&lt;span style=&quot;font-weight: normal;&quot;&gt;productId&lt;/span&gt;" style="shape=partialRectangle;connectable=0;fillColor=none;top=0;left=0;bottom=0;right=0;align=left;spacingLeft=6;fontStyle=5;overflow=hidden;whiteSpace=wrap;html=1;" parent="CdEZ3CyZhxFSUictnTEU-89" vertex="1">
          <mxGeometry x="30" width="150" height="30" as="geometry">
            <mxRectangle width="150" height="30" as="alternateBounds" />
          </mxGeometry>
        </mxCell>
        <mxCell id="CdEZ3CyZhxFSUictnTEU-92" value="" style="shape=tableRow;horizontal=0;startSize=0;swimlaneHead=0;swimlaneBody=0;fillColor=none;collapsible=0;dropTarget=0;points=[[0,0.5],[1,0.5]];portConstraint=eastwest;top=0;left=0;right=0;bottom=0;" parent="CdEZ3CyZhxFSUictnTEU-88" vertex="1">
          <mxGeometry y="60" width="180" height="30" as="geometry" />
        </mxCell>
        <mxCell id="CdEZ3CyZhxFSUictnTEU-93" value="" style="shape=partialRectangle;connectable=0;fillColor=none;top=0;left=0;bottom=0;right=0;editable=1;overflow=hidden;whiteSpace=wrap;html=1;" parent="CdEZ3CyZhxFSUictnTEU-92" vertex="1">
          <mxGeometry width="30" height="30" as="geometry">
            <mxRectangle width="30" height="30" as="alternateBounds" />
          </mxGeometry>
        </mxCell>
        <mxCell id="CdEZ3CyZhxFSUictnTEU-94" value="productName" style="shape=partialRectangle;connectable=0;fillColor=none;top=0;left=0;bottom=0;right=0;align=left;spacingLeft=6;overflow=hidden;whiteSpace=wrap;html=1;" parent="CdEZ3CyZhxFSUictnTEU-92" vertex="1">
          <mxGeometry x="30" width="150" height="30" as="geometry">
            <mxRectangle width="150" height="30" as="alternateBounds" />
          </mxGeometry>
        </mxCell>
        <mxCell id="CdEZ3CyZhxFSUictnTEU-95" value="" style="shape=tableRow;horizontal=0;startSize=0;swimlaneHead=0;swimlaneBody=0;fillColor=none;collapsible=0;dropTarget=0;points=[[0,0.5],[1,0.5]];portConstraint=eastwest;top=0;left=0;right=0;bottom=0;" parent="CdEZ3CyZhxFSUictnTEU-88" vertex="1">
          <mxGeometry y="90" width="180" height="30" as="geometry" />
        </mxCell>
        <mxCell id="CdEZ3CyZhxFSUictnTEU-96" value="" style="shape=partialRectangle;connectable=0;fillColor=none;top=0;left=0;bottom=0;right=0;editable=1;overflow=hidden;whiteSpace=wrap;html=1;" parent="CdEZ3CyZhxFSUictnTEU-95" vertex="1">
          <mxGeometry width="30" height="30" as="geometry">
            <mxRectangle width="30" height="30" as="alternateBounds" />
          </mxGeometry>
        </mxCell>
        <mxCell id="CdEZ3CyZhxFSUictnTEU-97" value="price" style="shape=partialRectangle;connectable=0;fillColor=none;top=0;left=0;bottom=0;right=0;align=left;spacingLeft=6;overflow=hidden;whiteSpace=wrap;html=1;" parent="CdEZ3CyZhxFSUictnTEU-95" vertex="1">
          <mxGeometry x="30" width="150" height="30" as="geometry">
            <mxRectangle width="150" height="30" as="alternateBounds" />
          </mxGeometry>
        </mxCell>
        <mxCell id="CdEZ3CyZhxFSUictnTEU-98" value="" style="shape=tableRow;horizontal=0;startSize=0;swimlaneHead=0;swimlaneBody=0;fillColor=none;collapsible=0;dropTarget=0;points=[[0,0.5],[1,0.5]];portConstraint=eastwest;top=0;left=0;right=0;bottom=0;" parent="CdEZ3CyZhxFSUictnTEU-88" vertex="1">
          <mxGeometry y="120" width="180" height="30" as="geometry" />
        </mxCell>
        <mxCell id="CdEZ3CyZhxFSUictnTEU-99" value="" style="shape=partialRectangle;connectable=0;fillColor=none;top=0;left=0;bottom=0;right=0;editable=1;overflow=hidden;whiteSpace=wrap;html=1;" parent="CdEZ3CyZhxFSUictnTEU-98" vertex="1">
          <mxGeometry width="30" height="30" as="geometry">
            <mxRectangle width="30" height="30" as="alternateBounds" />
          </mxGeometry>
        </mxCell>
        <mxCell id="CdEZ3CyZhxFSUictnTEU-100" value="isNew" style="shape=partialRectangle;connectable=0;fillColor=none;top=0;left=0;bottom=0;right=0;align=left;spacingLeft=6;overflow=hidden;whiteSpace=wrap;html=1;" parent="CdEZ3CyZhxFSUictnTEU-98" vertex="1">
          <mxGeometry x="30" width="150" height="30" as="geometry">
            <mxRectangle width="150" height="30" as="alternateBounds" />
          </mxGeometry>
        </mxCell>
        <mxCell id="UPTvRcya9LFYI0RSyNBZ-1" value="" style="shape=tableRow;horizontal=0;startSize=0;swimlaneHead=0;swimlaneBody=0;fillColor=#fff2cc;collapsible=0;dropTarget=0;points=[[0,0.5],[1,0.5]];portConstraint=eastwest;top=0;left=0;right=0;bottom=0;strokeColor=#d6b656;" parent="CdEZ3CyZhxFSUictnTEU-88" vertex="1">
          <mxGeometry y="150" width="180" height="30" as="geometry" />
        </mxCell>
        <mxCell id="UPTvRcya9LFYI0RSyNBZ-2" value="" style="shape=partialRectangle;connectable=0;fillColor=none;top=0;left=0;bottom=0;right=0;editable=1;overflow=hidden;whiteSpace=wrap;html=1;" parent="UPTvRcya9LFYI0RSyNBZ-1" vertex="1">
          <mxGeometry width="30" height="30" as="geometry">
            <mxRectangle width="30" height="30" as="alternateBounds" />
          </mxGeometry>
        </mxCell>
        <mxCell id="UPTvRcya9LFYI0RSyNBZ-3" value="dealType" style="shape=partialRectangle;connectable=0;fillColor=none;top=0;left=0;bottom=0;right=0;align=left;spacingLeft=6;overflow=hidden;whiteSpace=wrap;html=1;" parent="UPTvRcya9LFYI0RSyNBZ-1" vertex="1">
          <mxGeometry x="30" width="150" height="30" as="geometry">
            <mxRectangle width="150" height="30" as="alternateBounds" />
          </mxGeometry>
        </mxCell>
        <mxCell id="CdEZ3CyZhxFSUictnTEU-101" value="" style="shape=tableRow;horizontal=0;startSize=0;swimlaneHead=0;swimlaneBody=0;fillColor=none;collapsible=0;dropTarget=0;points=[[0,0.5],[1,0.5]];portConstraint=eastwest;top=0;left=0;right=0;bottom=0;" parent="CdEZ3CyZhxFSUictnTEU-88" vertex="1">
          <mxGeometry y="180" width="180" height="30" as="geometry" />
        </mxCell>
        <mxCell id="CdEZ3CyZhxFSUictnTEU-102" value="" style="shape=partialRectangle;connectable=0;fillColor=none;top=0;left=0;bottom=0;right=0;fontStyle=0;overflow=hidden;whiteSpace=wrap;html=1;" parent="CdEZ3CyZhxFSUictnTEU-101" vertex="1">
          <mxGeometry width="30" height="30" as="geometry">
            <mxRectangle width="30" height="30" as="alternateBounds" />
          </mxGeometry>
        </mxCell>
        <mxCell id="CdEZ3CyZhxFSUictnTEU-103" value="description" style="shape=partialRectangle;connectable=0;fillColor=none;top=0;left=0;bottom=0;right=0;align=left;spacingLeft=6;fontStyle=0;overflow=hidden;whiteSpace=wrap;html=1;" parent="CdEZ3CyZhxFSUictnTEU-101" vertex="1">
          <mxGeometry x="30" width="150" height="30" as="geometry">
            <mxRectangle width="150" height="30" as="alternateBounds" />
          </mxGeometry>
        </mxCell>
        <mxCell id="CdEZ3CyZhxFSUictnTEU-110" value="" style="shape=tableRow;horizontal=0;startSize=0;swimlaneHead=0;swimlaneBody=0;fillColor=none;collapsible=0;dropTarget=0;points=[[0,0.5],[1,0.5]];portConstraint=eastwest;top=0;left=0;right=0;bottom=0;" parent="CdEZ3CyZhxFSUictnTEU-88" vertex="1">
          <mxGeometry y="210" width="180" height="30" as="geometry" />
        </mxCell>
        <mxCell id="CdEZ3CyZhxFSUictnTEU-111" value="" style="shape=partialRectangle;connectable=0;fillColor=none;top=0;left=0;bottom=0;right=0;fontStyle=0;overflow=hidden;whiteSpace=wrap;html=1;" parent="CdEZ3CyZhxFSUictnTEU-110" vertex="1">
          <mxGeometry width="30" height="30" as="geometry">
            <mxRectangle width="30" height="30" as="alternateBounds" />
          </mxGeometry>
        </mxCell>
        <mxCell id="CdEZ3CyZhxFSUictnTEU-112" value="createdDate" style="shape=partialRectangle;connectable=0;fillColor=none;top=0;left=0;bottom=0;right=0;align=left;spacingLeft=6;fontStyle=0;overflow=hidden;whiteSpace=wrap;html=1;" parent="CdEZ3CyZhxFSUictnTEU-110" vertex="1">
          <mxGeometry x="30" width="150" height="30" as="geometry">
            <mxRectangle width="150" height="30" as="alternateBounds" />
          </mxGeometry>
        </mxCell>
        <mxCell id="CdEZ3CyZhxFSUictnTEU-118" value="" style="shape=tableRow;horizontal=0;startSize=0;swimlaneHead=0;swimlaneBody=0;fillColor=none;collapsible=0;dropTarget=0;points=[[0,0.5],[1,0.5]];portConstraint=eastwest;top=0;left=0;right=0;bottom=0;" parent="CdEZ3CyZhxFSUictnTEU-88" vertex="1">
          <mxGeometry y="240" width="180" height="30" as="geometry" />
        </mxCell>
        <mxCell id="CdEZ3CyZhxFSUictnTEU-119" value="FK" style="shape=partialRectangle;connectable=0;fillColor=none;top=0;left=0;bottom=0;right=0;fontStyle=0;overflow=hidden;whiteSpace=wrap;html=1;" parent="CdEZ3CyZhxFSUictnTEU-118" vertex="1">
          <mxGeometry width="30" height="30" as="geometry">
            <mxRectangle width="30" height="30" as="alternateBounds" />
          </mxGeometry>
        </mxCell>
        <mxCell id="CdEZ3CyZhxFSUictnTEU-120" value="sellerId" style="shape=partialRectangle;connectable=0;fillColor=none;top=0;left=0;bottom=0;right=0;align=left;spacingLeft=6;fontStyle=0;overflow=hidden;whiteSpace=wrap;html=1;" parent="CdEZ3CyZhxFSUictnTEU-118" vertex="1">
          <mxGeometry x="30" width="150" height="30" as="geometry">
            <mxRectangle width="150" height="30" as="alternateBounds" />
          </mxGeometry>
        </mxCell>
        <mxCell id="CdEZ3CyZhxFSUictnTEU-290" value="" style="shape=tableRow;horizontal=0;startSize=0;swimlaneHead=0;swimlaneBody=0;fillColor=none;collapsible=0;dropTarget=0;points=[[0,0.5],[1,0.5]];portConstraint=eastwest;top=0;left=0;right=0;bottom=0;" parent="CdEZ3CyZhxFSUictnTEU-88" vertex="1">
          <mxGeometry y="270" width="180" height="30" as="geometry" />
        </mxCell>
        <mxCell id="CdEZ3CyZhxFSUictnTEU-291" value="FK" style="shape=partialRectangle;connectable=0;fillColor=none;top=0;left=0;bottom=0;right=0;fontStyle=0;overflow=hidden;whiteSpace=wrap;html=1;" parent="CdEZ3CyZhxFSUictnTEU-290" vertex="1">
          <mxGeometry width="30" height="30" as="geometry">
            <mxRectangle width="30" height="30" as="alternateBounds" />
          </mxGeometry>
        </mxCell>
        <mxCell id="CdEZ3CyZhxFSUictnTEU-292" value="categoryId" style="shape=partialRectangle;connectable=0;fillColor=none;top=0;left=0;bottom=0;right=0;align=left;spacingLeft=6;fontStyle=0;overflow=hidden;whiteSpace=wrap;html=1;" parent="CdEZ3CyZhxFSUictnTEU-290" vertex="1">
          <mxGeometry x="30" width="150" height="30" as="geometry">
            <mxRectangle width="150" height="30" as="alternateBounds" />
          </mxGeometry>
        </mxCell>
        <mxCell id="CdEZ3CyZhxFSUictnTEU-354" value="" style="shape=tableRow;horizontal=0;startSize=0;swimlaneHead=0;swimlaneBody=0;fillColor=none;collapsible=0;dropTarget=0;points=[[0,0.5],[1,0.5]];portConstraint=eastwest;top=0;left=0;right=0;bottom=0;" parent="CdEZ3CyZhxFSUictnTEU-88" vertex="1">
          <mxGeometry y="300" width="180" height="30" as="geometry" />
        </mxCell>
        <mxCell id="CdEZ3CyZhxFSUictnTEU-355" value="" style="shape=partialRectangle;connectable=0;fillColor=none;top=0;left=0;bottom=0;right=0;fontStyle=0;overflow=hidden;whiteSpace=wrap;html=1;" parent="CdEZ3CyZhxFSUictnTEU-354" vertex="1">
          <mxGeometry width="30" height="30" as="geometry">
            <mxRectangle width="30" height="30" as="alternateBounds" />
          </mxGeometry>
        </mxCell>
        <mxCell id="CdEZ3CyZhxFSUictnTEU-356" value="status" style="shape=partialRectangle;connectable=0;fillColor=none;top=0;left=0;bottom=0;right=0;align=left;spacingLeft=6;fontStyle=0;overflow=hidden;whiteSpace=wrap;html=1;" parent="CdEZ3CyZhxFSUictnTEU-354" vertex="1">
          <mxGeometry x="30" width="150" height="30" as="geometry">
            <mxRectangle width="150" height="30" as="alternateBounds" />
          </mxGeometry>
        </mxCell>
        <mxCell id="j1l9nlEc9lx-D9-xVbDg-1" value="" style="shape=tableRow;horizontal=0;startSize=0;swimlaneHead=0;swimlaneBody=0;fillColor=none;collapsible=0;dropTarget=0;points=[[0,0.5],[1,0.5]];portConstraint=eastwest;top=0;left=0;right=0;bottom=0;" parent="CdEZ3CyZhxFSUictnTEU-88" vertex="1">
          <mxGeometry y="330" width="180" height="30" as="geometry" />
        </mxCell>
        <mxCell id="j1l9nlEc9lx-D9-xVbDg-2" value="" style="shape=partialRectangle;connectable=0;fillColor=none;top=0;left=0;bottom=0;right=0;fontStyle=0;overflow=hidden;whiteSpace=wrap;html=1;" parent="j1l9nlEc9lx-D9-xVbDg-1" vertex="1">
          <mxGeometry width="30" height="30" as="geometry">
            <mxRectangle width="30" height="30" as="alternateBounds" />
          </mxGeometry>
        </mxCell>
        <mxCell id="j1l9nlEc9lx-D9-xVbDg-3" value="storedQuantity" style="shape=partialRectangle;connectable=0;fillColor=none;top=0;left=0;bottom=0;right=0;align=left;spacingLeft=6;fontStyle=0;overflow=hidden;whiteSpace=wrap;html=1;" parent="j1l9nlEc9lx-D9-xVbDg-1" vertex="1">
          <mxGeometry x="30" width="150" height="30" as="geometry">
            <mxRectangle width="150" height="30" as="alternateBounds" />
          </mxGeometry>
        </mxCell>
        <mxCell id="CdEZ3CyZhxFSUictnTEU-125" value="" style="fontSize=12;html=1;endArrow=ERoneToMany;rounded=0;exitX=-0.004;exitY=0.562;exitDx=0;exitDy=0;entryX=1;entryY=0.5;entryDx=0;entryDy=0;exitPerimeter=0;" parent="1" source="CdEZ3CyZhxFSUictnTEU-3" target="CdEZ3CyZhxFSUictnTEU-118" edge="1">
          <mxGeometry width="100" height="100" relative="1" as="geometry">
            <mxPoint x="629.9999999999998" y="480" as="sourcePoint" />
            <mxPoint x="280.0000000000002" y="710" as="targetPoint" />
            <Array as="points">
              <mxPoint x="630" y="460" />
              <mxPoint x="630" y="520" />
              <mxPoint x="510" y="520" />
              <mxPoint x="360" y="520" />
              <mxPoint x="360" y="665" />
            </Array>
          </mxGeometry>
        </mxCell>
        <mxCell id="CdEZ3CyZhxFSUictnTEU-126" value="Order" style="shape=table;startSize=30;container=1;collapsible=1;childLayout=tableLayout;fixedRows=1;rowLines=0;fontStyle=1;align=center;resizeLast=1;html=1;fillColor=#d5e8d4;strokeColor=#82b366;" parent="1" vertex="1">
          <mxGeometry x="340" y="-40" width="180" height="360.0000000000002" as="geometry" />
        </mxCell>
        <mxCell id="CdEZ3CyZhxFSUictnTEU-127" value="" style="shape=tableRow;horizontal=0;startSize=0;swimlaneHead=0;swimlaneBody=0;fillColor=none;collapsible=0;dropTarget=0;points=[[0,0.5],[1,0.5]];portConstraint=eastwest;top=0;left=0;right=0;bottom=1;" parent="CdEZ3CyZhxFSUictnTEU-126" vertex="1">
          <mxGeometry y="30" width="180" height="30" as="geometry" />
        </mxCell>
        <mxCell id="CdEZ3CyZhxFSUictnTEU-128" value="PK" style="shape=partialRectangle;connectable=0;fillColor=none;top=0;left=0;bottom=0;right=0;fontStyle=1;overflow=hidden;whiteSpace=wrap;html=1;" parent="CdEZ3CyZhxFSUictnTEU-127" vertex="1">
          <mxGeometry width="30" height="30" as="geometry">
            <mxRectangle width="30" height="30" as="alternateBounds" />
          </mxGeometry>
        </mxCell>
        <mxCell id="CdEZ3CyZhxFSUictnTEU-129" value="&lt;span style=&quot;font-weight: 400;&quot;&gt;orderId&lt;/span&gt;" style="shape=partialRectangle;connectable=0;fillColor=none;top=0;left=0;bottom=0;right=0;align=left;spacingLeft=6;fontStyle=5;overflow=hidden;whiteSpace=wrap;html=1;" parent="CdEZ3CyZhxFSUictnTEU-127" vertex="1">
          <mxGeometry x="30" width="150" height="30" as="geometry">
            <mxRectangle width="150" height="30" as="alternateBounds" />
          </mxGeometry>
        </mxCell>
        <mxCell id="CdEZ3CyZhxFSUictnTEU-133" value="" style="shape=tableRow;horizontal=0;startSize=0;swimlaneHead=0;swimlaneBody=0;fillColor=none;collapsible=0;dropTarget=0;points=[[0,0.5],[1,0.5]];portConstraint=eastwest;top=0;left=0;right=0;bottom=0;" parent="CdEZ3CyZhxFSUictnTEU-126" vertex="1">
          <mxGeometry y="60" width="180" height="30" as="geometry" />
        </mxCell>
        <mxCell id="CdEZ3CyZhxFSUictnTEU-134" value="" style="shape=partialRectangle;connectable=0;fillColor=none;top=0;left=0;bottom=0;right=0;editable=1;overflow=hidden;whiteSpace=wrap;html=1;" parent="CdEZ3CyZhxFSUictnTEU-133" vertex="1">
          <mxGeometry width="30" height="30" as="geometry">
            <mxRectangle width="30" height="30" as="alternateBounds" />
          </mxGeometry>
        </mxCell>
        <mxCell id="CdEZ3CyZhxFSUictnTEU-135" value="price" style="shape=partialRectangle;connectable=0;fillColor=none;top=0;left=0;bottom=0;right=0;align=left;spacingLeft=6;overflow=hidden;whiteSpace=wrap;html=1;" parent="CdEZ3CyZhxFSUictnTEU-133" vertex="1">
          <mxGeometry x="30" width="150" height="30" as="geometry">
            <mxRectangle width="150" height="30" as="alternateBounds" />
          </mxGeometry>
        </mxCell>
        <mxCell id="CdEZ3CyZhxFSUictnTEU-194" value="" style="shape=tableRow;horizontal=0;startSize=0;swimlaneHead=0;swimlaneBody=0;fillColor=none;collapsible=0;dropTarget=0;points=[[0,0.5],[1,0.5]];portConstraint=eastwest;top=0;left=0;right=0;bottom=0;" parent="CdEZ3CyZhxFSUictnTEU-126" vertex="1">
          <mxGeometry y="90" width="180" height="30" as="geometry" />
        </mxCell>
        <mxCell id="CdEZ3CyZhxFSUictnTEU-195" value="&lt;b&gt;FK&lt;/b&gt;" style="shape=partialRectangle;connectable=0;fillColor=none;top=0;left=0;bottom=0;right=0;editable=1;overflow=hidden;whiteSpace=wrap;html=1;" parent="CdEZ3CyZhxFSUictnTEU-194" vertex="1">
          <mxGeometry width="30" height="30" as="geometry">
            <mxRectangle width="30" height="30" as="alternateBounds" />
          </mxGeometry>
        </mxCell>
        <mxCell id="CdEZ3CyZhxFSUictnTEU-196" value="buyerId" style="shape=partialRectangle;connectable=0;fillColor=none;top=0;left=0;bottom=0;right=0;align=left;spacingLeft=6;overflow=hidden;whiteSpace=wrap;html=1;" parent="CdEZ3CyZhxFSUictnTEU-194" vertex="1">
          <mxGeometry x="30" width="150" height="30" as="geometry">
            <mxRectangle width="150" height="30" as="alternateBounds" />
          </mxGeometry>
        </mxCell>
        <mxCell id="P6H75Iuykzm-ga6hv1Ka-4" value="" style="shape=tableRow;horizontal=0;startSize=0;swimlaneHead=0;swimlaneBody=0;fillColor=none;collapsible=0;dropTarget=0;points=[[0,0.5],[1,0.5]];portConstraint=eastwest;top=0;left=0;right=0;bottom=0;" parent="CdEZ3CyZhxFSUictnTEU-126" vertex="1">
          <mxGeometry y="120" width="180" height="30" as="geometry" />
        </mxCell>
        <mxCell id="P6H75Iuykzm-ga6hv1Ka-5" value="&lt;b&gt;FK&lt;/b&gt;" style="shape=partialRectangle;connectable=0;fillColor=none;top=0;left=0;bottom=0;right=0;editable=1;overflow=hidden;whiteSpace=wrap;html=1;" parent="P6H75Iuykzm-ga6hv1Ka-4" vertex="1">
          <mxGeometry width="30" height="30" as="geometry">
            <mxRectangle width="30" height="30" as="alternateBounds" />
          </mxGeometry>
        </mxCell>
        <mxCell id="P6H75Iuykzm-ga6hv1Ka-6" value="sellerId" style="shape=partialRectangle;connectable=0;fillColor=none;top=0;left=0;bottom=0;right=0;align=left;spacingLeft=6;overflow=hidden;whiteSpace=wrap;html=1;" parent="P6H75Iuykzm-ga6hv1Ka-4" vertex="1">
          <mxGeometry x="30" width="150" height="30" as="geometry">
            <mxRectangle width="150" height="30" as="alternateBounds" />
          </mxGeometry>
        </mxCell>
        <mxCell id="CdEZ3CyZhxFSUictnTEU-351" value="" style="shape=tableRow;horizontal=0;startSize=0;swimlaneHead=0;swimlaneBody=0;fillColor=none;collapsible=0;dropTarget=0;points=[[0,0.5],[1,0.5]];portConstraint=eastwest;top=0;left=0;right=0;bottom=0;" parent="CdEZ3CyZhxFSUictnTEU-126" vertex="1">
          <mxGeometry y="150" width="180" height="30" as="geometry" />
        </mxCell>
        <mxCell id="CdEZ3CyZhxFSUictnTEU-352" value="" style="shape=partialRectangle;connectable=0;fillColor=none;top=0;left=0;bottom=0;right=0;editable=1;overflow=hidden;whiteSpace=wrap;html=1;" parent="CdEZ3CyZhxFSUictnTEU-351" vertex="1">
          <mxGeometry width="30" height="30" as="geometry">
            <mxRectangle width="30" height="30" as="alternateBounds" />
          </mxGeometry>
        </mxCell>
        <mxCell id="CdEZ3CyZhxFSUictnTEU-353" value="paymentMethod" style="shape=partialRectangle;connectable=0;fillColor=none;top=0;left=0;bottom=0;right=0;align=left;spacingLeft=6;overflow=hidden;whiteSpace=wrap;html=1;" parent="CdEZ3CyZhxFSUictnTEU-351" vertex="1">
          <mxGeometry x="30" width="150" height="30" as="geometry">
            <mxRectangle width="150" height="30" as="alternateBounds" />
          </mxGeometry>
        </mxCell>
        <mxCell id="CdEZ3CyZhxFSUictnTEU-357" value="" style="shape=tableRow;horizontal=0;startSize=0;swimlaneHead=0;swimlaneBody=0;fillColor=none;collapsible=0;dropTarget=0;points=[[0,0.5],[1,0.5]];portConstraint=eastwest;top=0;left=0;right=0;bottom=0;" parent="CdEZ3CyZhxFSUictnTEU-126" vertex="1">
          <mxGeometry y="180" width="180" height="30" as="geometry" />
        </mxCell>
        <mxCell id="CdEZ3CyZhxFSUictnTEU-358" value="" style="shape=partialRectangle;connectable=0;fillColor=none;top=0;left=0;bottom=0;right=0;editable=1;overflow=hidden;whiteSpace=wrap;html=1;" parent="CdEZ3CyZhxFSUictnTEU-357" vertex="1">
          <mxGeometry width="30" height="30" as="geometry">
            <mxRectangle width="30" height="30" as="alternateBounds" />
          </mxGeometry>
        </mxCell>
        <mxCell id="CdEZ3CyZhxFSUictnTEU-359" value="status" style="shape=partialRectangle;connectable=0;fillColor=none;top=0;left=0;bottom=0;right=0;align=left;spacingLeft=6;overflow=hidden;whiteSpace=wrap;html=1;" parent="CdEZ3CyZhxFSUictnTEU-357" vertex="1">
          <mxGeometry x="30" width="150" height="30" as="geometry">
            <mxRectangle width="150" height="30" as="alternateBounds" />
          </mxGeometry>
        </mxCell>
        <mxCell id="QvAU7ecHsZQy278lUhVn-99" value="" style="shape=tableRow;horizontal=0;startSize=0;swimlaneHead=0;swimlaneBody=0;fillColor=none;collapsible=0;dropTarget=0;points=[[0,0.5],[1,0.5]];portConstraint=eastwest;top=0;left=0;right=0;bottom=0;" parent="CdEZ3CyZhxFSUictnTEU-126" vertex="1">
          <mxGeometry y="210" width="180" height="30" as="geometry" />
        </mxCell>
        <mxCell id="QvAU7ecHsZQy278lUhVn-100" value="" style="shape=partialRectangle;connectable=0;fillColor=none;top=0;left=0;bottom=0;right=0;editable=1;overflow=hidden;whiteSpace=wrap;html=1;" parent="QvAU7ecHsZQy278lUhVn-99" vertex="1">
          <mxGeometry width="30" height="30" as="geometry">
            <mxRectangle width="30" height="30" as="alternateBounds" />
          </mxGeometry>
        </mxCell>
        <mxCell id="QvAU7ecHsZQy278lUhVn-101" value="note" style="shape=partialRectangle;connectable=0;fillColor=none;top=0;left=0;bottom=0;right=0;align=left;spacingLeft=6;overflow=hidden;whiteSpace=wrap;html=1;" parent="QvAU7ecHsZQy278lUhVn-99" vertex="1">
          <mxGeometry x="30" width="150" height="30" as="geometry">
            <mxRectangle width="150" height="30" as="alternateBounds" />
          </mxGeometry>
        </mxCell>
        <mxCell id="QvAU7ecHsZQy278lUhVn-105" value="" style="shape=tableRow;horizontal=0;startSize=0;swimlaneHead=0;swimlaneBody=0;fillColor=none;collapsible=0;dropTarget=0;points=[[0,0.5],[1,0.5]];portConstraint=eastwest;top=0;left=0;right=0;bottom=0;" parent="CdEZ3CyZhxFSUictnTEU-126" vertex="1">
          <mxGeometry y="240" width="180" height="30" as="geometry" />
        </mxCell>
        <mxCell id="QvAU7ecHsZQy278lUhVn-106" value="" style="shape=partialRectangle;connectable=0;fillColor=none;top=0;left=0;bottom=0;right=0;editable=1;overflow=hidden;whiteSpace=wrap;html=1;" parent="QvAU7ecHsZQy278lUhVn-105" vertex="1">
          <mxGeometry width="30" height="30" as="geometry">
            <mxRectangle width="30" height="30" as="alternateBounds" />
          </mxGeometry>
        </mxCell>
        <mxCell id="QvAU7ecHsZQy278lUhVn-107" value="productId" style="shape=partialRectangle;connectable=0;fillColor=none;top=0;left=0;bottom=0;right=0;align=left;spacingLeft=6;overflow=hidden;whiteSpace=wrap;html=1;" parent="QvAU7ecHsZQy278lUhVn-105" vertex="1">
          <mxGeometry x="30" width="150" height="30" as="geometry">
            <mxRectangle width="150" height="30" as="alternateBounds" />
          </mxGeometry>
        </mxCell>
        <mxCell id="QvAU7ecHsZQy278lUhVn-108" value="" style="shape=tableRow;horizontal=0;startSize=0;swimlaneHead=0;swimlaneBody=0;fillColor=none;collapsible=0;dropTarget=0;points=[[0,0.5],[1,0.5]];portConstraint=eastwest;top=0;left=0;right=0;bottom=0;" parent="CdEZ3CyZhxFSUictnTEU-126" vertex="1">
          <mxGeometry y="270" width="180" height="30" as="geometry" />
        </mxCell>
        <mxCell id="QvAU7ecHsZQy278lUhVn-109" value="" style="shape=partialRectangle;connectable=0;fillColor=none;top=0;left=0;bottom=0;right=0;editable=1;overflow=hidden;whiteSpace=wrap;html=1;" parent="QvAU7ecHsZQy278lUhVn-108" vertex="1">
          <mxGeometry width="30" height="30" as="geometry">
            <mxRectangle width="30" height="30" as="alternateBounds" />
          </mxGeometry>
        </mxCell>
        <mxCell id="QvAU7ecHsZQy278lUhVn-110" value="quantity" style="shape=partialRectangle;connectable=0;fillColor=none;top=0;left=0;bottom=0;right=0;align=left;spacingLeft=6;overflow=hidden;whiteSpace=wrap;html=1;" parent="QvAU7ecHsZQy278lUhVn-108" vertex="1">
          <mxGeometry x="30" width="150" height="30" as="geometry">
            <mxRectangle width="150" height="30" as="alternateBounds" />
          </mxGeometry>
        </mxCell>
        <mxCell id="CdEZ3CyZhxFSUictnTEU-130" value="" style="shape=tableRow;horizontal=0;startSize=0;swimlaneHead=0;swimlaneBody=0;fillColor=none;collapsible=0;dropTarget=0;points=[[0,0.5],[1,0.5]];portConstraint=eastwest;top=0;left=0;right=0;bottom=0;" parent="CdEZ3CyZhxFSUictnTEU-126" vertex="1">
          <mxGeometry y="300" width="180" height="30" as="geometry" />
        </mxCell>
        <mxCell id="CdEZ3CyZhxFSUictnTEU-131" value="" style="shape=partialRectangle;connectable=0;fillColor=none;top=0;left=0;bottom=0;right=0;editable=1;overflow=hidden;whiteSpace=wrap;html=1;" parent="CdEZ3CyZhxFSUictnTEU-130" vertex="1">
          <mxGeometry width="30" height="30" as="geometry">
            <mxRectangle width="30" height="30" as="alternateBounds" />
          </mxGeometry>
        </mxCell>
        <mxCell id="CdEZ3CyZhxFSUictnTEU-132" value="createdDate" style="shape=partialRectangle;connectable=0;fillColor=none;top=0;left=0;bottom=0;right=0;align=left;spacingLeft=6;overflow=hidden;whiteSpace=wrap;html=1;" parent="CdEZ3CyZhxFSUictnTEU-130" vertex="1">
          <mxGeometry x="30" width="150" height="30" as="geometry">
            <mxRectangle width="150" height="30" as="alternateBounds" />
          </mxGeometry>
        </mxCell>
        <mxCell id="QvAU7ecHsZQy278lUhVn-112" value="" style="shape=tableRow;horizontal=0;startSize=0;swimlaneHead=0;swimlaneBody=0;fillColor=none;collapsible=0;dropTarget=0;points=[[0,0.5],[1,0.5]];portConstraint=eastwest;top=0;left=0;right=0;bottom=0;" parent="CdEZ3CyZhxFSUictnTEU-126" vertex="1">
          <mxGeometry y="330" width="180" height="30" as="geometry" />
        </mxCell>
        <mxCell id="QvAU7ecHsZQy278lUhVn-113" value="" style="shape=partialRectangle;connectable=0;fillColor=none;top=0;left=0;bottom=0;right=0;editable=1;overflow=hidden;whiteSpace=wrap;html=1;" parent="QvAU7ecHsZQy278lUhVn-112" vertex="1">
          <mxGeometry width="30" height="30" as="geometry">
            <mxRectangle width="30" height="30" as="alternateBounds" />
          </mxGeometry>
        </mxCell>
        <mxCell id="QvAU7ecHsZQy278lUhVn-114" value="receiverAddress" style="shape=partialRectangle;connectable=0;fillColor=none;top=0;left=0;bottom=0;right=0;align=left;spacingLeft=6;overflow=hidden;whiteSpace=wrap;html=1;" parent="QvAU7ecHsZQy278lUhVn-112" vertex="1">
          <mxGeometry x="30" width="150" height="30" as="geometry">
            <mxRectangle width="150" height="30" as="alternateBounds" />
          </mxGeometry>
        </mxCell>
        <mxCell id="CdEZ3CyZhxFSUictnTEU-139" value="Wishlist" style="shape=table;startSize=30;container=1;collapsible=1;childLayout=tableLayout;fixedRows=1;rowLines=0;fontStyle=1;align=center;resizeLast=1;html=1;" parent="1" vertex="1">
          <mxGeometry x="420" y="400" width="170" height="90" as="geometry" />
        </mxCell>
        <mxCell id="CdEZ3CyZhxFSUictnTEU-140" value="" style="shape=tableRow;horizontal=0;startSize=0;swimlaneHead=0;swimlaneBody=0;fillColor=none;collapsible=0;dropTarget=0;points=[[0,0.5],[1,0.5]];portConstraint=eastwest;top=0;left=0;right=0;bottom=1;" parent="CdEZ3CyZhxFSUictnTEU-139" vertex="1">
          <mxGeometry y="30" width="170" height="30" as="geometry" />
        </mxCell>
        <mxCell id="CdEZ3CyZhxFSUictnTEU-141" value="PK, FK" style="shape=partialRectangle;connectable=0;fillColor=none;top=0;left=0;bottom=0;right=0;fontStyle=1;overflow=hidden;whiteSpace=wrap;html=1;" parent="CdEZ3CyZhxFSUictnTEU-140" vertex="1">
          <mxGeometry width="50.00000000000023" height="30" as="geometry">
            <mxRectangle width="50.00000000000023" height="30" as="alternateBounds" />
          </mxGeometry>
        </mxCell>
        <mxCell id="CdEZ3CyZhxFSUictnTEU-142" value="&lt;span style=&quot;font-weight: normal;&quot;&gt;userId&lt;/span&gt;" style="shape=partialRectangle;connectable=0;fillColor=none;top=0;left=0;bottom=0;right=0;align=left;spacingLeft=6;fontStyle=5;overflow=hidden;whiteSpace=wrap;html=1;" parent="CdEZ3CyZhxFSUictnTEU-140" vertex="1">
          <mxGeometry x="50.00000000000023" width="119.99999999999977" height="30" as="geometry">
            <mxRectangle width="119.99999999999977" height="30" as="alternateBounds" />
          </mxGeometry>
        </mxCell>
        <mxCell id="CdEZ3CyZhxFSUictnTEU-143" value="" style="shape=tableRow;horizontal=0;startSize=0;swimlaneHead=0;swimlaneBody=0;fillColor=none;collapsible=0;dropTarget=0;points=[[0,0.5],[1,0.5]];portConstraint=eastwest;top=0;left=0;right=0;bottom=0;" parent="CdEZ3CyZhxFSUictnTEU-139" vertex="1">
          <mxGeometry y="60" width="170" height="30" as="geometry" />
        </mxCell>
        <mxCell id="CdEZ3CyZhxFSUictnTEU-144" value="&lt;b&gt;PK, FK&lt;/b&gt;" style="shape=partialRectangle;connectable=0;fillColor=none;top=0;left=0;bottom=0;right=0;editable=1;overflow=hidden;whiteSpace=wrap;html=1;" parent="CdEZ3CyZhxFSUictnTEU-143" vertex="1">
          <mxGeometry width="50.00000000000023" height="30" as="geometry">
            <mxRectangle width="50.00000000000023" height="30" as="alternateBounds" />
          </mxGeometry>
        </mxCell>
        <mxCell id="CdEZ3CyZhxFSUictnTEU-145" value="&lt;u style=&quot;&quot;&gt;productId&lt;/u&gt;" style="shape=partialRectangle;connectable=0;fillColor=none;top=0;left=0;bottom=0;right=0;align=left;spacingLeft=6;overflow=hidden;whiteSpace=wrap;html=1;" parent="CdEZ3CyZhxFSUictnTEU-143" vertex="1">
          <mxGeometry x="50.00000000000023" width="119.99999999999977" height="30" as="geometry">
            <mxRectangle width="119.99999999999977" height="30" as="alternateBounds" />
          </mxGeometry>
        </mxCell>
        <mxCell id="CdEZ3CyZhxFSUictnTEU-153" value="" style="edgeStyle=entityRelationEdgeStyle;fontSize=12;html=1;endArrow=ERoneToMany;rounded=0;entryX=0;entryY=0.5;entryDx=0;entryDy=0;exitX=1;exitY=0.5;exitDx=0;exitDy=0;" parent="1" source="CdEZ3CyZhxFSUictnTEU-89" target="CdEZ3CyZhxFSUictnTEU-143" edge="1">
          <mxGeometry width="100" height="100" relative="1" as="geometry">
            <mxPoint x="342" y="448" as="sourcePoint" />
            <mxPoint x="740" y="330" as="targetPoint" />
          </mxGeometry>
        </mxCell>
        <mxCell id="CdEZ3CyZhxFSUictnTEU-154" value="" style="edgeStyle=entityRelationEdgeStyle;fontSize=12;html=1;endArrow=ERoneToMany;rounded=0;exitX=-0.008;exitY=0.394;exitDx=0;exitDy=0;entryX=1;entryY=0.5;entryDx=0;entryDy=0;movable=1;resizable=1;rotatable=1;deletable=1;editable=1;locked=0;connectable=1;exitPerimeter=0;" parent="1" source="CdEZ3CyZhxFSUictnTEU-3" target="CdEZ3CyZhxFSUictnTEU-140" edge="1">
          <mxGeometry width="100" height="100" relative="1" as="geometry">
            <mxPoint x="650" y="440" as="sourcePoint" />
            <mxPoint x="740" y="330" as="targetPoint" />
            <Array as="points">
              <mxPoint x="670" y="450" />
              <mxPoint x="750" y="350" />
              <mxPoint x="900" y="280" />
            </Array>
          </mxGeometry>
        </mxCell>
        <mxCell id="CdEZ3CyZhxFSUictnTEU-164" value="Feedback" style="shape=table;startSize=30;container=1;collapsible=1;childLayout=tableLayout;fixedRows=1;rowLines=0;fontStyle=1;align=center;resizeLast=1;html=1;fillColor=#d5e8d4;strokeColor=#82b366;" parent="1" vertex="1">
          <mxGeometry x="640" y="-110" width="180" height="240" as="geometry" />
        </mxCell>
        <mxCell id="CdEZ3CyZhxFSUictnTEU-165" value="" style="shape=tableRow;horizontal=0;startSize=0;swimlaneHead=0;swimlaneBody=0;fillColor=none;collapsible=0;dropTarget=0;points=[[0,0.5],[1,0.5]];portConstraint=eastwest;top=0;left=0;right=0;bottom=1;" parent="CdEZ3CyZhxFSUictnTEU-164" vertex="1">
          <mxGeometry y="30" width="180" height="30" as="geometry" />
        </mxCell>
        <mxCell id="CdEZ3CyZhxFSUictnTEU-166" value="PK" style="shape=partialRectangle;connectable=0;fillColor=none;top=0;left=0;bottom=0;right=0;fontStyle=1;overflow=hidden;whiteSpace=wrap;html=1;" parent="CdEZ3CyZhxFSUictnTEU-165" vertex="1">
          <mxGeometry width="30" height="30" as="geometry">
            <mxRectangle width="30" height="30" as="alternateBounds" />
          </mxGeometry>
        </mxCell>
        <mxCell id="CdEZ3CyZhxFSUictnTEU-167" value="&lt;span style=&quot;font-weight: normal;&quot;&gt;feedbackId&lt;/span&gt;" style="shape=partialRectangle;connectable=0;fillColor=none;top=0;left=0;bottom=0;right=0;align=left;spacingLeft=6;fontStyle=5;overflow=hidden;whiteSpace=wrap;html=1;" parent="CdEZ3CyZhxFSUictnTEU-165" vertex="1">
          <mxGeometry x="30" width="150" height="30" as="geometry">
            <mxRectangle width="150" height="30" as="alternateBounds" />
          </mxGeometry>
        </mxCell>
        <mxCell id="CdEZ3CyZhxFSUictnTEU-174" value="" style="shape=tableRow;horizontal=0;startSize=0;swimlaneHead=0;swimlaneBody=0;fillColor=none;collapsible=0;dropTarget=0;points=[[0,0.5],[1,0.5]];portConstraint=eastwest;top=0;left=0;right=0;bottom=0;" parent="CdEZ3CyZhxFSUictnTEU-164" vertex="1">
          <mxGeometry y="60" width="180" height="30" as="geometry" />
        </mxCell>
        <mxCell id="CdEZ3CyZhxFSUictnTEU-175" value="" style="shape=partialRectangle;connectable=0;fillColor=none;top=0;left=0;bottom=0;right=0;editable=1;overflow=hidden;whiteSpace=wrap;html=1;" parent="CdEZ3CyZhxFSUictnTEU-174" vertex="1">
          <mxGeometry width="30" height="30" as="geometry">
            <mxRectangle width="30" height="30" as="alternateBounds" />
          </mxGeometry>
        </mxCell>
        <mxCell id="CdEZ3CyZhxFSUictnTEU-176" value="content" style="shape=partialRectangle;connectable=0;fillColor=none;top=0;left=0;bottom=0;right=0;align=left;spacingLeft=6;overflow=hidden;whiteSpace=wrap;html=1;" parent="CdEZ3CyZhxFSUictnTEU-174" vertex="1">
          <mxGeometry x="30" width="150" height="30" as="geometry">
            <mxRectangle width="150" height="30" as="alternateBounds" />
          </mxGeometry>
        </mxCell>
        <mxCell id="CdEZ3CyZhxFSUictnTEU-187" value="" style="shape=tableRow;horizontal=0;startSize=0;swimlaneHead=0;swimlaneBody=0;fillColor=none;collapsible=0;dropTarget=0;points=[[0,0.5],[1,0.5]];portConstraint=eastwest;top=0;left=0;right=0;bottom=0;" parent="CdEZ3CyZhxFSUictnTEU-164" vertex="1">
          <mxGeometry y="90" width="180" height="30" as="geometry" />
        </mxCell>
        <mxCell id="CdEZ3CyZhxFSUictnTEU-188" value="" style="shape=partialRectangle;connectable=0;fillColor=none;top=0;left=0;bottom=0;right=0;editable=1;overflow=hidden;whiteSpace=wrap;html=1;" parent="CdEZ3CyZhxFSUictnTEU-187" vertex="1">
          <mxGeometry width="30" height="30" as="geometry">
            <mxRectangle width="30" height="30" as="alternateBounds" />
          </mxGeometry>
        </mxCell>
        <mxCell id="CdEZ3CyZhxFSUictnTEU-189" value="rating" style="shape=partialRectangle;connectable=0;fillColor=none;top=0;left=0;bottom=0;right=0;align=left;spacingLeft=6;overflow=hidden;whiteSpace=wrap;html=1;" parent="CdEZ3CyZhxFSUictnTEU-187" vertex="1">
          <mxGeometry x="30" width="150" height="30" as="geometry">
            <mxRectangle width="150" height="30" as="alternateBounds" />
          </mxGeometry>
        </mxCell>
        <mxCell id="CdEZ3CyZhxFSUictnTEU-375" value="" style="shape=tableRow;horizontal=0;startSize=0;swimlaneHead=0;swimlaneBody=0;fillColor=none;collapsible=0;dropTarget=0;points=[[0,0.5],[1,0.5]];portConstraint=eastwest;top=0;left=0;right=0;bottom=0;" parent="CdEZ3CyZhxFSUictnTEU-164" vertex="1">
          <mxGeometry y="120" width="180" height="30" as="geometry" />
        </mxCell>
        <mxCell id="CdEZ3CyZhxFSUictnTEU-376" value="&lt;b&gt;FK&lt;/b&gt;" style="shape=partialRectangle;connectable=0;fillColor=none;top=0;left=0;bottom=0;right=0;editable=1;overflow=hidden;whiteSpace=wrap;html=1;" parent="CdEZ3CyZhxFSUictnTEU-375" vertex="1">
          <mxGeometry width="30" height="30" as="geometry">
            <mxRectangle width="30" height="30" as="alternateBounds" />
          </mxGeometry>
        </mxCell>
        <mxCell id="CdEZ3CyZhxFSUictnTEU-377" value="orderId" style="shape=partialRectangle;connectable=0;fillColor=none;top=0;left=0;bottom=0;right=0;align=left;spacingLeft=6;overflow=hidden;whiteSpace=wrap;html=1;" parent="CdEZ3CyZhxFSUictnTEU-375" vertex="1">
          <mxGeometry x="30" width="150" height="30" as="geometry">
            <mxRectangle width="150" height="30" as="alternateBounds" />
          </mxGeometry>
        </mxCell>
        <mxCell id="j1l9nlEc9lx-D9-xVbDg-16" value="" style="shape=tableRow;horizontal=0;startSize=0;swimlaneHead=0;swimlaneBody=0;fillColor=none;collapsible=0;dropTarget=0;points=[[0,0.5],[1,0.5]];portConstraint=eastwest;top=0;left=0;right=0;bottom=0;" parent="CdEZ3CyZhxFSUictnTEU-164" vertex="1">
          <mxGeometry y="150" width="180" height="30" as="geometry" />
        </mxCell>
        <mxCell id="j1l9nlEc9lx-D9-xVbDg-17" value="&lt;b&gt;FK&lt;/b&gt;" style="shape=partialRectangle;connectable=0;fillColor=none;top=0;left=0;bottom=0;right=0;editable=1;overflow=hidden;whiteSpace=wrap;html=1;" parent="j1l9nlEc9lx-D9-xVbDg-16" vertex="1">
          <mxGeometry width="30" height="30" as="geometry">
            <mxRectangle width="30" height="30" as="alternateBounds" />
          </mxGeometry>
        </mxCell>
        <mxCell id="j1l9nlEc9lx-D9-xVbDg-18" value="raterId" style="shape=partialRectangle;connectable=0;fillColor=none;top=0;left=0;bottom=0;right=0;align=left;spacingLeft=6;overflow=hidden;whiteSpace=wrap;html=1;" parent="j1l9nlEc9lx-D9-xVbDg-16" vertex="1">
          <mxGeometry x="30" width="150" height="30" as="geometry">
            <mxRectangle width="150" height="30" as="alternateBounds" />
          </mxGeometry>
        </mxCell>
        <mxCell id="j1l9nlEc9lx-D9-xVbDg-19" value="" style="shape=tableRow;horizontal=0;startSize=0;swimlaneHead=0;swimlaneBody=0;fillColor=none;collapsible=0;dropTarget=0;points=[[0,0.5],[1,0.5]];portConstraint=eastwest;top=0;left=0;right=0;bottom=0;" parent="CdEZ3CyZhxFSUictnTEU-164" vertex="1">
          <mxGeometry y="180" width="180" height="30" as="geometry" />
        </mxCell>
        <mxCell id="j1l9nlEc9lx-D9-xVbDg-20" value="&lt;b&gt;FK&lt;/b&gt;" style="shape=partialRectangle;connectable=0;fillColor=none;top=0;left=0;bottom=0;right=0;editable=1;overflow=hidden;whiteSpace=wrap;html=1;" parent="j1l9nlEc9lx-D9-xVbDg-19" vertex="1">
          <mxGeometry width="30" height="30" as="geometry">
            <mxRectangle width="30" height="30" as="alternateBounds" />
          </mxGeometry>
        </mxCell>
        <mxCell id="j1l9nlEc9lx-D9-xVbDg-21" value="ratedId" style="shape=partialRectangle;connectable=0;fillColor=none;top=0;left=0;bottom=0;right=0;align=left;spacingLeft=6;overflow=hidden;whiteSpace=wrap;html=1;" parent="j1l9nlEc9lx-D9-xVbDg-19" vertex="1">
          <mxGeometry x="30" width="150" height="30" as="geometry">
            <mxRectangle width="150" height="30" as="alternateBounds" />
          </mxGeometry>
        </mxCell>
        <mxCell id="j1l9nlEc9lx-D9-xVbDg-32" value="" style="shape=tableRow;horizontal=0;startSize=0;swimlaneHead=0;swimlaneBody=0;fillColor=none;collapsible=0;dropTarget=0;points=[[0,0.5],[1,0.5]];portConstraint=eastwest;top=0;left=0;right=0;bottom=0;" parent="CdEZ3CyZhxFSUictnTEU-164" vertex="1">
          <mxGeometry y="210" width="180" height="30" as="geometry" />
        </mxCell>
        <mxCell id="j1l9nlEc9lx-D9-xVbDg-33" value="" style="shape=partialRectangle;connectable=0;fillColor=none;top=0;left=0;bottom=0;right=0;editable=1;overflow=hidden;whiteSpace=wrap;html=1;" parent="j1l9nlEc9lx-D9-xVbDg-32" vertex="1">
          <mxGeometry width="30" height="30" as="geometry">
            <mxRectangle width="30" height="30" as="alternateBounds" />
          </mxGeometry>
        </mxCell>
        <mxCell id="j1l9nlEc9lx-D9-xVbDg-34" value="type" style="shape=partialRectangle;connectable=0;fillColor=none;top=0;left=0;bottom=0;right=0;align=left;spacingLeft=6;overflow=hidden;whiteSpace=wrap;html=1;" parent="j1l9nlEc9lx-D9-xVbDg-32" vertex="1">
          <mxGeometry x="30" width="150" height="30" as="geometry">
            <mxRectangle width="150" height="30" as="alternateBounds" />
          </mxGeometry>
        </mxCell>
        <mxCell id="CdEZ3CyZhxFSUictnTEU-193" value="" style="fontSize=12;html=1;endArrow=ERoneToMany;rounded=0;exitX=-0.004;exitY=0.233;exitDx=0;exitDy=0;exitPerimeter=0;entryX=1;entryY=0.5;entryDx=0;entryDy=0;" parent="1" source="CdEZ3CyZhxFSUictnTEU-3" target="CdEZ3CyZhxFSUictnTEU-194" edge="1">
          <mxGeometry width="100" height="100" relative="1" as="geometry">
            <mxPoint x="740" y="400" as="sourcePoint" />
            <mxPoint x="670" y="220" as="targetPoint" />
            <Array as="points">
              <mxPoint x="710" y="447" />
              <mxPoint x="560" y="65" />
            </Array>
          </mxGeometry>
        </mxCell>
        <mxCell id="CdEZ3CyZhxFSUictnTEU-215" value="" style="fontSize=12;html=1;endArrow=ERoneToMany;rounded=0;exitX=0.006;exitY=0.298;exitDx=0;exitDy=0;elbow=vertical;entryX=-0.007;entryY=0.638;entryDx=0;entryDy=0;exitPerimeter=0;entryPerimeter=0;" parent="1" source="CdEZ3CyZhxFSUictnTEU-89" target="QvAU7ecHsZQy278lUhVn-105" edge="1">
          <mxGeometry width="100" height="100" relative="1" as="geometry">
            <mxPoint x="60" y="330" as="sourcePoint" />
            <mxPoint x="120" y="45" as="targetPoint" />
            <Array as="points">
              <mxPoint x="80" y="470" />
              <mxPoint x="80" y="320" />
              <mxPoint x="80" y="220" />
            </Array>
          </mxGeometry>
        </mxCell>
        <mxCell id="CdEZ3CyZhxFSUictnTEU-263" value="Category" style="shape=table;startSize=30;container=1;collapsible=1;childLayout=tableLayout;fixedRows=1;rowLines=0;fontStyle=1;align=center;resizeLast=1;html=1;" parent="1" vertex="1">
          <mxGeometry x="-170" y="660" width="180" height="150" as="geometry" />
        </mxCell>
        <mxCell id="CdEZ3CyZhxFSUictnTEU-264" value="" style="shape=tableRow;horizontal=0;startSize=0;swimlaneHead=0;swimlaneBody=0;fillColor=none;collapsible=0;dropTarget=0;points=[[0,0.5],[1,0.5]];portConstraint=eastwest;top=0;left=0;right=0;bottom=1;" parent="CdEZ3CyZhxFSUictnTEU-263" vertex="1">
          <mxGeometry y="30" width="180" height="30" as="geometry" />
        </mxCell>
        <mxCell id="CdEZ3CyZhxFSUictnTEU-265" value="PK" style="shape=partialRectangle;connectable=0;fillColor=none;top=0;left=0;bottom=0;right=0;fontStyle=1;overflow=hidden;whiteSpace=wrap;html=1;" parent="CdEZ3CyZhxFSUictnTEU-264" vertex="1">
          <mxGeometry width="30" height="30" as="geometry">
            <mxRectangle width="30" height="30" as="alternateBounds" />
          </mxGeometry>
        </mxCell>
        <mxCell id="CdEZ3CyZhxFSUictnTEU-266" value="&lt;span style=&quot;font-weight: normal;&quot;&gt;categoryId&lt;/span&gt;" style="shape=partialRectangle;connectable=0;fillColor=none;top=0;left=0;bottom=0;right=0;align=left;spacingLeft=6;fontStyle=5;overflow=hidden;whiteSpace=wrap;html=1;" parent="CdEZ3CyZhxFSUictnTEU-264" vertex="1">
          <mxGeometry x="30" width="150" height="30" as="geometry">
            <mxRectangle width="150" height="30" as="alternateBounds" />
          </mxGeometry>
        </mxCell>
        <mxCell id="CdEZ3CyZhxFSUictnTEU-267" value="" style="shape=tableRow;horizontal=0;startSize=0;swimlaneHead=0;swimlaneBody=0;fillColor=none;collapsible=0;dropTarget=0;points=[[0,0.5],[1,0.5]];portConstraint=eastwest;top=0;left=0;right=0;bottom=0;" parent="CdEZ3CyZhxFSUictnTEU-263" vertex="1">
          <mxGeometry y="60" width="180" height="30" as="geometry" />
        </mxCell>
        <mxCell id="CdEZ3CyZhxFSUictnTEU-268" value="" style="shape=partialRectangle;connectable=0;fillColor=none;top=0;left=0;bottom=0;right=0;editable=1;overflow=hidden;whiteSpace=wrap;html=1;" parent="CdEZ3CyZhxFSUictnTEU-267" vertex="1">
          <mxGeometry width="30" height="30" as="geometry">
            <mxRectangle width="30" height="30" as="alternateBounds" />
          </mxGeometry>
        </mxCell>
        <mxCell id="CdEZ3CyZhxFSUictnTEU-269" value="name" style="shape=partialRectangle;connectable=0;fillColor=none;top=0;left=0;bottom=0;right=0;align=left;spacingLeft=6;overflow=hidden;whiteSpace=wrap;html=1;" parent="CdEZ3CyZhxFSUictnTEU-267" vertex="1">
          <mxGeometry x="30" width="150" height="30" as="geometry">
            <mxRectangle width="150" height="30" as="alternateBounds" />
          </mxGeometry>
        </mxCell>
        <mxCell id="j1l9nlEc9lx-D9-xVbDg-10" value="" style="shape=tableRow;horizontal=0;startSize=0;swimlaneHead=0;swimlaneBody=0;collapsible=0;dropTarget=0;points=[[0,0.5],[1,0.5]];portConstraint=eastwest;top=0;left=0;right=0;bottom=0;fillColor=none;" parent="CdEZ3CyZhxFSUictnTEU-263" vertex="1">
          <mxGeometry y="90" width="180" height="30" as="geometry" />
        </mxCell>
        <mxCell id="j1l9nlEc9lx-D9-xVbDg-11" value="" style="shape=partialRectangle;connectable=0;fillColor=none;top=0;left=0;bottom=0;right=0;editable=1;overflow=hidden;whiteSpace=wrap;html=1;" parent="j1l9nlEc9lx-D9-xVbDg-10" vertex="1">
          <mxGeometry width="30" height="30" as="geometry">
            <mxRectangle width="30" height="30" as="alternateBounds" />
          </mxGeometry>
        </mxCell>
        <mxCell id="j1l9nlEc9lx-D9-xVbDg-12" value="imageLink" style="shape=partialRectangle;connectable=0;fillColor=none;top=0;left=0;bottom=0;right=0;align=left;spacingLeft=6;overflow=hidden;whiteSpace=wrap;html=1;" parent="j1l9nlEc9lx-D9-xVbDg-10" vertex="1">
          <mxGeometry x="30" width="150" height="30" as="geometry">
            <mxRectangle width="150" height="30" as="alternateBounds" />
          </mxGeometry>
        </mxCell>
        <mxCell id="j1l9nlEc9lx-D9-xVbDg-13" value="" style="shape=tableRow;horizontal=0;startSize=0;swimlaneHead=0;swimlaneBody=0;collapsible=0;dropTarget=0;points=[[0,0.5],[1,0.5]];portConstraint=eastwest;top=0;left=0;right=0;bottom=0;fillColor=none;" parent="CdEZ3CyZhxFSUictnTEU-263" vertex="1">
          <mxGeometry y="120" width="180" height="30" as="geometry" />
        </mxCell>
        <mxCell id="j1l9nlEc9lx-D9-xVbDg-14" value="" style="shape=partialRectangle;connectable=0;fillColor=none;top=0;left=0;bottom=0;right=0;editable=1;overflow=hidden;whiteSpace=wrap;html=1;" parent="j1l9nlEc9lx-D9-xVbDg-13" vertex="1">
          <mxGeometry width="30" height="30" as="geometry">
            <mxRectangle width="30" height="30" as="alternateBounds" />
          </mxGeometry>
        </mxCell>
        <mxCell id="j1l9nlEc9lx-D9-xVbDg-15" value="iconLink" style="shape=partialRectangle;connectable=0;fillColor=none;top=0;left=0;bottom=0;right=0;align=left;spacingLeft=6;overflow=hidden;whiteSpace=wrap;html=1;" parent="j1l9nlEc9lx-D9-xVbDg-13" vertex="1">
          <mxGeometry x="30" width="150" height="30" as="geometry">
            <mxRectangle width="150" height="30" as="alternateBounds" />
          </mxGeometry>
        </mxCell>
        <mxCell id="CdEZ3CyZhxFSUictnTEU-294" value="" style="edgeStyle=entityRelationEdgeStyle;fontSize=12;html=1;endArrow=ERoneToMany;rounded=0;exitX=1.01;exitY=0.674;exitDx=0;exitDy=0;entryX=0;entryY=0.5;entryDx=0;entryDy=0;exitPerimeter=0;" parent="1" source="CdEZ3CyZhxFSUictnTEU-267" target="CdEZ3CyZhxFSUictnTEU-290" edge="1">
          <mxGeometry width="100" height="100" relative="1" as="geometry">
            <mxPoint x="-20" y="725" as="sourcePoint" />
            <mxPoint x="320" y="500" as="targetPoint" />
          </mxGeometry>
        </mxCell>
        <mxCell id="CdEZ3CyZhxFSUictnTEU-314" value="PromotionOrder" style="shape=table;startSize=30;container=1;collapsible=1;childLayout=tableLayout;fixedRows=1;rowLines=0;fontStyle=1;align=center;resizeLast=1;html=1;fillColor=#d5e8d4;strokeColor=#82b366;" parent="1" vertex="1">
          <mxGeometry x="1120" y="1000" width="180" height="180" as="geometry" />
        </mxCell>
        <mxCell id="CdEZ3CyZhxFSUictnTEU-315" value="" style="shape=tableRow;horizontal=0;startSize=0;swimlaneHead=0;swimlaneBody=0;fillColor=none;collapsible=0;dropTarget=0;points=[[0,0.5],[1,0.5]];portConstraint=eastwest;top=0;left=0;right=0;bottom=1;" parent="CdEZ3CyZhxFSUictnTEU-314" vertex="1">
          <mxGeometry y="30" width="180" height="30" as="geometry" />
        </mxCell>
        <mxCell id="CdEZ3CyZhxFSUictnTEU-316" value="PK" style="shape=partialRectangle;connectable=0;fillColor=none;top=0;left=0;bottom=0;right=0;fontStyle=1;overflow=hidden;whiteSpace=wrap;html=1;" parent="CdEZ3CyZhxFSUictnTEU-315" vertex="1">
          <mxGeometry width="30" height="30" as="geometry">
            <mxRectangle width="30" height="30" as="alternateBounds" />
          </mxGeometry>
        </mxCell>
        <mxCell id="CdEZ3CyZhxFSUictnTEU-317" value="&lt;span style=&quot;font-weight: normal;&quot;&gt;promoOrderId&lt;/span&gt;" style="shape=partialRectangle;connectable=0;fillColor=none;top=0;left=0;bottom=0;right=0;align=left;spacingLeft=6;fontStyle=5;overflow=hidden;whiteSpace=wrap;html=1;" parent="CdEZ3CyZhxFSUictnTEU-315" vertex="1">
          <mxGeometry x="30" width="150" height="30" as="geometry">
            <mxRectangle width="150" height="30" as="alternateBounds" />
          </mxGeometry>
        </mxCell>
        <mxCell id="CdEZ3CyZhxFSUictnTEU-321" value="" style="shape=tableRow;horizontal=0;startSize=0;swimlaneHead=0;swimlaneBody=0;fillColor=none;collapsible=0;dropTarget=0;points=[[0,0.5],[1,0.5]];portConstraint=eastwest;top=0;left=0;right=0;bottom=0;" parent="CdEZ3CyZhxFSUictnTEU-314" vertex="1">
          <mxGeometry y="60" width="180" height="30" as="geometry" />
        </mxCell>
        <mxCell id="CdEZ3CyZhxFSUictnTEU-322" value="" style="shape=partialRectangle;connectable=0;fillColor=none;top=0;left=0;bottom=0;right=0;editable=1;overflow=hidden;whiteSpace=wrap;html=1;" parent="CdEZ3CyZhxFSUictnTEU-321" vertex="1">
          <mxGeometry width="30" height="30" as="geometry">
            <mxRectangle width="30" height="30" as="alternateBounds" />
          </mxGeometry>
        </mxCell>
        <mxCell id="CdEZ3CyZhxFSUictnTEU-323" value="remainedDate" style="shape=partialRectangle;connectable=0;fillColor=#fff2cc;top=0;left=0;bottom=0;right=0;align=left;spacingLeft=6;overflow=hidden;whiteSpace=wrap;html=1;strokeColor=#d6b656;" parent="CdEZ3CyZhxFSUictnTEU-321" vertex="1">
          <mxGeometry x="30" width="150" height="30" as="geometry">
            <mxRectangle width="150" height="30" as="alternateBounds" />
          </mxGeometry>
        </mxCell>
        <mxCell id="CdEZ3CyZhxFSUictnTEU-333" value="" style="shape=tableRow;horizontal=0;startSize=0;swimlaneHead=0;swimlaneBody=0;fillColor=none;collapsible=0;dropTarget=0;points=[[0,0.5],[1,0.5]];portConstraint=eastwest;top=0;left=0;right=0;bottom=0;" parent="CdEZ3CyZhxFSUictnTEU-314" vertex="1">
          <mxGeometry y="90" width="180" height="30" as="geometry" />
        </mxCell>
        <mxCell id="CdEZ3CyZhxFSUictnTEU-334" value="&lt;b&gt;FK&lt;/b&gt;" style="shape=partialRectangle;connectable=0;fillColor=none;top=0;left=0;bottom=0;right=0;editable=1;overflow=hidden;whiteSpace=wrap;html=1;" parent="CdEZ3CyZhxFSUictnTEU-333" vertex="1">
          <mxGeometry width="30" height="30" as="geometry">
            <mxRectangle width="30" height="30" as="alternateBounds" />
          </mxGeometry>
        </mxCell>
        <mxCell id="CdEZ3CyZhxFSUictnTEU-335" value="userId" style="shape=partialRectangle;connectable=0;fillColor=none;top=0;left=0;bottom=0;right=0;align=left;spacingLeft=6;overflow=hidden;whiteSpace=wrap;html=1;" parent="CdEZ3CyZhxFSUictnTEU-333" vertex="1">
          <mxGeometry x="30" width="150" height="30" as="geometry">
            <mxRectangle width="150" height="30" as="alternateBounds" />
          </mxGeometry>
        </mxCell>
        <mxCell id="QvAU7ecHsZQy278lUhVn-56" value="" style="shape=tableRow;horizontal=0;startSize=0;swimlaneHead=0;swimlaneBody=0;fillColor=none;collapsible=0;dropTarget=0;points=[[0,0.5],[1,0.5]];portConstraint=eastwest;top=0;left=0;right=0;bottom=0;" parent="CdEZ3CyZhxFSUictnTEU-314" vertex="1">
          <mxGeometry y="120" width="180" height="30" as="geometry" />
        </mxCell>
        <mxCell id="QvAU7ecHsZQy278lUhVn-57" value="&lt;b&gt;FK&lt;/b&gt;" style="shape=partialRectangle;connectable=0;fillColor=none;top=0;left=0;bottom=0;right=0;editable=1;overflow=hidden;whiteSpace=wrap;html=1;" parent="QvAU7ecHsZQy278lUhVn-56" vertex="1">
          <mxGeometry width="30" height="30" as="geometry">
            <mxRectangle width="30" height="30" as="alternateBounds" />
          </mxGeometry>
        </mxCell>
        <mxCell id="QvAU7ecHsZQy278lUhVn-58" value="promotionId" style="shape=partialRectangle;connectable=0;fillColor=none;top=0;left=0;bottom=0;right=0;align=left;spacingLeft=6;overflow=hidden;whiteSpace=wrap;html=1;" parent="QvAU7ecHsZQy278lUhVn-56" vertex="1">
          <mxGeometry x="30" width="150" height="30" as="geometry">
            <mxRectangle width="150" height="30" as="alternateBounds" />
          </mxGeometry>
        </mxCell>
        <mxCell id="QsXHKQh2CqMlx2RRbH0a-7" value="" style="shape=tableRow;horizontal=0;startSize=0;swimlaneHead=0;swimlaneBody=0;fillColor=none;collapsible=0;dropTarget=0;points=[[0,0.5],[1,0.5]];portConstraint=eastwest;top=0;left=0;right=0;bottom=0;" parent="CdEZ3CyZhxFSUictnTEU-314" vertex="1">
          <mxGeometry y="150" width="180" height="30" as="geometry" />
        </mxCell>
        <mxCell id="QsXHKQh2CqMlx2RRbH0a-8" value="" style="shape=partialRectangle;connectable=0;fillColor=none;top=0;left=0;bottom=0;right=0;editable=1;overflow=hidden;whiteSpace=wrap;html=1;" parent="QsXHKQh2CqMlx2RRbH0a-7" vertex="1">
          <mxGeometry width="30" height="30" as="geometry">
            <mxRectangle width="30" height="30" as="alternateBounds" />
          </mxGeometry>
        </mxCell>
        <mxCell id="QsXHKQh2CqMlx2RRbH0a-9" value="status" style="shape=partialRectangle;connectable=0;fillColor=none;top=0;left=0;bottom=0;right=0;align=left;spacingLeft=6;overflow=hidden;whiteSpace=wrap;html=1;" parent="QsXHKQh2CqMlx2RRbH0a-7" vertex="1">
          <mxGeometry x="30" width="150" height="30" as="geometry">
            <mxRectangle width="150" height="30" as="alternateBounds" />
          </mxGeometry>
        </mxCell>
        <mxCell id="CdEZ3CyZhxFSUictnTEU-360" value="Address" style="shape=table;startSize=30;container=1;collapsible=1;childLayout=tableLayout;fixedRows=1;rowLines=0;fontStyle=1;align=center;resizeLast=1;html=1;fillColor=#d5e8d4;strokeColor=#82b366;" parent="1" vertex="1">
          <mxGeometry x="1060" y="600" width="180" height="120" as="geometry" />
        </mxCell>
        <mxCell id="CdEZ3CyZhxFSUictnTEU-361" value="" style="shape=tableRow;horizontal=0;startSize=0;swimlaneHead=0;swimlaneBody=0;fillColor=none;collapsible=0;dropTarget=0;points=[[0,0.5],[1,0.5]];portConstraint=eastwest;top=0;left=0;right=0;bottom=1;" parent="CdEZ3CyZhxFSUictnTEU-360" vertex="1">
          <mxGeometry y="30" width="180" height="30" as="geometry" />
        </mxCell>
        <mxCell id="CdEZ3CyZhxFSUictnTEU-362" value="PK" style="shape=partialRectangle;connectable=0;fillColor=none;top=0;left=0;bottom=0;right=0;fontStyle=1;overflow=hidden;whiteSpace=wrap;html=1;" parent="CdEZ3CyZhxFSUictnTEU-361" vertex="1">
          <mxGeometry width="60" height="30" as="geometry">
            <mxRectangle width="60" height="30" as="alternateBounds" />
          </mxGeometry>
        </mxCell>
        <mxCell id="CdEZ3CyZhxFSUictnTEU-363" value="addressId" style="shape=partialRectangle;connectable=0;fillColor=none;top=0;left=0;bottom=0;right=0;align=left;spacingLeft=6;fontStyle=5;overflow=hidden;whiteSpace=wrap;html=1;" parent="CdEZ3CyZhxFSUictnTEU-361" vertex="1">
          <mxGeometry x="60" width="120" height="30" as="geometry">
            <mxRectangle width="120" height="30" as="alternateBounds" />
          </mxGeometry>
        </mxCell>
        <mxCell id="0m9zOVvLUMe2Tgnja99H-22" value="" style="shape=tableRow;horizontal=0;startSize=0;swimlaneHead=0;swimlaneBody=0;fillColor=none;collapsible=0;dropTarget=0;points=[[0,0.5],[1,0.5]];portConstraint=eastwest;top=0;left=0;right=0;bottom=0;" parent="CdEZ3CyZhxFSUictnTEU-360" vertex="1">
          <mxGeometry y="60" width="180" height="30" as="geometry" />
        </mxCell>
        <mxCell id="0m9zOVvLUMe2Tgnja99H-23" value="&lt;b&gt;FK&lt;/b&gt;" style="shape=partialRectangle;connectable=0;fillColor=none;top=0;left=0;bottom=0;right=0;editable=1;overflow=hidden;whiteSpace=wrap;html=1;" parent="0m9zOVvLUMe2Tgnja99H-22" vertex="1">
          <mxGeometry width="60" height="30" as="geometry">
            <mxRectangle width="60" height="30" as="alternateBounds" />
          </mxGeometry>
        </mxCell>
        <mxCell id="0m9zOVvLUMe2Tgnja99H-24" value="userId" style="shape=partialRectangle;connectable=0;fillColor=none;top=0;left=0;bottom=0;right=0;align=left;spacingLeft=6;overflow=hidden;whiteSpace=wrap;html=1;" parent="0m9zOVvLUMe2Tgnja99H-22" vertex="1">
          <mxGeometry x="60" width="120" height="30" as="geometry">
            <mxRectangle width="120" height="30" as="alternateBounds" />
          </mxGeometry>
        </mxCell>
        <mxCell id="CdEZ3CyZhxFSUictnTEU-364" value="" style="shape=tableRow;horizontal=0;startSize=0;swimlaneHead=0;swimlaneBody=0;fillColor=none;collapsible=0;dropTarget=0;points=[[0,0.5],[1,0.5]];portConstraint=eastwest;top=0;left=0;right=0;bottom=0;" parent="CdEZ3CyZhxFSUictnTEU-360" vertex="1">
          <mxGeometry y="90" width="180" height="30" as="geometry" />
        </mxCell>
        <mxCell id="CdEZ3CyZhxFSUictnTEU-365" value="" style="shape=partialRectangle;connectable=0;fillColor=none;top=0;left=0;bottom=0;right=0;editable=1;overflow=hidden;whiteSpace=wrap;html=1;" parent="CdEZ3CyZhxFSUictnTEU-364" vertex="1">
          <mxGeometry width="60" height="30" as="geometry">
            <mxRectangle width="60" height="30" as="alternateBounds" />
          </mxGeometry>
        </mxCell>
        <mxCell id="CdEZ3CyZhxFSUictnTEU-366" value="address" style="shape=partialRectangle;connectable=0;fillColor=none;top=0;left=0;bottom=0;right=0;align=left;spacingLeft=6;overflow=hidden;whiteSpace=wrap;html=1;" parent="CdEZ3CyZhxFSUictnTEU-364" vertex="1">
          <mxGeometry x="60" width="120" height="30" as="geometry">
            <mxRectangle width="120" height="30" as="alternateBounds" />
          </mxGeometry>
        </mxCell>
        <mxCell id="CdEZ3CyZhxFSUictnTEU-374" value="" style="edgeStyle=entityRelationEdgeStyle;fontSize=12;html=1;endArrow=ERoneToMany;rounded=0;exitX=1.003;exitY=0.641;exitDx=0;exitDy=0;entryX=0;entryY=0.5;entryDx=0;entryDy=0;exitPerimeter=0;" parent="1" source="CdEZ3CyZhxFSUictnTEU-3" target="0m9zOVvLUMe2Tgnja99H-22" edge="1">
          <mxGeometry width="100" height="100" relative="1" as="geometry">
            <mxPoint x="940" y="670" as="sourcePoint" />
            <mxPoint x="1040" y="570" as="targetPoint" />
          </mxGeometry>
        </mxCell>
        <mxCell id="CdEZ3CyZhxFSUictnTEU-378" value="" style="edgeStyle=entityRelationEdgeStyle;fontSize=12;html=1;endArrow=ERmandOne;startArrow=ERmandOne;rounded=0;exitX=0.996;exitY=0.702;exitDx=0;exitDy=0;exitPerimeter=0;entryX=0;entryY=0.5;entryDx=0;entryDy=0;" parent="1" source="CdEZ3CyZhxFSUictnTEU-127" target="CdEZ3CyZhxFSUictnTEU-375" edge="1">
          <mxGeometry width="100" height="100" relative="1" as="geometry">
            <mxPoint x="560" y="220" as="sourcePoint" />
            <mxPoint x="660" y="120" as="targetPoint" />
          </mxGeometry>
        </mxCell>
        <mxCell id="0m9zOVvLUMe2Tgnja99H-1" value="Message" style="shape=table;startSize=30;container=1;collapsible=1;childLayout=tableLayout;fixedRows=1;rowLines=0;fontStyle=1;align=center;resizeLast=1;html=1;" parent="1" vertex="1">
          <mxGeometry x="1340" y="735" width="180" height="210" as="geometry" />
        </mxCell>
        <mxCell id="0m9zOVvLUMe2Tgnja99H-2" value="" style="shape=tableRow;horizontal=0;startSize=0;swimlaneHead=0;swimlaneBody=0;fillColor=none;collapsible=0;dropTarget=0;points=[[0,0.5],[1,0.5]];portConstraint=eastwest;top=0;left=0;right=0;bottom=1;" parent="0m9zOVvLUMe2Tgnja99H-1" vertex="1">
          <mxGeometry y="30" width="180" height="30" as="geometry" />
        </mxCell>
        <mxCell id="0m9zOVvLUMe2Tgnja99H-3" value="PK" style="shape=partialRectangle;connectable=0;fillColor=none;top=0;left=0;bottom=0;right=0;fontStyle=1;overflow=hidden;whiteSpace=wrap;html=1;" parent="0m9zOVvLUMe2Tgnja99H-2" vertex="1">
          <mxGeometry width="50" height="30" as="geometry">
            <mxRectangle width="50" height="30" as="alternateBounds" />
          </mxGeometry>
        </mxCell>
        <mxCell id="0m9zOVvLUMe2Tgnja99H-4" value="messageId" style="shape=partialRectangle;connectable=0;fillColor=none;top=0;left=0;bottom=0;right=0;align=left;spacingLeft=6;fontStyle=5;overflow=hidden;whiteSpace=wrap;html=1;" parent="0m9zOVvLUMe2Tgnja99H-2" vertex="1">
          <mxGeometry x="50" width="130" height="30" as="geometry">
            <mxRectangle width="130" height="30" as="alternateBounds" />
          </mxGeometry>
        </mxCell>
        <mxCell id="0m9zOVvLUMe2Tgnja99H-5" value="" style="shape=tableRow;horizontal=0;startSize=0;swimlaneHead=0;swimlaneBody=0;fillColor=none;collapsible=0;dropTarget=0;points=[[0,0.5],[1,0.5]];portConstraint=eastwest;top=0;left=0;right=0;bottom=0;" parent="0m9zOVvLUMe2Tgnja99H-1" vertex="1">
          <mxGeometry y="60" width="180" height="30" as="geometry" />
        </mxCell>
        <mxCell id="0m9zOVvLUMe2Tgnja99H-6" value="&lt;b&gt;FK&lt;/b&gt;" style="shape=partialRectangle;connectable=0;fillColor=none;top=0;left=0;bottom=0;right=0;editable=1;overflow=hidden;whiteSpace=wrap;html=1;" parent="0m9zOVvLUMe2Tgnja99H-5" vertex="1">
          <mxGeometry width="50" height="30" as="geometry">
            <mxRectangle width="50" height="30" as="alternateBounds" />
          </mxGeometry>
        </mxCell>
        <mxCell id="0m9zOVvLUMe2Tgnja99H-7" value="receiverId" style="shape=partialRectangle;connectable=0;fillColor=none;top=0;left=0;bottom=0;right=0;align=left;spacingLeft=6;overflow=hidden;whiteSpace=wrap;html=1;" parent="0m9zOVvLUMe2Tgnja99H-5" vertex="1">
          <mxGeometry x="50" width="130" height="30" as="geometry">
            <mxRectangle width="130" height="30" as="alternateBounds" />
          </mxGeometry>
        </mxCell>
        <mxCell id="Mm4rXbmc60xIDRbtt6zK-4" value="" style="shape=tableRow;horizontal=0;startSize=0;swimlaneHead=0;swimlaneBody=0;fillColor=none;collapsible=0;dropTarget=0;points=[[0,0.5],[1,0.5]];portConstraint=eastwest;top=0;left=0;right=0;bottom=0;" parent="0m9zOVvLUMe2Tgnja99H-1" vertex="1">
          <mxGeometry y="90" width="180" height="30" as="geometry" />
        </mxCell>
        <mxCell id="Mm4rXbmc60xIDRbtt6zK-5" value="&lt;b&gt;FK&lt;/b&gt;" style="shape=partialRectangle;connectable=0;fillColor=none;top=0;left=0;bottom=0;right=0;editable=1;overflow=hidden;whiteSpace=wrap;html=1;" parent="Mm4rXbmc60xIDRbtt6zK-4" vertex="1">
          <mxGeometry width="50" height="30" as="geometry">
            <mxRectangle width="50" height="30" as="alternateBounds" />
          </mxGeometry>
        </mxCell>
        <mxCell id="Mm4rXbmc60xIDRbtt6zK-6" value="chatRoomId" style="shape=partialRectangle;connectable=0;fillColor=none;top=0;left=0;bottom=0;right=0;align=left;spacingLeft=6;overflow=hidden;whiteSpace=wrap;html=1;" parent="Mm4rXbmc60xIDRbtt6zK-4" vertex="1">
          <mxGeometry x="50" width="130" height="30" as="geometry">
            <mxRectangle width="130" height="30" as="alternateBounds" />
          </mxGeometry>
        </mxCell>
        <mxCell id="0m9zOVvLUMe2Tgnja99H-11" value="" style="shape=tableRow;horizontal=0;startSize=0;swimlaneHead=0;swimlaneBody=0;fillColor=none;collapsible=0;dropTarget=0;points=[[0,0.5],[1,0.5]];portConstraint=eastwest;top=0;left=0;right=0;bottom=0;" parent="0m9zOVvLUMe2Tgnja99H-1" vertex="1">
          <mxGeometry y="120" width="180" height="30" as="geometry" />
        </mxCell>
        <mxCell id="0m9zOVvLUMe2Tgnja99H-12" value="" style="shape=partialRectangle;connectable=0;fillColor=none;top=0;left=0;bottom=0;right=0;editable=1;overflow=hidden;whiteSpace=wrap;html=1;" parent="0m9zOVvLUMe2Tgnja99H-11" vertex="1">
          <mxGeometry width="50" height="30" as="geometry">
            <mxRectangle width="50" height="30" as="alternateBounds" />
          </mxGeometry>
        </mxCell>
        <mxCell id="0m9zOVvLUMe2Tgnja99H-13" value="messageText" style="shape=partialRectangle;connectable=0;fillColor=none;top=0;left=0;bottom=0;right=0;align=left;spacingLeft=6;overflow=hidden;whiteSpace=wrap;html=1;" parent="0m9zOVvLUMe2Tgnja99H-11" vertex="1">
          <mxGeometry x="50" width="130" height="30" as="geometry">
            <mxRectangle width="130" height="30" as="alternateBounds" />
          </mxGeometry>
        </mxCell>
        <mxCell id="0m9zOVvLUMe2Tgnja99H-14" value="" style="shape=tableRow;horizontal=0;startSize=0;swimlaneHead=0;swimlaneBody=0;fillColor=none;collapsible=0;dropTarget=0;points=[[0,0.5],[1,0.5]];portConstraint=eastwest;top=0;left=0;right=0;bottom=0;" parent="0m9zOVvLUMe2Tgnja99H-1" vertex="1">
          <mxGeometry y="150" width="180" height="30" as="geometry" />
        </mxCell>
        <mxCell id="0m9zOVvLUMe2Tgnja99H-15" value="" style="shape=partialRectangle;connectable=0;fillColor=none;top=0;left=0;bottom=0;right=0;editable=1;overflow=hidden;whiteSpace=wrap;html=1;" parent="0m9zOVvLUMe2Tgnja99H-14" vertex="1">
          <mxGeometry width="50" height="30" as="geometry">
            <mxRectangle width="50" height="30" as="alternateBounds" />
          </mxGeometry>
        </mxCell>
        <mxCell id="0m9zOVvLUMe2Tgnja99H-16" value="createdDate" style="shape=partialRectangle;connectable=0;fillColor=none;top=0;left=0;bottom=0;right=0;align=left;spacingLeft=6;overflow=hidden;whiteSpace=wrap;html=1;" parent="0m9zOVvLUMe2Tgnja99H-14" vertex="1">
          <mxGeometry x="50" width="130" height="30" as="geometry">
            <mxRectangle width="130" height="30" as="alternateBounds" />
          </mxGeometry>
        </mxCell>
        <mxCell id="0m9zOVvLUMe2Tgnja99H-17" value="" style="shape=tableRow;horizontal=0;startSize=0;swimlaneHead=0;swimlaneBody=0;fillColor=none;collapsible=0;dropTarget=0;points=[[0,0.5],[1,0.5]];portConstraint=eastwest;top=0;left=0;right=0;bottom=0;" parent="0m9zOVvLUMe2Tgnja99H-1" vertex="1">
          <mxGeometry y="180" width="180" height="30" as="geometry" />
        </mxCell>
        <mxCell id="0m9zOVvLUMe2Tgnja99H-18" value="" style="shape=partialRectangle;connectable=0;fillColor=none;top=0;left=0;bottom=0;right=0;editable=1;overflow=hidden;whiteSpace=wrap;html=1;" parent="0m9zOVvLUMe2Tgnja99H-17" vertex="1">
          <mxGeometry width="50" height="30" as="geometry">
            <mxRectangle width="50" height="30" as="alternateBounds" />
          </mxGeometry>
        </mxCell>
        <mxCell id="0m9zOVvLUMe2Tgnja99H-19" value="isRead" style="shape=partialRectangle;connectable=0;fillColor=none;top=0;left=0;bottom=0;right=0;align=left;spacingLeft=6;overflow=hidden;whiteSpace=wrap;html=1;" parent="0m9zOVvLUMe2Tgnja99H-17" vertex="1">
          <mxGeometry x="50" width="130" height="30" as="geometry">
            <mxRectangle width="130" height="30" as="alternateBounds" />
          </mxGeometry>
        </mxCell>
        <mxCell id="QvAU7ecHsZQy278lUhVn-2" value="status:&lt;br&gt;0: đang chờ admin duyệt&lt;br&gt;1: admin đã duyệt (bình thường)&lt;br&gt;2: admin k duyệt&lt;br&gt;3: người dùng ẩn&lt;br&gt;4: admin xóa" style="shape=callout;whiteSpace=wrap;html=1;perimeter=calloutPerimeter;" parent="1" vertex="1">
          <mxGeometry x="410" y="590" width="210" height="150" as="geometry" />
        </mxCell>
        <mxCell id="QvAU7ecHsZQy278lUhVn-4" value="condition(tình trạng đơn hàng):&amp;nbsp;&lt;br&gt;0: old&lt;br&gt;1 new" style="shape=callout;whiteSpace=wrap;html=1;perimeter=calloutPerimeter;" parent="1" vertex="1">
          <mxGeometry x="340" y="710" width="120" height="100" as="geometry" />
        </mxCell>
        <mxCell id="QvAU7ecHsZQy278lUhVn-5" value="ProductImage" style="shape=table;startSize=30;container=1;collapsible=1;childLayout=tableLayout;fixedRows=1;rowLines=0;fontStyle=1;align=center;resizeLast=1;html=1;fillColor=#d5e8d4;strokeColor=#82b366;" parent="1" vertex="1">
          <mxGeometry x="-170" y="440" width="200" height="120" as="geometry">
            <mxRectangle x="-160" y="420" width="120" height="30" as="alternateBounds" />
          </mxGeometry>
        </mxCell>
        <mxCell id="QvAU7ecHsZQy278lUhVn-6" value="" style="shape=tableRow;horizontal=0;startSize=0;swimlaneHead=0;swimlaneBody=0;fillColor=none;collapsible=0;dropTarget=0;points=[[0,0.5],[1,0.5]];portConstraint=eastwest;top=0;left=0;right=0;bottom=1;" parent="QvAU7ecHsZQy278lUhVn-5" vertex="1">
          <mxGeometry y="30" width="200" height="30" as="geometry" />
        </mxCell>
        <mxCell id="QvAU7ecHsZQy278lUhVn-7" value="PK,FK" style="shape=partialRectangle;connectable=0;fillColor=none;top=0;left=0;bottom=0;right=0;fontStyle=1;overflow=hidden;whiteSpace=wrap;html=1;" parent="QvAU7ecHsZQy278lUhVn-6" vertex="1">
          <mxGeometry width="50" height="30" as="geometry">
            <mxRectangle width="50" height="30" as="alternateBounds" />
          </mxGeometry>
        </mxCell>
        <mxCell id="QvAU7ecHsZQy278lUhVn-8" value="productId" style="shape=partialRectangle;connectable=0;fillColor=none;top=0;left=0;bottom=0;right=0;align=left;spacingLeft=6;fontStyle=5;overflow=hidden;whiteSpace=wrap;html=1;" parent="QvAU7ecHsZQy278lUhVn-6" vertex="1">
          <mxGeometry x="50" width="150" height="30" as="geometry">
            <mxRectangle width="150" height="30" as="alternateBounds" />
          </mxGeometry>
        </mxCell>
        <mxCell id="QvAU7ecHsZQy278lUhVn-9" value="" style="shape=tableRow;horizontal=0;startSize=0;swimlaneHead=0;swimlaneBody=0;fillColor=none;collapsible=0;dropTarget=0;points=[[0,0.5],[1,0.5]];portConstraint=eastwest;top=0;left=0;right=0;bottom=0;" parent="QvAU7ecHsZQy278lUhVn-5" vertex="1">
          <mxGeometry y="60" width="200" height="30" as="geometry" />
        </mxCell>
        <mxCell id="QvAU7ecHsZQy278lUhVn-10" value="&lt;b&gt;PK&lt;/b&gt;" style="shape=partialRectangle;connectable=0;fillColor=none;top=0;left=0;bottom=0;right=0;editable=1;overflow=hidden;whiteSpace=wrap;html=1;" parent="QvAU7ecHsZQy278lUhVn-9" vertex="1">
          <mxGeometry width="50" height="30" as="geometry">
            <mxRectangle width="50" height="30" as="alternateBounds" />
          </mxGeometry>
        </mxCell>
        <mxCell id="QvAU7ecHsZQy278lUhVn-11" value="imageName" style="shape=partialRectangle;connectable=0;fillColor=none;top=0;left=0;bottom=0;right=0;align=left;spacingLeft=6;overflow=hidden;whiteSpace=wrap;html=1;" parent="QvAU7ecHsZQy278lUhVn-9" vertex="1">
          <mxGeometry x="50" width="150" height="30" as="geometry">
            <mxRectangle width="150" height="30" as="alternateBounds" />
          </mxGeometry>
        </mxCell>
        <mxCell id="QvAU7ecHsZQy278lUhVn-12" value="" style="shape=tableRow;horizontal=0;startSize=0;swimlaneHead=0;swimlaneBody=0;fillColor=none;collapsible=0;dropTarget=0;points=[[0,0.5],[1,0.5]];portConstraint=eastwest;top=0;left=0;right=0;bottom=0;" parent="QvAU7ecHsZQy278lUhVn-5" vertex="1">
          <mxGeometry y="90" width="200" height="30" as="geometry" />
        </mxCell>
        <mxCell id="QvAU7ecHsZQy278lUhVn-13" value="" style="shape=partialRectangle;connectable=0;fillColor=none;top=0;left=0;bottom=0;right=0;editable=1;overflow=hidden;whiteSpace=wrap;html=1;" parent="QvAU7ecHsZQy278lUhVn-12" vertex="1">
          <mxGeometry width="50" height="30" as="geometry">
            <mxRectangle width="50" height="30" as="alternateBounds" />
          </mxGeometry>
        </mxCell>
        <mxCell id="QvAU7ecHsZQy278lUhVn-14" value="imageLink" style="shape=partialRectangle;connectable=0;fillColor=none;top=0;left=0;bottom=0;right=0;align=left;spacingLeft=6;overflow=hidden;whiteSpace=wrap;html=1;" parent="QvAU7ecHsZQy278lUhVn-12" vertex="1">
          <mxGeometry x="50" width="150" height="30" as="geometry">
            <mxRectangle width="150" height="30" as="alternateBounds" />
          </mxGeometry>
        </mxCell>
        <mxCell id="QvAU7ecHsZQy278lUhVn-22" value="" style="edgeStyle=entityRelationEdgeStyle;fontSize=12;html=1;endArrow=ERoneToMany;rounded=0;exitX=0;exitY=0.5;exitDx=0;exitDy=0;entryX=1;entryY=0.5;entryDx=0;entryDy=0;" parent="1" source="CdEZ3CyZhxFSUictnTEU-89" target="QvAU7ecHsZQy278lUhVn-6" edge="1">
          <mxGeometry width="100" height="100" relative="1" as="geometry">
            <mxPoint x="40" y="740" as="sourcePoint" />
            <mxPoint x="140" y="640" as="targetPoint" />
          </mxGeometry>
        </mxCell>
        <mxCell id="QvAU7ecHsZQy278lUhVn-23" value="Promotion" style="shape=table;startSize=30;container=1;collapsible=1;childLayout=tableLayout;fixedRows=1;rowLines=0;fontStyle=1;align=center;resizeLast=1;html=1;" parent="1" vertex="1">
          <mxGeometry x="860" y="1200" width="180" height="210" as="geometry" />
        </mxCell>
        <mxCell id="QvAU7ecHsZQy278lUhVn-24" value="" style="shape=tableRow;horizontal=0;startSize=0;swimlaneHead=0;swimlaneBody=0;fillColor=none;collapsible=0;dropTarget=0;points=[[0,0.5],[1,0.5]];portConstraint=eastwest;top=0;left=0;right=0;bottom=1;" parent="QvAU7ecHsZQy278lUhVn-23" vertex="1">
          <mxGeometry y="30" width="180" height="30" as="geometry" />
        </mxCell>
        <mxCell id="QvAU7ecHsZQy278lUhVn-25" value="PK" style="shape=partialRectangle;connectable=0;fillColor=none;top=0;left=0;bottom=0;right=0;fontStyle=1;overflow=hidden;whiteSpace=wrap;html=1;" parent="QvAU7ecHsZQy278lUhVn-24" vertex="1">
          <mxGeometry width="30" height="30" as="geometry">
            <mxRectangle width="30" height="30" as="alternateBounds" />
          </mxGeometry>
        </mxCell>
        <mxCell id="QvAU7ecHsZQy278lUhVn-26" value="&lt;span style=&quot;font-weight: normal;&quot;&gt;promotionId&lt;/span&gt;" style="shape=partialRectangle;connectable=0;fillColor=none;top=0;left=0;bottom=0;right=0;align=left;spacingLeft=6;fontStyle=5;overflow=hidden;whiteSpace=wrap;html=1;" parent="QvAU7ecHsZQy278lUhVn-24" vertex="1">
          <mxGeometry x="30" width="150" height="30" as="geometry">
            <mxRectangle width="150" height="30" as="alternateBounds" />
          </mxGeometry>
        </mxCell>
        <mxCell id="QvAU7ecHsZQy278lUhVn-27" value="" style="shape=tableRow;horizontal=0;startSize=0;swimlaneHead=0;swimlaneBody=0;fillColor=none;collapsible=0;dropTarget=0;points=[[0,0.5],[1,0.5]];portConstraint=eastwest;top=0;left=0;right=0;bottom=0;" parent="QvAU7ecHsZQy278lUhVn-23" vertex="1">
          <mxGeometry y="60" width="180" height="30" as="geometry" />
        </mxCell>
        <mxCell id="QvAU7ecHsZQy278lUhVn-28" value="" style="shape=partialRectangle;connectable=0;fillColor=none;top=0;left=0;bottom=0;right=0;editable=1;overflow=hidden;whiteSpace=wrap;html=1;" parent="QvAU7ecHsZQy278lUhVn-27" vertex="1">
          <mxGeometry width="30" height="30" as="geometry">
            <mxRectangle width="30" height="30" as="alternateBounds" />
          </mxGeometry>
        </mxCell>
        <mxCell id="QvAU7ecHsZQy278lUhVn-29" value="name" style="shape=partialRectangle;connectable=0;fillColor=none;top=0;left=0;bottom=0;right=0;align=left;spacingLeft=6;overflow=hidden;whiteSpace=wrap;html=1;" parent="QvAU7ecHsZQy278lUhVn-27" vertex="1">
          <mxGeometry x="30" width="150" height="30" as="geometry">
            <mxRectangle width="150" height="30" as="alternateBounds" />
          </mxGeometry>
        </mxCell>
        <mxCell id="QvAU7ecHsZQy278lUhVn-30" value="" style="shape=tableRow;horizontal=0;startSize=0;swimlaneHead=0;swimlaneBody=0;fillColor=none;collapsible=0;dropTarget=0;points=[[0,0.5],[1,0.5]];portConstraint=eastwest;top=0;left=0;right=0;bottom=0;" parent="QvAU7ecHsZQy278lUhVn-23" vertex="1">
          <mxGeometry y="90" width="180" height="30" as="geometry" />
        </mxCell>
        <mxCell id="QvAU7ecHsZQy278lUhVn-31" value="" style="shape=partialRectangle;connectable=0;fillColor=none;top=0;left=0;bottom=0;right=0;editable=1;overflow=hidden;whiteSpace=wrap;html=1;" parent="QvAU7ecHsZQy278lUhVn-30" vertex="1">
          <mxGeometry width="30" height="30" as="geometry">
            <mxRectangle width="30" height="30" as="alternateBounds" />
          </mxGeometry>
        </mxCell>
        <mxCell id="QvAU7ecHsZQy278lUhVn-32" value="description" style="shape=partialRectangle;connectable=0;fillColor=none;top=0;left=0;bottom=0;right=0;align=left;spacingLeft=6;overflow=hidden;whiteSpace=wrap;html=1;" parent="QvAU7ecHsZQy278lUhVn-30" vertex="1">
          <mxGeometry x="30" width="150" height="30" as="geometry">
            <mxRectangle width="150" height="30" as="alternateBounds" />
          </mxGeometry>
        </mxCell>
        <mxCell id="C_8VBaGY7nyaqYOhcCqE-2" value="" style="shape=tableRow;horizontal=0;startSize=0;swimlaneHead=0;swimlaneBody=0;fillColor=none;collapsible=0;dropTarget=0;points=[[0,0.5],[1,0.5]];portConstraint=eastwest;top=0;left=0;right=0;bottom=0;" parent="QvAU7ecHsZQy278lUhVn-23" vertex="1">
          <mxGeometry y="120" width="180" height="30" as="geometry" />
        </mxCell>
        <mxCell id="C_8VBaGY7nyaqYOhcCqE-3" value="" style="shape=partialRectangle;connectable=0;fillColor=none;top=0;left=0;bottom=0;right=0;editable=1;overflow=hidden;whiteSpace=wrap;html=1;" parent="C_8VBaGY7nyaqYOhcCqE-2" vertex="1">
          <mxGeometry width="30" height="30" as="geometry">
            <mxRectangle width="30" height="30" as="alternateBounds" />
          </mxGeometry>
        </mxCell>
        <mxCell id="C_8VBaGY7nyaqYOhcCqE-4" value="productQuantityLitmit" style="shape=partialRectangle;connectable=0;fillColor=none;top=0;left=0;bottom=0;right=0;align=left;spacingLeft=6;overflow=hidden;whiteSpace=wrap;html=1;" parent="C_8VBaGY7nyaqYOhcCqE-2" vertex="1">
          <mxGeometry x="30" width="150" height="30" as="geometry">
            <mxRectangle width="150" height="30" as="alternateBounds" />
          </mxGeometry>
        </mxCell>
        <mxCell id="QvAU7ecHsZQy278lUhVn-45" value="" style="shape=tableRow;horizontal=0;startSize=0;swimlaneHead=0;swimlaneBody=0;fillColor=#fff2cc;collapsible=0;dropTarget=0;points=[[0,0.5],[1,0.5]];portConstraint=eastwest;top=0;left=0;right=0;bottom=0;strokeColor=#d6b656;" parent="QvAU7ecHsZQy278lUhVn-23" vertex="1">
          <mxGeometry y="150" width="180" height="30" as="geometry" />
        </mxCell>
        <mxCell id="QvAU7ecHsZQy278lUhVn-46" value="" style="shape=partialRectangle;connectable=0;fillColor=none;top=0;left=0;bottom=0;right=0;editable=1;overflow=hidden;whiteSpace=wrap;html=1;" parent="QvAU7ecHsZQy278lUhVn-45" vertex="1">
          <mxGeometry width="30" height="30" as="geometry">
            <mxRectangle width="30" height="30" as="alternateBounds" />
          </mxGeometry>
        </mxCell>
        <mxCell id="QvAU7ecHsZQy278lUhVn-47" value="price" style="shape=partialRectangle;connectable=0;fillColor=none;top=0;left=0;bottom=0;right=0;align=left;spacingLeft=6;overflow=hidden;whiteSpace=wrap;html=1;" parent="QvAU7ecHsZQy278lUhVn-45" vertex="1">
          <mxGeometry x="30" width="150" height="30" as="geometry">
            <mxRectangle width="150" height="30" as="alternateBounds" />
          </mxGeometry>
        </mxCell>
        <mxCell id="P6H75Iuykzm-ga6hv1Ka-1" value="" style="shape=tableRow;horizontal=0;startSize=0;swimlaneHead=0;swimlaneBody=0;fillColor=none;collapsible=0;dropTarget=0;points=[[0,0.5],[1,0.5]];portConstraint=eastwest;top=0;left=0;right=0;bottom=0;" parent="QvAU7ecHsZQy278lUhVn-23" vertex="1">
          <mxGeometry y="180" width="180" height="30" as="geometry" />
        </mxCell>
        <mxCell id="P6H75Iuykzm-ga6hv1Ka-2" value="" style="shape=partialRectangle;connectable=0;fillColor=none;top=0;left=0;bottom=0;right=0;editable=1;overflow=hidden;whiteSpace=wrap;html=1;" parent="P6H75Iuykzm-ga6hv1Ka-1" vertex="1">
          <mxGeometry width="30" height="30" as="geometry">
            <mxRectangle width="30" height="30" as="alternateBounds" />
          </mxGeometry>
        </mxCell>
        <mxCell id="P6H75Iuykzm-ga6hv1Ka-3" value="isDeleted" style="shape=partialRectangle;connectable=0;fillColor=none;top=0;left=0;bottom=0;right=0;align=left;spacingLeft=6;overflow=hidden;whiteSpace=wrap;html=1;" parent="P6H75Iuykzm-ga6hv1Ka-1" vertex="1">
          <mxGeometry x="30" width="150" height="30" as="geometry">
            <mxRectangle width="150" height="30" as="alternateBounds" />
          </mxGeometry>
        </mxCell>
        <mxCell id="QvAU7ecHsZQy278lUhVn-39" value="RoleID:&lt;br&gt;1: user&lt;br&gt;2: moderator&lt;br&gt;3: administor" style="shape=callout;whiteSpace=wrap;html=1;perimeter=calloutPerimeter;" parent="1" vertex="1">
          <mxGeometry x="750" y="295" width="120" height="115" as="geometry" />
        </mxCell>
        <mxCell id="QvAU7ecHsZQy278lUhVn-98" value="status:&lt;br&gt;0: đang chờ người bán duyệt&lt;br&gt;1: đã được người bán duyệt (đang bán hàng)&lt;br&gt;2: người bán k duyệt&lt;br&gt;3. đã giao dịch xong&lt;br&gt;4: đã bị admin xóa" style="shape=callout;whiteSpace=wrap;html=1;perimeter=calloutPerimeter;" parent="1" vertex="1">
          <mxGeometry x="140" y="-20" width="190" height="160" as="geometry" />
        </mxCell>
        <mxCell id="QvAU7ecHsZQy278lUhVn-111" value="price/month(30 ngày)" style="shape=callout;whiteSpace=wrap;html=1;perimeter=calloutPerimeter;" parent="1" vertex="1">
          <mxGeometry x="1060" y="1320" width="120" height="100" as="geometry" />
        </mxCell>
        <mxCell id="C_8VBaGY7nyaqYOhcCqE-1" value="" style="edgeStyle=entityRelationEdgeStyle;fontSize=12;html=1;endArrow=ERoneToMany;rounded=0;entryX=0;entryY=0.5;entryDx=0;entryDy=0;" parent="1" source="QvAU7ecHsZQy278lUhVn-24" target="QvAU7ecHsZQy278lUhVn-56" edge="1">
          <mxGeometry width="100" height="100" relative="1" as="geometry">
            <mxPoint x="430" y="1000" as="sourcePoint" />
            <mxPoint x="530" y="900" as="targetPoint" />
          </mxGeometry>
        </mxCell>
        <mxCell id="C_8VBaGY7nyaqYOhcCqE-8" value="" style="fontSize=12;html=1;endArrow=ERmany;rounded=0;entryX=0;entryY=0.667;entryDx=0;entryDy=0;exitX=0.997;exitY=0.172;exitDx=0;exitDy=0;exitPerimeter=0;entryPerimeter=0;" parent="1" source="CdEZ3CyZhxFSUictnTEU-3" target="CdEZ3CyZhxFSUictnTEU-333" edge="1">
          <mxGeometry width="100" height="100" relative="1" as="geometry">
            <mxPoint x="800" y="650" as="sourcePoint" />
            <mxPoint x="1230" y="1085" as="targetPoint" />
            <Array as="points">
              <mxPoint x="960" y="620" />
              <mxPoint x="960" y="690" />
              <mxPoint x="970" y="1110" />
            </Array>
          </mxGeometry>
        </mxCell>
        <mxCell id="P6H75Iuykzm-ga6hv1Ka-7" value="" style="edgeStyle=entityRelationEdgeStyle;fontSize=12;html=1;endArrow=ERmany;rounded=0;exitX=-0.008;exitY=0.331;exitDx=0;exitDy=0;exitPerimeter=0;" parent="1" source="CdEZ3CyZhxFSUictnTEU-3" target="P6H75Iuykzm-ga6hv1Ka-4" edge="1">
          <mxGeometry width="100" height="100" relative="1" as="geometry">
            <mxPoint x="450" y="340" as="sourcePoint" />
            <mxPoint x="550" y="240" as="targetPoint" />
            <Array as="points">
              <mxPoint x="590" y="420" />
              <mxPoint x="630" y="420" />
              <mxPoint x="620" y="420" />
              <mxPoint x="560" y="290" />
              <mxPoint x="650" y="440" />
              <mxPoint x="590" y="280" />
            </Array>
          </mxGeometry>
        </mxCell>
        <mxCell id="QOQhu_O7ZKUqvc6Bqqpc-1" value="ChatRoom" style="shape=table;startSize=30;container=1;collapsible=1;childLayout=tableLayout;fixedRows=1;rowLines=0;fontStyle=1;align=center;resizeLast=1;html=1;" parent="1" vertex="1">
          <mxGeometry x="1050" y="780" width="180" height="120" as="geometry" />
        </mxCell>
        <mxCell id="QOQhu_O7ZKUqvc6Bqqpc-2" value="" style="shape=tableRow;horizontal=0;startSize=0;swimlaneHead=0;swimlaneBody=0;fillColor=none;collapsible=0;dropTarget=0;points=[[0,0.5],[1,0.5]];portConstraint=eastwest;top=0;left=0;right=0;bottom=1;" parent="QOQhu_O7ZKUqvc6Bqqpc-1" vertex="1">
          <mxGeometry y="30" width="180" height="30" as="geometry" />
        </mxCell>
        <mxCell id="QOQhu_O7ZKUqvc6Bqqpc-3" value="PK" style="shape=partialRectangle;connectable=0;fillColor=none;top=0;left=0;bottom=0;right=0;fontStyle=1;overflow=hidden;whiteSpace=wrap;html=1;" parent="QOQhu_O7ZKUqvc6Bqqpc-2" vertex="1">
          <mxGeometry width="50" height="30" as="geometry">
            <mxRectangle width="50" height="30" as="alternateBounds" />
          </mxGeometry>
        </mxCell>
        <mxCell id="QOQhu_O7ZKUqvc6Bqqpc-4" value="roomId" style="shape=partialRectangle;connectable=0;fillColor=none;top=0;left=0;bottom=0;right=0;align=left;spacingLeft=6;fontStyle=5;overflow=hidden;whiteSpace=wrap;html=1;" parent="QOQhu_O7ZKUqvc6Bqqpc-2" vertex="1">
          <mxGeometry x="50" width="130" height="30" as="geometry">
            <mxRectangle width="130" height="30" as="alternateBounds" />
          </mxGeometry>
        </mxCell>
        <mxCell id="QOQhu_O7ZKUqvc6Bqqpc-5" value="" style="shape=tableRow;horizontal=0;startSize=0;swimlaneHead=0;swimlaneBody=0;fillColor=none;collapsible=0;dropTarget=0;points=[[0,0.5],[1,0.5]];portConstraint=eastwest;top=0;left=0;right=0;bottom=0;" parent="QOQhu_O7ZKUqvc6Bqqpc-1" vertex="1">
          <mxGeometry y="60" width="180" height="30" as="geometry" />
        </mxCell>
        <mxCell id="QOQhu_O7ZKUqvc6Bqqpc-6" value="&lt;b&gt;FK&lt;/b&gt;" style="shape=partialRectangle;connectable=0;fillColor=none;top=0;left=0;bottom=0;right=0;editable=1;overflow=hidden;whiteSpace=wrap;html=1;" parent="QOQhu_O7ZKUqvc6Bqqpc-5" vertex="1">
          <mxGeometry width="50" height="30" as="geometry">
            <mxRectangle width="50" height="30" as="alternateBounds" />
          </mxGeometry>
        </mxCell>
        <mxCell id="QOQhu_O7ZKUqvc6Bqqpc-7" value="userId1" style="shape=partialRectangle;connectable=0;fillColor=none;top=0;left=0;bottom=0;right=0;align=left;spacingLeft=6;overflow=hidden;whiteSpace=wrap;html=1;" parent="QOQhu_O7ZKUqvc6Bqqpc-5" vertex="1">
          <mxGeometry x="50" width="130" height="30" as="geometry">
            <mxRectangle width="130" height="30" as="alternateBounds" />
          </mxGeometry>
        </mxCell>
        <mxCell id="QOQhu_O7ZKUqvc6Bqqpc-8" value="" style="shape=tableRow;horizontal=0;startSize=0;swimlaneHead=0;swimlaneBody=0;fillColor=none;collapsible=0;dropTarget=0;points=[[0,0.5],[1,0.5]];portConstraint=eastwest;top=0;left=0;right=0;bottom=0;" parent="QOQhu_O7ZKUqvc6Bqqpc-1" vertex="1">
          <mxGeometry y="90" width="180" height="30" as="geometry" />
        </mxCell>
        <mxCell id="QOQhu_O7ZKUqvc6Bqqpc-9" value="&lt;b&gt;FK&lt;/b&gt;" style="shape=partialRectangle;connectable=0;fillColor=none;top=0;left=0;bottom=0;right=0;editable=1;overflow=hidden;whiteSpace=wrap;html=1;" parent="QOQhu_O7ZKUqvc6Bqqpc-8" vertex="1">
          <mxGeometry width="50" height="30" as="geometry">
            <mxRectangle width="50" height="30" as="alternateBounds" />
          </mxGeometry>
        </mxCell>
        <mxCell id="QOQhu_O7ZKUqvc6Bqqpc-10" value="userId2" style="shape=partialRectangle;connectable=0;fillColor=none;top=0;left=0;bottom=0;right=0;align=left;spacingLeft=6;overflow=hidden;whiteSpace=wrap;html=1;" parent="QOQhu_O7ZKUqvc6Bqqpc-8" vertex="1">
          <mxGeometry x="50" width="130" height="30" as="geometry">
            <mxRectangle width="130" height="30" as="alternateBounds" />
          </mxGeometry>
        </mxCell>
        <mxCell id="QOQhu_O7ZKUqvc6Bqqpc-20" value="" style="edgeStyle=entityRelationEdgeStyle;fontSize=12;html=1;endArrow=ERmany;rounded=0;entryX=1.004;entryY=0.812;entryDx=0;entryDy=0;exitX=0.008;exitY=0.332;exitDx=0;exitDy=0;exitPerimeter=0;entryPerimeter=0;" parent="1" source="QOQhu_O7ZKUqvc6Bqqpc-2" target="CdEZ3CyZhxFSUictnTEU-3" edge="1">
          <mxGeometry width="100" height="100" relative="1" as="geometry">
            <mxPoint x="960" y="670" as="sourcePoint" />
            <mxPoint x="1150" y="580" as="targetPoint" />
          </mxGeometry>
        </mxCell>
        <mxCell id="QOQhu_O7ZKUqvc6Bqqpc-22" value="" style="edgeStyle=entityRelationEdgeStyle;fontSize=12;html=1;endArrow=ERmany;rounded=0;exitX=1.004;exitY=0.141;exitDx=0;exitDy=0;exitPerimeter=0;entryX=0;entryY=0.5;entryDx=0;entryDy=0;" parent="1" source="QOQhu_O7ZKUqvc6Bqqpc-1" target="0m9zOVvLUMe2Tgnja99H-5" edge="1">
          <mxGeometry width="100" height="100" relative="1" as="geometry">
            <mxPoint x="1210" y="650" as="sourcePoint" />
            <mxPoint x="1310" y="550" as="targetPoint" />
          </mxGeometry>
        </mxCell>
        <mxCell id="Mm4rXbmc60xIDRbtt6zK-7" value="" style="edgeStyle=entityRelationEdgeStyle;fontSize=12;html=1;endArrow=ERoneToMany;rounded=0;exitX=1;exitY=0.5;exitDx=0;exitDy=0;entryX=0;entryY=0.5;entryDx=0;entryDy=0;" parent="1" source="QOQhu_O7ZKUqvc6Bqqpc-2" target="Mm4rXbmc60xIDRbtt6zK-4" edge="1">
          <mxGeometry width="100" height="100" relative="1" as="geometry">
            <mxPoint x="1300" y="720" as="sourcePoint" />
            <mxPoint x="1400" y="620" as="targetPoint" />
          </mxGeometry>
        </mxCell>
        <mxCell id="j1l9nlEc9lx-D9-xVbDg-26" value="" style="edgeStyle=orthogonalEdgeStyle;fontSize=12;html=1;endArrow=ERmany;rounded=0;entryX=1;entryY=0.5;entryDx=0;entryDy=0;exitX=1;exitY=0.5;exitDx=0;exitDy=0;" parent="1" source="CdEZ3CyZhxFSUictnTEU-3" target="j1l9nlEc9lx-D9-xVbDg-19" edge="1">
          <mxGeometry width="100" height="100" relative="1" as="geometry">
            <mxPoint x="990" y="420" as="sourcePoint" />
            <mxPoint x="1090" y="320" as="targetPoint" />
            <Array as="points">
              <mxPoint x="910" y="453" />
              <mxPoint x="980" y="453" />
              <mxPoint x="980" y="85" />
            </Array>
          </mxGeometry>
        </mxCell>
        <mxCell id="j1l9nlEc9lx-D9-xVbDg-27" value="" style="edgeStyle=orthogonalEdgeStyle;fontSize=12;html=1;endArrow=ERoneToMany;rounded=0;entryX=1;entryY=0.5;entryDx=0;entryDy=0;exitX=1.004;exitY=0.267;exitDx=0;exitDy=0;exitPerimeter=0;" parent="1" source="CdEZ3CyZhxFSUictnTEU-3" target="j1l9nlEc9lx-D9-xVbDg-16" edge="1">
          <mxGeometry width="100" height="100" relative="1" as="geometry">
            <mxPoint x="1000" y="290" as="sourcePoint" />
            <mxPoint x="1100" y="190" as="targetPoint" />
            <Array as="points">
              <mxPoint x="990" y="448" />
              <mxPoint x="990" y="55" />
            </Array>
          </mxGeometry>
        </mxCell>
        <mxCell id="j1l9nlEc9lx-D9-xVbDg-30" value="buyRating: rating tổng thể khi mua hàng&lt;br style=&quot;border-color: var(--border-color);&quot;&gt;sellRating: rating tổng thể khi bán hàng" style="shape=callout;whiteSpace=wrap;html=1;perimeter=calloutPerimeter;" parent="1" vertex="1">
          <mxGeometry x="705" y="800" width="250" height="80" as="geometry" />
        </mxCell>
        <mxCell id="j1l9nlEc9lx-D9-xVbDg-31" value="raterId: người đánh giá&lt;br style=&quot;border-color: var(--border-color);&quot;&gt;ratedId: người được đánh giá" style="shape=callout;whiteSpace=wrap;html=1;perimeter=calloutPerimeter;" parent="1" vertex="1">
          <mxGeometry x="850" y="-40" width="220" height="80" as="geometry" />
        </mxCell>
        <mxCell id="j1l9nlEc9lx-D9-xVbDg-35" value="Type: chuỗi string&lt;br&gt;&quot;RateBuyer&quot; đánh giá người mua&lt;br&gt;&quot; &quot; : đánh giá người bán" style="shape=callout;whiteSpace=wrap;html=1;perimeter=calloutPerimeter;" parent="1" vertex="1">
          <mxGeometry x="705" y="140" width="230" height="100" as="geometry" />
        </mxCell>
        <mxCell id="8q6Hi5Zd12DFtCCMp3Rs-1" value="PromotionTransaction" style="shape=table;startSize=30;container=1;collapsible=1;childLayout=tableLayout;fixedRows=1;rowLines=0;fontStyle=1;align=center;resizeLast=1;html=1;fillColor=#fff2cc;strokeColor=#d6b656;" parent="1" vertex="1">
          <mxGeometry x="1400" y="1090" width="180" height="270" as="geometry" />
        </mxCell>
        <mxCell id="8q6Hi5Zd12DFtCCMp3Rs-2" value="" style="shape=tableRow;horizontal=0;startSize=0;swimlaneHead=0;swimlaneBody=0;fillColor=none;collapsible=0;dropTarget=0;points=[[0,0.5],[1,0.5]];portConstraint=eastwest;top=0;left=0;right=0;bottom=1;" parent="8q6Hi5Zd12DFtCCMp3Rs-1" vertex="1">
          <mxGeometry y="30" width="180" height="30" as="geometry" />
        </mxCell>
        <mxCell id="8q6Hi5Zd12DFtCCMp3Rs-3" value="PK" style="shape=partialRectangle;connectable=0;fillColor=none;top=0;left=0;bottom=0;right=0;fontStyle=1;overflow=hidden;whiteSpace=wrap;html=1;" parent="8q6Hi5Zd12DFtCCMp3Rs-2" vertex="1">
          <mxGeometry width="30" height="30" as="geometry">
            <mxRectangle width="30" height="30" as="alternateBounds" />
          </mxGeometry>
        </mxCell>
        <mxCell id="8q6Hi5Zd12DFtCCMp3Rs-4" value="&lt;span style=&quot;font-weight: normal;&quot;&gt;promoTransactionId&lt;/span&gt;" style="shape=partialRectangle;connectable=0;fillColor=none;top=0;left=0;bottom=0;right=0;align=left;spacingLeft=6;fontStyle=5;overflow=hidden;whiteSpace=wrap;html=1;" parent="8q6Hi5Zd12DFtCCMp3Rs-2" vertex="1">
          <mxGeometry x="30" width="150" height="30" as="geometry">
            <mxRectangle width="150" height="30" as="alternateBounds" />
          </mxGeometry>
        </mxCell>
        <mxCell id="8q6Hi5Zd12DFtCCMp3Rs-33" value="" style="shape=tableRow;horizontal=0;startSize=0;swimlaneHead=0;swimlaneBody=0;fillColor=none;collapsible=0;dropTarget=0;points=[[0,0.5],[1,0.5]];portConstraint=eastwest;top=0;left=0;right=0;bottom=0;" parent="8q6Hi5Zd12DFtCCMp3Rs-1" vertex="1">
          <mxGeometry y="60" width="180" height="30" as="geometry" />
        </mxCell>
        <mxCell id="8q6Hi5Zd12DFtCCMp3Rs-34" value="&lt;b&gt;FK&lt;/b&gt;" style="shape=partialRectangle;connectable=0;fillColor=none;top=0;left=0;bottom=0;right=0;editable=1;overflow=hidden;whiteSpace=wrap;html=1;" parent="8q6Hi5Zd12DFtCCMp3Rs-33" vertex="1">
          <mxGeometry width="30" height="30" as="geometry">
            <mxRectangle width="30" height="30" as="alternateBounds" />
          </mxGeometry>
        </mxCell>
        <mxCell id="8q6Hi5Zd12DFtCCMp3Rs-35" value="&lt;span style=&quot;text-decoration-line: underline;&quot;&gt;promoOrderId&lt;/span&gt;" style="shape=partialRectangle;connectable=0;fillColor=none;top=0;left=0;bottom=0;right=0;align=left;spacingLeft=6;overflow=hidden;whiteSpace=wrap;html=1;" parent="8q6Hi5Zd12DFtCCMp3Rs-33" vertex="1">
          <mxGeometry x="30" width="150" height="30" as="geometry">
            <mxRectangle width="150" height="30" as="alternateBounds" />
          </mxGeometry>
        </mxCell>
        <mxCell id="8q6Hi5Zd12DFtCCMp3Rs-14" value="" style="shape=tableRow;horizontal=0;startSize=0;swimlaneHead=0;swimlaneBody=0;fillColor=none;collapsible=0;dropTarget=0;points=[[0,0.5],[1,0.5]];portConstraint=eastwest;top=0;left=0;right=0;bottom=0;" parent="8q6Hi5Zd12DFtCCMp3Rs-1" vertex="1">
          <mxGeometry y="90" width="180" height="30" as="geometry" />
        </mxCell>
        <mxCell id="8q6Hi5Zd12DFtCCMp3Rs-15" value="" style="shape=partialRectangle;connectable=0;fillColor=none;top=0;left=0;bottom=0;right=0;editable=1;overflow=hidden;whiteSpace=wrap;html=1;" parent="8q6Hi5Zd12DFtCCMp3Rs-14" vertex="1">
          <mxGeometry width="30" height="30" as="geometry">
            <mxRectangle width="30" height="30" as="alternateBounds" />
          </mxGeometry>
        </mxCell>
        <mxCell id="8q6Hi5Zd12DFtCCMp3Rs-16" value="price" style="shape=partialRectangle;connectable=0;fillColor=none;top=0;left=0;bottom=0;right=0;align=left;spacingLeft=6;overflow=hidden;whiteSpace=wrap;html=1;" parent="8q6Hi5Zd12DFtCCMp3Rs-14" vertex="1">
          <mxGeometry x="30" width="150" height="30" as="geometry">
            <mxRectangle width="150" height="30" as="alternateBounds" />
          </mxGeometry>
        </mxCell>
        <mxCell id="8q6Hi5Zd12DFtCCMp3Rs-23" value="" style="shape=tableRow;horizontal=0;startSize=0;swimlaneHead=0;swimlaneBody=0;fillColor=none;collapsible=0;dropTarget=0;points=[[0,0.5],[1,0.5]];portConstraint=eastwest;top=0;left=0;right=0;bottom=0;" parent="8q6Hi5Zd12DFtCCMp3Rs-1" vertex="1">
          <mxGeometry y="120" width="180" height="30" as="geometry" />
        </mxCell>
        <mxCell id="8q6Hi5Zd12DFtCCMp3Rs-24" value="" style="shape=partialRectangle;connectable=0;fillColor=none;top=0;left=0;bottom=0;right=0;editable=1;overflow=hidden;whiteSpace=wrap;html=1;" parent="8q6Hi5Zd12DFtCCMp3Rs-23" vertex="1">
          <mxGeometry width="30" height="30" as="geometry">
            <mxRectangle width="30" height="30" as="alternateBounds" />
          </mxGeometry>
        </mxCell>
        <mxCell id="8q6Hi5Zd12DFtCCMp3Rs-25" value="paymentMethod" style="shape=partialRectangle;connectable=0;fillColor=none;top=0;left=0;bottom=0;right=0;align=left;spacingLeft=6;overflow=hidden;whiteSpace=wrap;html=1;" parent="8q6Hi5Zd12DFtCCMp3Rs-23" vertex="1">
          <mxGeometry x="30" width="150" height="30" as="geometry">
            <mxRectangle width="150" height="30" as="alternateBounds" />
          </mxGeometry>
        </mxCell>
        <mxCell id="8q6Hi5Zd12DFtCCMp3Rs-26" value="" style="shape=tableRow;horizontal=0;startSize=0;swimlaneHead=0;swimlaneBody=0;fillColor=none;collapsible=0;dropTarget=0;points=[[0,0.5],[1,0.5]];portConstraint=eastwest;top=0;left=0;right=0;bottom=0;" parent="8q6Hi5Zd12DFtCCMp3Rs-1" vertex="1">
          <mxGeometry y="150" width="180" height="30" as="geometry" />
        </mxCell>
        <mxCell id="8q6Hi5Zd12DFtCCMp3Rs-27" value="" style="shape=partialRectangle;connectable=0;fillColor=none;top=0;left=0;bottom=0;right=0;editable=1;overflow=hidden;whiteSpace=wrap;html=1;" parent="8q6Hi5Zd12DFtCCMp3Rs-26" vertex="1">
          <mxGeometry width="30" height="30" as="geometry">
            <mxRectangle width="30" height="30" as="alternateBounds" />
          </mxGeometry>
        </mxCell>
        <mxCell id="8q6Hi5Zd12DFtCCMp3Rs-28" value="transactionCode" style="shape=partialRectangle;connectable=0;fillColor=none;top=0;left=0;bottom=0;right=0;align=left;spacingLeft=6;overflow=hidden;whiteSpace=wrap;html=1;" parent="8q6Hi5Zd12DFtCCMp3Rs-26" vertex="1">
          <mxGeometry x="30" width="150" height="30" as="geometry">
            <mxRectangle width="150" height="30" as="alternateBounds" />
          </mxGeometry>
        </mxCell>
        <mxCell id="8q6Hi5Zd12DFtCCMp3Rs-29" value="" style="shape=tableRow;horizontal=0;startSize=0;swimlaneHead=0;swimlaneBody=0;fillColor=none;collapsible=0;dropTarget=0;points=[[0,0.5],[1,0.5]];portConstraint=eastwest;top=0;left=0;right=0;bottom=0;" parent="8q6Hi5Zd12DFtCCMp3Rs-1" vertex="1">
          <mxGeometry y="180" width="180" height="30" as="geometry" />
        </mxCell>
        <mxCell id="8q6Hi5Zd12DFtCCMp3Rs-30" value="" style="shape=partialRectangle;connectable=0;fillColor=none;top=0;left=0;bottom=0;right=0;editable=1;overflow=hidden;whiteSpace=wrap;html=1;" parent="8q6Hi5Zd12DFtCCMp3Rs-29" vertex="1">
          <mxGeometry width="30" height="30" as="geometry">
            <mxRectangle width="30" height="30" as="alternateBounds" />
          </mxGeometry>
        </mxCell>
        <mxCell id="8q6Hi5Zd12DFtCCMp3Rs-31" value="transactionStatus" style="shape=partialRectangle;connectable=0;fillColor=none;top=0;left=0;bottom=0;right=0;align=left;spacingLeft=6;overflow=hidden;whiteSpace=wrap;html=1;" parent="8q6Hi5Zd12DFtCCMp3Rs-29" vertex="1">
          <mxGeometry x="30" width="150" height="30" as="geometry">
            <mxRectangle width="150" height="30" as="alternateBounds" />
          </mxGeometry>
        </mxCell>
        <mxCell id="NNFUY4mLSP4heDJd7QKt-6" value="" style="shape=tableRow;horizontal=0;startSize=0;swimlaneHead=0;swimlaneBody=0;fillColor=#d5e8d4;collapsible=0;dropTarget=0;points=[[0,0.5],[1,0.5]];portConstraint=eastwest;top=0;left=0;right=0;bottom=0;strokeColor=#82b366;" parent="8q6Hi5Zd12DFtCCMp3Rs-1" vertex="1">
          <mxGeometry y="210" width="180" height="30" as="geometry" />
        </mxCell>
        <mxCell id="NNFUY4mLSP4heDJd7QKt-7" value="" style="shape=partialRectangle;connectable=0;fillColor=none;top=0;left=0;bottom=0;right=0;editable=1;overflow=hidden;whiteSpace=wrap;html=1;" parent="NNFUY4mLSP4heDJd7QKt-6" vertex="1">
          <mxGeometry width="30" height="30" as="geometry">
            <mxRectangle width="30" height="30" as="alternateBounds" />
          </mxGeometry>
        </mxCell>
        <mxCell id="NNFUY4mLSP4heDJd7QKt-8" value="quantity" style="shape=partialRectangle;connectable=0;fillColor=none;top=0;left=0;bottom=0;right=0;align=left;spacingLeft=6;overflow=hidden;whiteSpace=wrap;html=1;" parent="NNFUY4mLSP4heDJd7QKt-6" vertex="1">
          <mxGeometry x="30" width="150" height="30" as="geometry">
            <mxRectangle width="150" height="30" as="alternateBounds" />
          </mxGeometry>
        </mxCell>
        <mxCell id="XEaX0AGf2RdDsWzLLCKB-1" value="" style="shape=tableRow;horizontal=0;startSize=0;swimlaneHead=0;swimlaneBody=0;collapsible=0;dropTarget=0;points=[[0,0.5],[1,0.5]];portConstraint=eastwest;top=0;left=0;right=0;bottom=0;fillColor=none;" parent="8q6Hi5Zd12DFtCCMp3Rs-1" vertex="1">
          <mxGeometry y="240" width="180" height="30" as="geometry" />
        </mxCell>
        <mxCell id="XEaX0AGf2RdDsWzLLCKB-2" value="" style="shape=partialRectangle;connectable=0;fillColor=none;top=0;left=0;bottom=0;right=0;editable=1;overflow=hidden;whiteSpace=wrap;html=1;" parent="XEaX0AGf2RdDsWzLLCKB-1" vertex="1">
          <mxGeometry width="30" height="30" as="geometry">
            <mxRectangle width="30" height="30" as="alternateBounds" />
          </mxGeometry>
        </mxCell>
        <mxCell id="XEaX0AGf2RdDsWzLLCKB-3" value="createdDate" style="shape=partialRectangle;connectable=0;fillColor=none;top=0;left=0;bottom=0;right=0;align=left;spacingLeft=6;overflow=hidden;whiteSpace=wrap;html=1;" parent="XEaX0AGf2RdDsWzLLCKB-1" vertex="1">
          <mxGeometry x="30" width="150" height="30" as="geometry">
            <mxRectangle width="150" height="30" as="alternateBounds" />
          </mxGeometry>
        </mxCell>
        <mxCell id="8q6Hi5Zd12DFtCCMp3Rs-32" value="" style="edgeStyle=entityRelationEdgeStyle;fontSize=12;html=1;endArrow=ERoneToMany;rounded=0;exitX=1;exitY=0.5;exitDx=0;exitDy=0;entryX=0;entryY=0.5;entryDx=0;entryDy=0;" parent="1" source="CdEZ3CyZhxFSUictnTEU-315" target="8q6Hi5Zd12DFtCCMp3Rs-33" edge="1">
          <mxGeometry width="100" height="100" relative="1" as="geometry">
            <mxPoint x="600" y="1070" as="sourcePoint" />
            <mxPoint x="700" y="970" as="targetPoint" />
          </mxGeometry>
        </mxCell>
        <mxCell id="UPTvRcya9LFYI0RSyNBZ-4" value="dealType:&amp;nbsp;&lt;br&gt;0: buôn bán&lt;br&gt;1: Trao đổi" style="shape=callout;whiteSpace=wrap;html=1;perimeter=calloutPerimeter;fillColor=#fff2cc;strokeColor=#d6b656;" parent="1" vertex="1">
          <mxGeometry x="340" y="520" width="120" height="100" as="geometry" />
        </mxCell>
        <mxCell id="UPTvRcya9LFYI0RSyNBZ-13" value="TradingOrder" style="shape=table;startSize=30;container=1;collapsible=1;childLayout=tableLayout;fixedRows=1;rowLines=0;fontStyle=1;align=center;resizeLast=1;html=1;fillColor=#fff2cc;strokeColor=#d6b656;" parent="1" vertex="1">
          <mxGeometry x="460" y="880" width="180" height="210" as="geometry" />
        </mxCell>
        <mxCell id="UPTvRcya9LFYI0RSyNBZ-14" value="" style="shape=tableRow;horizontal=0;startSize=0;swimlaneHead=0;swimlaneBody=0;fillColor=none;collapsible=0;dropTarget=0;points=[[0,0.5],[1,0.5]];portConstraint=eastwest;top=0;left=0;right=0;bottom=1;" parent="UPTvRcya9LFYI0RSyNBZ-13" vertex="1">
          <mxGeometry y="30" width="180" height="30" as="geometry" />
        </mxCell>
        <mxCell id="UPTvRcya9LFYI0RSyNBZ-15" value="PK" style="shape=partialRectangle;connectable=0;fillColor=none;top=0;left=0;bottom=0;right=0;fontStyle=1;overflow=hidden;whiteSpace=wrap;html=1;" parent="UPTvRcya9LFYI0RSyNBZ-14" vertex="1">
          <mxGeometry width="30" height="30" as="geometry">
            <mxRectangle width="30" height="30" as="alternateBounds" />
          </mxGeometry>
        </mxCell>
        <mxCell id="UPTvRcya9LFYI0RSyNBZ-16" value="&lt;span style=&quot;font-weight: normal;&quot;&gt;tradingOrderId&lt;/span&gt;" style="shape=partialRectangle;connectable=0;fillColor=none;top=0;left=0;bottom=0;right=0;align=left;spacingLeft=6;fontStyle=5;overflow=hidden;whiteSpace=wrap;html=1;" parent="UPTvRcya9LFYI0RSyNBZ-14" vertex="1">
          <mxGeometry x="30" width="150" height="30" as="geometry">
            <mxRectangle width="150" height="30" as="alternateBounds" />
          </mxGeometry>
        </mxCell>
        <mxCell id="UPTvRcya9LFYI0RSyNBZ-17" value="" style="shape=tableRow;horizontal=0;startSize=0;swimlaneHead=0;swimlaneBody=0;fillColor=none;collapsible=0;dropTarget=0;points=[[0,0.5],[1,0.5]];portConstraint=eastwest;top=0;left=0;right=0;bottom=0;" parent="UPTvRcya9LFYI0RSyNBZ-13" vertex="1">
          <mxGeometry y="60" width="180" height="30" as="geometry" />
        </mxCell>
        <mxCell id="UPTvRcya9LFYI0RSyNBZ-18" value="&lt;b&gt;FK&lt;/b&gt;" style="shape=partialRectangle;connectable=0;fillColor=none;top=0;left=0;bottom=0;right=0;editable=1;overflow=hidden;whiteSpace=wrap;html=1;" parent="UPTvRcya9LFYI0RSyNBZ-17" vertex="1">
          <mxGeometry width="30" height="30" as="geometry">
            <mxRectangle width="30" height="30" as="alternateBounds" />
          </mxGeometry>
        </mxCell>
        <mxCell id="UPTvRcya9LFYI0RSyNBZ-19" value="user1" style="shape=partialRectangle;connectable=0;fillColor=none;top=0;left=0;bottom=0;right=0;align=left;spacingLeft=6;overflow=hidden;whiteSpace=wrap;html=1;" parent="UPTvRcya9LFYI0RSyNBZ-17" vertex="1">
          <mxGeometry x="30" width="150" height="30" as="geometry">
            <mxRectangle width="150" height="30" as="alternateBounds" />
          </mxGeometry>
        </mxCell>
        <mxCell id="UPTvRcya9LFYI0RSyNBZ-20" value="" style="shape=tableRow;horizontal=0;startSize=0;swimlaneHead=0;swimlaneBody=0;fillColor=none;collapsible=0;dropTarget=0;points=[[0,0.5],[1,0.5]];portConstraint=eastwest;top=0;left=0;right=0;bottom=0;" parent="UPTvRcya9LFYI0RSyNBZ-13" vertex="1">
          <mxGeometry y="90" width="180" height="30" as="geometry" />
        </mxCell>
        <mxCell id="UPTvRcya9LFYI0RSyNBZ-21" value="&lt;b&gt;FK&lt;/b&gt;" style="shape=partialRectangle;connectable=0;fillColor=none;top=0;left=0;bottom=0;right=0;editable=1;overflow=hidden;whiteSpace=wrap;html=1;" parent="UPTvRcya9LFYI0RSyNBZ-20" vertex="1">
          <mxGeometry width="30" height="30" as="geometry">
            <mxRectangle width="30" height="30" as="alternateBounds" />
          </mxGeometry>
        </mxCell>
        <mxCell id="UPTvRcya9LFYI0RSyNBZ-22" value="user2" style="shape=partialRectangle;connectable=0;fillColor=none;top=0;left=0;bottom=0;right=0;align=left;spacingLeft=6;overflow=hidden;whiteSpace=wrap;html=1;" parent="UPTvRcya9LFYI0RSyNBZ-20" vertex="1">
          <mxGeometry x="30" width="150" height="30" as="geometry">
            <mxRectangle width="150" height="30" as="alternateBounds" />
          </mxGeometry>
        </mxCell>
        <mxCell id="UPTvRcya9LFYI0RSyNBZ-35" value="" style="shape=tableRow;horizontal=0;startSize=0;swimlaneHead=0;swimlaneBody=0;fillColor=none;collapsible=0;dropTarget=0;points=[[0,0.5],[1,0.5]];portConstraint=eastwest;top=0;left=0;right=0;bottom=0;" parent="UPTvRcya9LFYI0RSyNBZ-13" vertex="1">
          <mxGeometry y="120" width="180" height="30" as="geometry" />
        </mxCell>
        <mxCell id="UPTvRcya9LFYI0RSyNBZ-36" value="" style="shape=partialRectangle;connectable=0;fillColor=none;top=0;left=0;bottom=0;right=0;editable=1;overflow=hidden;whiteSpace=wrap;html=1;" parent="UPTvRcya9LFYI0RSyNBZ-35" vertex="1">
          <mxGeometry width="30" height="30" as="geometry">
            <mxRectangle width="30" height="30" as="alternateBounds" />
          </mxGeometry>
        </mxCell>
        <mxCell id="UPTvRcya9LFYI0RSyNBZ-37" value="note" style="shape=partialRectangle;connectable=0;fillColor=none;top=0;left=0;bottom=0;right=0;align=left;spacingLeft=6;overflow=hidden;whiteSpace=wrap;html=1;" parent="UPTvRcya9LFYI0RSyNBZ-35" vertex="1">
          <mxGeometry x="30" width="150" height="30" as="geometry">
            <mxRectangle width="150" height="30" as="alternateBounds" />
          </mxGeometry>
        </mxCell>
        <mxCell id="UPTvRcya9LFYI0RSyNBZ-32" value="" style="shape=tableRow;horizontal=0;startSize=0;swimlaneHead=0;swimlaneBody=0;fillColor=none;collapsible=0;dropTarget=0;points=[[0,0.5],[1,0.5]];portConstraint=eastwest;top=0;left=0;right=0;bottom=0;" parent="UPTvRcya9LFYI0RSyNBZ-13" vertex="1">
          <mxGeometry y="150" width="180" height="30" as="geometry" />
        </mxCell>
        <mxCell id="UPTvRcya9LFYI0RSyNBZ-33" value="" style="shape=partialRectangle;connectable=0;fillColor=none;top=0;left=0;bottom=0;right=0;editable=1;overflow=hidden;whiteSpace=wrap;html=1;" parent="UPTvRcya9LFYI0RSyNBZ-32" vertex="1">
          <mxGeometry width="30" height="30" as="geometry">
            <mxRectangle width="30" height="30" as="alternateBounds" />
          </mxGeometry>
        </mxCell>
        <mxCell id="UPTvRcya9LFYI0RSyNBZ-34" value="createdDate" style="shape=partialRectangle;connectable=0;fillColor=none;top=0;left=0;bottom=0;right=0;align=left;spacingLeft=6;overflow=hidden;whiteSpace=wrap;html=1;" parent="UPTvRcya9LFYI0RSyNBZ-32" vertex="1">
          <mxGeometry x="30" width="150" height="30" as="geometry">
            <mxRectangle width="150" height="30" as="alternateBounds" />
          </mxGeometry>
        </mxCell>
        <mxCell id="UPTvRcya9LFYI0RSyNBZ-78" value="" style="shape=tableRow;horizontal=0;startSize=0;swimlaneHead=0;swimlaneBody=0;fillColor=none;collapsible=0;dropTarget=0;points=[[0,0.5],[1,0.5]];portConstraint=eastwest;top=0;left=0;right=0;bottom=0;" parent="UPTvRcya9LFYI0RSyNBZ-13" vertex="1">
          <mxGeometry y="180" width="180" height="30" as="geometry" />
        </mxCell>
        <mxCell id="UPTvRcya9LFYI0RSyNBZ-79" value="" style="shape=partialRectangle;connectable=0;fillColor=none;top=0;left=0;bottom=0;right=0;editable=1;overflow=hidden;whiteSpace=wrap;html=1;" parent="UPTvRcya9LFYI0RSyNBZ-78" vertex="1">
          <mxGeometry width="30" height="30" as="geometry">
            <mxRectangle width="30" height="30" as="alternateBounds" />
          </mxGeometry>
        </mxCell>
        <mxCell id="UPTvRcya9LFYI0RSyNBZ-80" value="status" style="shape=partialRectangle;connectable=0;fillColor=none;top=0;left=0;bottom=0;right=0;align=left;spacingLeft=6;overflow=hidden;whiteSpace=wrap;html=1;" parent="UPTvRcya9LFYI0RSyNBZ-78" vertex="1">
          <mxGeometry x="30" width="150" height="30" as="geometry">
            <mxRectangle width="150" height="30" as="alternateBounds" />
          </mxGeometry>
        </mxCell>
        <mxCell id="UPTvRcya9LFYI0RSyNBZ-38" value="TradingOrderDetail" style="shape=table;startSize=30;container=1;collapsible=1;childLayout=tableLayout;fixedRows=1;rowLines=0;fontStyle=1;align=center;resizeLast=1;html=1;fillColor=#fff2cc;strokeColor=#d6b656;" parent="1" vertex="1">
          <mxGeometry x="150" y="880" width="180" height="210" as="geometry" />
        </mxCell>
        <mxCell id="UPTvRcya9LFYI0RSyNBZ-39" value="" style="shape=tableRow;horizontal=0;startSize=0;swimlaneHead=0;swimlaneBody=0;fillColor=none;collapsible=0;dropTarget=0;points=[[0,0.5],[1,0.5]];portConstraint=eastwest;top=0;left=0;right=0;bottom=1;" parent="UPTvRcya9LFYI0RSyNBZ-38" vertex="1">
          <mxGeometry y="30" width="180" height="30" as="geometry" />
        </mxCell>
        <mxCell id="UPTvRcya9LFYI0RSyNBZ-40" value="PK" style="shape=partialRectangle;connectable=0;fillColor=none;top=0;left=0;bottom=0;right=0;fontStyle=1;overflow=hidden;whiteSpace=wrap;html=1;" parent="UPTvRcya9LFYI0RSyNBZ-39" vertex="1">
          <mxGeometry width="30" height="30" as="geometry">
            <mxRectangle width="30" height="30" as="alternateBounds" />
          </mxGeometry>
        </mxCell>
        <mxCell id="UPTvRcya9LFYI0RSyNBZ-41" value="&lt;span style=&quot;font-weight: normal;&quot;&gt;tradingOrderDetailId&lt;/span&gt;" style="shape=partialRectangle;connectable=0;fillColor=none;top=0;left=0;bottom=0;right=0;align=left;spacingLeft=6;fontStyle=5;overflow=hidden;whiteSpace=wrap;html=1;" parent="UPTvRcya9LFYI0RSyNBZ-39" vertex="1">
          <mxGeometry x="30" width="150" height="30" as="geometry">
            <mxRectangle width="150" height="30" as="alternateBounds" />
          </mxGeometry>
        </mxCell>
        <mxCell id="UPTvRcya9LFYI0RSyNBZ-42" value="" style="shape=tableRow;horizontal=0;startSize=0;swimlaneHead=0;swimlaneBody=0;fillColor=none;collapsible=0;dropTarget=0;points=[[0,0.5],[1,0.5]];portConstraint=eastwest;top=0;left=0;right=0;bottom=0;" parent="UPTvRcya9LFYI0RSyNBZ-38" vertex="1">
          <mxGeometry y="60" width="180" height="30" as="geometry" />
        </mxCell>
        <mxCell id="UPTvRcya9LFYI0RSyNBZ-43" value="&lt;b&gt;FK&lt;/b&gt;" style="shape=partialRectangle;connectable=0;fillColor=none;top=0;left=0;bottom=0;right=0;editable=1;overflow=hidden;whiteSpace=wrap;html=1;" parent="UPTvRcya9LFYI0RSyNBZ-42" vertex="1">
          <mxGeometry width="30" height="30" as="geometry">
            <mxRectangle width="30" height="30" as="alternateBounds" />
          </mxGeometry>
        </mxCell>
        <mxCell id="UPTvRcya9LFYI0RSyNBZ-44" value="productId" style="shape=partialRectangle;connectable=0;fillColor=none;top=0;left=0;bottom=0;right=0;align=left;spacingLeft=6;overflow=hidden;whiteSpace=wrap;html=1;" parent="UPTvRcya9LFYI0RSyNBZ-42" vertex="1">
          <mxGeometry x="30" width="150" height="30" as="geometry">
            <mxRectangle width="150" height="30" as="alternateBounds" />
          </mxGeometry>
        </mxCell>
        <mxCell id="UPTvRcya9LFYI0RSyNBZ-81" value="" style="shape=tableRow;horizontal=0;startSize=0;swimlaneHead=0;swimlaneBody=0;fillColor=none;collapsible=0;dropTarget=0;points=[[0,0.5],[1,0.5]];portConstraint=eastwest;top=0;left=0;right=0;bottom=0;" parent="UPTvRcya9LFYI0RSyNBZ-38" vertex="1">
          <mxGeometry y="90" width="180" height="30" as="geometry" />
        </mxCell>
        <mxCell id="UPTvRcya9LFYI0RSyNBZ-82" value="&lt;b&gt;FK&lt;/b&gt;" style="shape=partialRectangle;connectable=0;fillColor=none;top=0;left=0;bottom=0;right=0;editable=1;overflow=hidden;whiteSpace=wrap;html=1;" parent="UPTvRcya9LFYI0RSyNBZ-81" vertex="1">
          <mxGeometry width="30" height="30" as="geometry">
            <mxRectangle width="30" height="30" as="alternateBounds" />
          </mxGeometry>
        </mxCell>
        <mxCell id="UPTvRcya9LFYI0RSyNBZ-83" value="tradingOrderId" style="shape=partialRectangle;connectable=0;fillColor=none;top=0;left=0;bottom=0;right=0;align=left;spacingLeft=6;overflow=hidden;whiteSpace=wrap;html=1;" parent="UPTvRcya9LFYI0RSyNBZ-81" vertex="1">
          <mxGeometry x="30" width="150" height="30" as="geometry">
            <mxRectangle width="150" height="30" as="alternateBounds" />
          </mxGeometry>
        </mxCell>
        <mxCell id="UPTvRcya9LFYI0RSyNBZ-45" value="" style="shape=tableRow;horizontal=0;startSize=0;swimlaneHead=0;swimlaneBody=0;fillColor=none;collapsible=0;dropTarget=0;points=[[0,0.5],[1,0.5]];portConstraint=eastwest;top=0;left=0;right=0;bottom=0;" parent="UPTvRcya9LFYI0RSyNBZ-38" vertex="1">
          <mxGeometry y="120" width="180" height="30" as="geometry" />
        </mxCell>
        <mxCell id="UPTvRcya9LFYI0RSyNBZ-46" value="" style="shape=partialRectangle;connectable=0;fillColor=none;top=0;left=0;bottom=0;right=0;editable=1;overflow=hidden;whiteSpace=wrap;html=1;" parent="UPTvRcya9LFYI0RSyNBZ-45" vertex="1">
          <mxGeometry width="30" height="30" as="geometry">
            <mxRectangle width="30" height="30" as="alternateBounds" />
          </mxGeometry>
        </mxCell>
        <mxCell id="UPTvRcya9LFYI0RSyNBZ-47" value="ownerId" style="shape=partialRectangle;connectable=0;fillColor=none;top=0;left=0;bottom=0;right=0;align=left;spacingLeft=6;overflow=hidden;whiteSpace=wrap;html=1;" parent="UPTvRcya9LFYI0RSyNBZ-45" vertex="1">
          <mxGeometry x="30" width="150" height="30" as="geometry">
            <mxRectangle width="150" height="30" as="alternateBounds" />
          </mxGeometry>
        </mxCell>
        <mxCell id="UPTvRcya9LFYI0RSyNBZ-48" value="" style="shape=tableRow;horizontal=0;startSize=0;swimlaneHead=0;swimlaneBody=0;fillColor=none;collapsible=0;dropTarget=0;points=[[0,0.5],[1,0.5]];portConstraint=eastwest;top=0;left=0;right=0;bottom=0;" parent="UPTvRcya9LFYI0RSyNBZ-38" vertex="1">
          <mxGeometry y="150" width="180" height="30" as="geometry" />
        </mxCell>
        <mxCell id="UPTvRcya9LFYI0RSyNBZ-49" value="" style="shape=partialRectangle;connectable=0;fillColor=none;top=0;left=0;bottom=0;right=0;editable=1;overflow=hidden;whiteSpace=wrap;html=1;" parent="UPTvRcya9LFYI0RSyNBZ-48" vertex="1">
          <mxGeometry width="30" height="30" as="geometry">
            <mxRectangle width="30" height="30" as="alternateBounds" />
          </mxGeometry>
        </mxCell>
        <mxCell id="UPTvRcya9LFYI0RSyNBZ-50" value="quantity" style="shape=partialRectangle;connectable=0;fillColor=none;top=0;left=0;bottom=0;right=0;align=left;spacingLeft=6;overflow=hidden;whiteSpace=wrap;html=1;" parent="UPTvRcya9LFYI0RSyNBZ-48" vertex="1">
          <mxGeometry x="30" width="150" height="30" as="geometry">
            <mxRectangle width="150" height="30" as="alternateBounds" />
          </mxGeometry>
        </mxCell>
        <mxCell id="UPTvRcya9LFYI0RSyNBZ-51" value="" style="shape=tableRow;horizontal=0;startSize=0;swimlaneHead=0;swimlaneBody=0;fillColor=none;collapsible=0;dropTarget=0;points=[[0,0.5],[1,0.5]];portConstraint=eastwest;top=0;left=0;right=0;bottom=0;" parent="UPTvRcya9LFYI0RSyNBZ-38" vertex="1">
          <mxGeometry y="180" width="180" height="30" as="geometry" />
        </mxCell>
        <mxCell id="UPTvRcya9LFYI0RSyNBZ-52" value="" style="shape=partialRectangle;connectable=0;fillColor=none;top=0;left=0;bottom=0;right=0;editable=1;overflow=hidden;whiteSpace=wrap;html=1;" parent="UPTvRcya9LFYI0RSyNBZ-51" vertex="1">
          <mxGeometry width="30" height="30" as="geometry">
            <mxRectangle width="30" height="30" as="alternateBounds" />
          </mxGeometry>
        </mxCell>
        <mxCell id="UPTvRcya9LFYI0RSyNBZ-53" value="price" style="shape=partialRectangle;connectable=0;fillColor=none;top=0;left=0;bottom=0;right=0;align=left;spacingLeft=6;overflow=hidden;whiteSpace=wrap;html=1;" parent="UPTvRcya9LFYI0RSyNBZ-51" vertex="1">
          <mxGeometry x="30" width="150" height="30" as="geometry">
            <mxRectangle width="150" height="30" as="alternateBounds" />
          </mxGeometry>
        </mxCell>
        <mxCell id="UPTvRcya9LFYI0RSyNBZ-58" value="" style="edgeStyle=orthogonalEdgeStyle;fontSize=12;html=1;endArrow=ERmany;rounded=0;curved=1;exitX=0.013;exitY=0.74;exitDx=0;exitDy=0;exitPerimeter=0;entryX=1;entryY=0.5;entryDx=0;entryDy=0;" parent="1" source="CdEZ3CyZhxFSUictnTEU-3" target="UPTvRcya9LFYI0RSyNBZ-17" edge="1">
          <mxGeometry width="100" height="100" relative="1" as="geometry">
            <mxPoint x="660" y="510" as="sourcePoint" />
            <mxPoint x="660" y="690" as="targetPoint" />
          </mxGeometry>
        </mxCell>
        <mxCell id="UPTvRcya9LFYI0RSyNBZ-59" value="" style="edgeStyle=orthogonalEdgeStyle;fontSize=12;html=1;endArrow=ERmany;rounded=0;curved=1;entryX=1;entryY=0.5;entryDx=0;entryDy=0;exitX=0;exitY=0.5;exitDx=0;exitDy=0;" parent="1" source="CdEZ3CyZhxFSUictnTEU-3" target="UPTvRcya9LFYI0RSyNBZ-20" edge="1">
          <mxGeometry width="100" height="100" relative="1" as="geometry">
            <mxPoint x="680" y="470" as="sourcePoint" />
            <mxPoint x="640" y="845" as="targetPoint" />
          </mxGeometry>
        </mxCell>
        <mxCell id="UPTvRcya9LFYI0RSyNBZ-60" value="" style="fontSize=12;html=1;endArrow=ERoneToMany;rounded=0;exitX=0;exitY=0.5;exitDx=0;exitDy=0;entryX=1;entryY=0.5;entryDx=0;entryDy=0;edgeStyle=orthogonalEdgeStyle;" parent="1" source="UPTvRcya9LFYI0RSyNBZ-14" target="UPTvRcya9LFYI0RSyNBZ-81" edge="1">
          <mxGeometry width="100" height="100" relative="1" as="geometry">
            <mxPoint x="560" y="980" as="sourcePoint" />
            <mxPoint x="660" y="880" as="targetPoint" />
          </mxGeometry>
        </mxCell>
        <mxCell id="UPTvRcya9LFYI0RSyNBZ-61" value="Contact" style="shape=table;startSize=30;container=1;collapsible=1;childLayout=tableLayout;fixedRows=1;rowLines=0;fontStyle=1;align=center;resizeLast=1;html=1;fillColor=#fff2cc;strokeColor=#d6b656;" parent="1" vertex="1">
          <mxGeometry x="1190" y="390" width="180" height="150" as="geometry" />
        </mxCell>
        <mxCell id="UPTvRcya9LFYI0RSyNBZ-62" value="" style="shape=tableRow;horizontal=0;startSize=0;swimlaneHead=0;swimlaneBody=0;fillColor=none;collapsible=0;dropTarget=0;points=[[0,0.5],[1,0.5]];portConstraint=eastwest;top=0;left=0;right=0;bottom=1;" parent="UPTvRcya9LFYI0RSyNBZ-61" vertex="1">
          <mxGeometry y="30" width="180" height="30" as="geometry" />
        </mxCell>
        <mxCell id="UPTvRcya9LFYI0RSyNBZ-63" value="PK" style="shape=partialRectangle;connectable=0;fillColor=none;top=0;left=0;bottom=0;right=0;fontStyle=1;overflow=hidden;whiteSpace=wrap;html=1;" parent="UPTvRcya9LFYI0RSyNBZ-62" vertex="1">
          <mxGeometry width="30" height="30" as="geometry">
            <mxRectangle width="30" height="30" as="alternateBounds" />
          </mxGeometry>
        </mxCell>
        <mxCell id="UPTvRcya9LFYI0RSyNBZ-64" value="contactId" style="shape=partialRectangle;connectable=0;fillColor=none;top=0;left=0;bottom=0;right=0;align=left;spacingLeft=6;fontStyle=5;overflow=hidden;whiteSpace=wrap;html=1;" parent="UPTvRcya9LFYI0RSyNBZ-62" vertex="1">
          <mxGeometry x="30" width="150" height="30" as="geometry">
            <mxRectangle width="150" height="30" as="alternateBounds" />
          </mxGeometry>
        </mxCell>
        <mxCell id="UPTvRcya9LFYI0RSyNBZ-65" value="" style="shape=tableRow;horizontal=0;startSize=0;swimlaneHead=0;swimlaneBody=0;fillColor=none;collapsible=0;dropTarget=0;points=[[0,0.5],[1,0.5]];portConstraint=eastwest;top=0;left=0;right=0;bottom=0;" parent="UPTvRcya9LFYI0RSyNBZ-61" vertex="1">
          <mxGeometry y="60" width="180" height="30" as="geometry" />
        </mxCell>
        <mxCell id="UPTvRcya9LFYI0RSyNBZ-66" value="&lt;b&gt;FK&lt;/b&gt;" style="shape=partialRectangle;connectable=0;fillColor=none;top=0;left=0;bottom=0;right=0;editable=1;overflow=hidden;whiteSpace=wrap;html=1;" parent="UPTvRcya9LFYI0RSyNBZ-65" vertex="1">
          <mxGeometry width="30" height="30" as="geometry">
            <mxRectangle width="30" height="30" as="alternateBounds" />
          </mxGeometry>
        </mxCell>
        <mxCell id="UPTvRcya9LFYI0RSyNBZ-67" value="userId1" style="shape=partialRectangle;connectable=0;fillColor=none;top=0;left=0;bottom=0;right=0;align=left;spacingLeft=6;overflow=hidden;whiteSpace=wrap;html=1;" parent="UPTvRcya9LFYI0RSyNBZ-65" vertex="1">
          <mxGeometry x="30" width="150" height="30" as="geometry">
            <mxRectangle width="150" height="30" as="alternateBounds" />
          </mxGeometry>
        </mxCell>
        <mxCell id="UPTvRcya9LFYI0RSyNBZ-68" value="" style="shape=tableRow;horizontal=0;startSize=0;swimlaneHead=0;swimlaneBody=0;fillColor=none;collapsible=0;dropTarget=0;points=[[0,0.5],[1,0.5]];portConstraint=eastwest;top=0;left=0;right=0;bottom=0;" parent="UPTvRcya9LFYI0RSyNBZ-61" vertex="1">
          <mxGeometry y="90" width="180" height="30" as="geometry" />
        </mxCell>
        <mxCell id="UPTvRcya9LFYI0RSyNBZ-69" value="&lt;b style=&quot;border-color: var(--border-color);&quot;&gt;FK&lt;/b&gt;" style="shape=partialRectangle;connectable=0;fillColor=none;top=0;left=0;bottom=0;right=0;editable=1;overflow=hidden;whiteSpace=wrap;html=1;" parent="UPTvRcya9LFYI0RSyNBZ-68" vertex="1">
          <mxGeometry width="30" height="30" as="geometry">
            <mxRectangle width="30" height="30" as="alternateBounds" />
          </mxGeometry>
        </mxCell>
        <mxCell id="UPTvRcya9LFYI0RSyNBZ-70" value="userId2" style="shape=partialRectangle;connectable=0;fillColor=none;top=0;left=0;bottom=0;right=0;align=left;spacingLeft=6;overflow=hidden;whiteSpace=wrap;html=1;" parent="UPTvRcya9LFYI0RSyNBZ-68" vertex="1">
          <mxGeometry x="30" width="150" height="30" as="geometry">
            <mxRectangle width="150" height="30" as="alternateBounds" />
          </mxGeometry>
        </mxCell>
        <mxCell id="UPTvRcya9LFYI0RSyNBZ-71" value="" style="shape=tableRow;horizontal=0;startSize=0;swimlaneHead=0;swimlaneBody=0;fillColor=none;collapsible=0;dropTarget=0;points=[[0,0.5],[1,0.5]];portConstraint=eastwest;top=0;left=0;right=0;bottom=0;" parent="UPTvRcya9LFYI0RSyNBZ-61" vertex="1">
          <mxGeometry y="120" width="180" height="30" as="geometry" />
        </mxCell>
        <mxCell id="UPTvRcya9LFYI0RSyNBZ-72" value="" style="shape=partialRectangle;connectable=0;fillColor=none;top=0;left=0;bottom=0;right=0;editable=1;overflow=hidden;whiteSpace=wrap;html=1;" parent="UPTvRcya9LFYI0RSyNBZ-71" vertex="1">
          <mxGeometry width="30" height="30" as="geometry">
            <mxRectangle width="30" height="30" as="alternateBounds" />
          </mxGeometry>
        </mxCell>
        <mxCell id="UPTvRcya9LFYI0RSyNBZ-73" value="isActive" style="shape=partialRectangle;connectable=0;fillColor=none;top=0;left=0;bottom=0;right=0;align=left;spacingLeft=6;overflow=hidden;whiteSpace=wrap;html=1;" parent="UPTvRcya9LFYI0RSyNBZ-71" vertex="1">
          <mxGeometry x="30" width="150" height="30" as="geometry">
            <mxRectangle width="150" height="30" as="alternateBounds" />
          </mxGeometry>
        </mxCell>
        <mxCell id="UPTvRcya9LFYI0RSyNBZ-74" value="" style="edgeStyle=entityRelationEdgeStyle;fontSize=12;html=1;endArrow=ERmany;rounded=0;exitX=1;exitY=0.5;exitDx=0;exitDy=0;entryX=0;entryY=0.5;entryDx=0;entryDy=0;" parent="1" source="CdEZ3CyZhxFSUictnTEU-3" target="UPTvRcya9LFYI0RSyNBZ-65" edge="1">
          <mxGeometry width="100" height="100" relative="1" as="geometry">
            <mxPoint x="1050" y="550" as="sourcePoint" />
            <mxPoint x="1150" y="450" as="targetPoint" />
          </mxGeometry>
        </mxCell>
        <mxCell id="UPTvRcya9LFYI0RSyNBZ-75" value="" style="edgeStyle=entityRelationEdgeStyle;fontSize=12;html=1;endArrow=ERmany;rounded=0;exitX=1;exitY=0.5;exitDx=0;exitDy=0;entryX=0;entryY=0.5;entryDx=0;entryDy=0;" parent="1" source="CdEZ3CyZhxFSUictnTEU-3" target="UPTvRcya9LFYI0RSyNBZ-68" edge="1">
          <mxGeometry width="100" height="100" relative="1" as="geometry">
            <mxPoint x="1050" y="550" as="sourcePoint" />
            <mxPoint x="1150" y="450" as="targetPoint" />
          </mxGeometry>
        </mxCell>
        <mxCell id="UPTvRcya9LFYI0RSyNBZ-77" value="status:&lt;br&gt;0: đang chờ user2 duyệt&lt;br&gt;1: user2 đã duyệt (đang trao đổi)&lt;br&gt;2: user2 đã từ chối&lt;br&gt;3: kết thúc đơn hàng&lt;br&gt;4: đã bị admin hủy" style="shape=callout;whiteSpace=wrap;html=1;perimeter=calloutPerimeter;" parent="1" vertex="1">
          <mxGeometry x="440" y="1100" width="210" height="150" as="geometry" />
        </mxCell>
        <mxCell id="NNFUY4mLSP4heDJd7QKt-1" value="bỏ period&amp;nbsp;" style="ellipse;shape=cloud;whiteSpace=wrap;html=1;" parent="1" vertex="1">
          <mxGeometry x="1060" y="1250" width="120" height="80" as="geometry" />
        </mxCell>
        <mxCell id="NNFUY4mLSP4heDJd7QKt-2" value="" style="shape=image;verticalLabelPosition=bottom;labelBackgroundColor=default;verticalAlign=top;aspect=fixed;imageAspect=0;image=data:image/png,iVBORw0KGgoAAAANSUhEUgAAAQcAAAGACAYAAACgHqfHAAAAAXNSR0IArs4c6QAAAARnQU1BAACxjwv8YQUAAAAJcEhZcwAADsMAAA7DAcdvqGQAAC/eSURBVHhe7Z1fbBzXleYP6ejBAF/jNBUpVsN+jA2IE8AiIyUREz/sOEaWbJEwyZiOIGQXtoCNQ2gmNkTRSosEJ1lBkwRrZxc7gmIGJDWSSE4Qe+YhAZ0MBVJKHGlgeXZf7LQTMmTHeSXiWShg7zn33uqu6j7VXU1W8e/3A0pdf27fe+qy6qt7b1/V13D//v3Cxz72MarGX/7yF/NZK53wxz/+kT7xiU+4LZ2o+cWdTkB8lSA+nb0eX6P5FwAAyoA4AABUIA4AABWIAwBABeIAAFCBOAAAVCAOAAAViAMAQKVheXm50NhYXSPW1tbMZ610wurqKjU1Nbktnaj5xZ1OQHyVID6dvR4fZkgqIL5wEF8luzW+2lICANiTQBwAACoQBwCACsQBAKACcQAAqEAcAAAqEAcAgErDRx99FOs8hz/96U/08Y9/3G3pbOXvuIivEsSns9fjQ8sBAKCCGZIKiC8cxFfJbo0PLQcAgArEAQCgAnEAAKhAHAAAKhAHAIAKxAEAoAJxAACoYIakAuILB/FVslvj2/bi8OCDD7otAHYH9+/fd2s6cd/0671/t/0MyX379lGhUHB7dLYyPmE715+A+IJsZXwNDQ2xXc9JxOevP4w5AABUIA4AABWIAwBAZUeOOfz3VyfcWjh/c7rXrQVBn7kSxKeTRHwYc9gE/stXnwpdAAAbB90KAIDKjhWH//iP/xe6AAA2zo6YBFU+aeTv/9c1yvynNnrkkbTbU+L993M09S/z9M3/2u32BNlJM9TCQHzhbPf4ZAxtp0yC2rEthz9/9BHde/f/uOX/Ftdl/7pZmqRu/uOJIMkif0hZRm+741vJ7VHqvpq367/6jolvY3HdolF3fuXnu69nklxJ25Q8TfaM8hl46zsh5h2I/FpRC0kTJZ2Qz+fdWjhR85M0HKLbKvHd/zFeuHX7N4XbvJR/yiLHw6ga3+J4oZPL6/jxootvpTDeRRzDcGHepghQz3lESSeo8bm4OidWzGbc5S7+uMPU8/CC21GFuP++60k3nw3/m2yH+KqhXc/lxF1u1HSCv/52bMvhoz9/ZFoJ5Z9/5s/4SFHvwDB/DtKsPKZujZifokYu2M99I+7ZNZkx23YZoQWz19ufocmro+aJLMczkws00V2ZVpD0qVSq7NgCjRzso2lem+5tpoYLvJdbEZKfK96wcMHLk5fuieJT9NaIlDtCE8UYMzSx5A5WweY3wudq8zRlLU3QqWJ8ci6uFK9eJicow58SW7GVI/D3ZL/3PX/cNj7vWLA+vHPyt2akjtqG5OggtZlzydv69J1z2N/Di3P0qm0hynrxHEAFO1Ycfv3vv6Nfv8uL8pk0g9Rufqu+f/YI5a92U3Mv0fhigfet0HgXX7S+C5VvaZqhk9xCW+RjcoO3UW6A0y6OU6dc4HKzM3JBSz6v3c2X5dNKZ01aIm45UOFcq0nvR26itqFh4icpf3eehq/3UbPL1zJIufSUPcbx9F3xH6vGINGTkmeBzh7hm3Cgjx57U+IrED+9+VxOB4Rm8L00TfGxufNEM89ecTel/d501zhxu8d8b7DV3bAscsfeHTP7tfrwzul+bow6bvTTab6RUz1TJg9uOfCxKeo9YJIX+XDmVI2/B9HQ+2m6xv1+ew6XA4IEfCTZLAkjan6ShkN0W+HEFl+tbsXCcKD5zTd8YewEH+8a55QOX5qViU5e7yyM5Wx8webwfIHbJAXKypYrh/N5x4vPX1Z5t+Jm1heHPx+Lv1y+Uc063yxypFhOMV5G61YEYy2Rv/uaiUXSF/N1sXrx2fw6gmVK+rJyvb+bLcst/vpw5+Sl8wjG5j+nlcJrT3vrDn89unXv7+vVk42zkvJyw4iaTpDyaxF3uVHTCbuiW5EkM88edN2AZuq73slPobP8/Nb4gD64wR+PpbkDshFylLvOH5zPQ3ZHdJZydIc/Oh+t/OWmRAuly56w9cPdG26Gpw6/SRl+KvON5faXaElrteB1zRhp0UhT3z3JpdUl9dxG83zHSKvGw9VH3eTo9z/ljxp/j8NqnKAciIMCP1nMz00snrxUNl1LHKJDJ/jjXi7QbK2fNKW5yyH5fGh3ROdAmm99bh6/l7PbSXFrVjoZ9NKbl6vURwhHzrq6dALAInF68h166yczRCe4W1HRVSrVR331mqZPPc0fG/57AAHisCFSdPwrHXyxT9Gs6Xtz//oS30Lcvz51xCSISIraO/hJzPncXJHtevJppXbpgw/Nur7zAl3unSbKnqGeDbcWfLAISVvh3u9FvlwZkbAtDjOQKuMnC7Z90JJ+nNKf5pUbH/DzXsYYLhrxsZTqw9ar/dnV5lGNFB3966di+HsAAeKwQVLPXOMmNlHfQRkZ524IjdPKtd6qzVoNGWiTfF44LL8GlOVzoJ0yZjCzOTAq79F6Tgb6BqlNbsKGNhrMcjNdGbjcEAd66QyL0JvPP27KuNMlUjFNuZq/fLgB1aE2/h7H18o3K8d3lm/WI8+NUQcNmbhlELHT11qwA4/Tpl737TtGQ74WRuuTIjD2fP2/fAgPdVyO5e8B8CYolXriE7Zz/QmIL8hWxicCGdf1nER8/vprWF5eLjQ2Vm9ArK2tmc9a6YTV1VVqampyWzpR85N0+/fvp3y+eg9yK+MTtnP9CYgvyFbGJ/NY4rqek4jPX39oOSjUE5+wnetPQHxBtjK+ndRyqC0lAIA9CcQBAKACcQAAqEAcAAAqEAcAgArEAQCgAnEAAKjsyHdIlrOV8Qnbuf4ExBdkK+OTeTtxXc9JxOevP7hsA7DJ7BhxwAzJSuIuN4n4hLjKRXw6ScSHGZIAgB0PxAEAoAJxAACoQBwAACoQBwCACsQBAKACcQAAqGCGpELc5SYRnxBXuYhPJ4n4dtIMyZ3dcqjliu2OB3wbf/N9m65n0u3Y2YjXpHfewWWUtoM5eBB5xXw3TbrXxv9j34P0nV+ZA+tCzj3wty1inbf1YyAyMkOyFpImSjphU+3watnXldnIeXZoms2bn5rlOuo5jyjphPXXn7XF81vaRS03ajphY39fibFkPxe13LB0YotX/Ns6bHz2Oig/5rHRcsuJmk7YiusqajrB//fdZWMOqaArth9xehbPBHqJ5gth9nZ1wPl189N58mq3mRIbcK8WN+fujHWW9nwmbo+6dL59/K84RHvu1HLs1MyHPsdsv+u0TSv7pWVQbB1Vw7Scuiljvufyck7T3uL5PshTOHNhpOSG7ffH8H0nlfqeLyZnWOMtAdOZW75jUrbE38Z/GfGisO7Y8nQvtfL8Ttyl85a66B4ZLbpia74dHpLWuJR3XzZGOWBj7JEByVlnY99Jr919cePCUGSI+t8fMHPljZHKgO/CvU7GU7Ighipykx4dIn6qc9oVGqegC/bgDNGrnAe3bIxpzMVHV2y6rkG66CziFy44gxZOd/9mloaOdkey0ieaoRZx9RZBNAJ5xzlQW7/LwUulmKeHiM5IHGJCc72PLhvhYAHwfeedH95zMdmb/Y44f3vfGbroYpIb/xh/1SvnDrVdyFHvNbHDE+/RcotBLoP/PuTyMgY9PhGYOU80wP30YFxBPFfuN/J5KlxK0511eW0CP7tMHJz9GV+C7T77s+nePme1Nk0vTL5t1uKhg8aeswWles7QcNGGTfCZ1/7hA5o5MeYs2VzrpmhfR9TZ0e6crdL0FLdszvTIVorSj8lOIU+5e3xWA8656YmTNHZihqbmilJUhY5SHAd6acrn/ZlKi8umj2y7FU7nsKUhjlJTLr7eawW3zjjPTsPSWzRzI1v8G4h7VVUHLmMGPOzOm6j1pIiAry7PHyeTVZW4cu+x9E+cos/IhnPnAhtjV4hDbVds2SdPJF797pcrLNTWz+Fw9+quNHm+1/ncXbfmcL6THro7tZ9y12kWDvGZjEQwxlKXhRfTzSqhO3WLnV2Gpoy9HDfbvz5dfKIHuyjSZXCIGLrVSLA4BJw3/ULDdDxyyK2FYcUTxMuuEIdartidE6+affJEeoq3B1v9ffmNcLfkFems8DVS6cNuzVF+M9TEuU4X4ZvhXbdaD3wzS9N73tQTL87UtiamxWG/885fv+m6RNLdGHRdJVl8FvqfPMTtlTooE8tqdanjb2WBuNgjYw4OvshHf2jkodiX3xgzNHPT5pOfm6Lprgy1ay0JuVlu9Lu+suv6eE34SNiLvzg+cPsK9d/ooMyxWi2OanhdsBqYgcKgmGotjIBLNt/sh2moOCgs4wHVBhJtS8E3vnKlL7wuQxBz3eney2Q6jRzzxSGzG2yAvSUOzEMdz5sn3HTvabtjQ2Tp8PsHTbO6ubeF5sPcnA/00LWbWW6xSPPbDSzW6YLdes4NZHJZ+44OUfbmtYoWUk2OnDKDnNaNm89/QPr2OfrAHVZhQX1VBhRd9+Hxf36KXjVjA610SgY0zTk10Gk6w3l7rttH6OXcGN1xx0p1Iy0g79cKSedhnbhJXMQ5vWnd1OuMfeSsGcj8svxacTBHGY4NbAzMkFSIVO7SJJ1I/5a++dG36LPbuP6EuNIJiK+SeuKTsbG4ruck4vPXH8RBIVK5PnH4AqcF2xPtb1jP9SfEeX/sKHHgQPEOyTLiLjeJ+IS4ykV8OknEJ92mzb6u6onPX397bswBABANiAMAQAXiAABQgTgAAFQgDgAAFYgDAEAF4gAAUIE4AABUGpaXlwuNjdU1Ym1tzXzWSiesrq5SU1OT29KJmp+k279/v9sCYHeQz1f/T3/13B9CUvcvZkgqxF1uEvEJcZWL+HSSiA8zJAEAOx6IAwBABeIAAFCBOAAAVCAOAAAViAMAQAXiAABQwWviFOIuN4n4hLjKRXw6ScS3k14Th5ZD7PidpOvBfm9mxW1p7tlR3XiMR+Z2dNkGO4lGUZM4F5miqe1f7yJo+9e7RI1v/eU+wIrbQA+ox6ot9nsNLr4HRLaz82Y2nV1WaPzfj9G+0V+XfU9bHuCcGtcRQ+0l7r9v3Mt2j2/919XmLP76Q8thA3hPd5kSax2my52kJdUCtwjK0zHGLCbjHLBfpm+7771w+FSIQW6Kei9Zs9piq0R1zLamtNOc2zFuPZhdIQ7WAFQD4rBe+MY89u4YLXL/0TzV74nDNN/AASdpKxZ3Pbu+gBO1MO0csEfpFfe91+5eDjerMUay0/TBH3iduw66Y7Y1iOnk3Obuv0xHxAqfxaLF2daVO1gDEAbEIRZEFCo9Ou3+Al17xnk3lRnEisFvqBFvLQ70VHfM9rj9FrchSq7j1sE6Rzm7CUAoEIf1cuQsLX5lhg667kImzHuTWxjegGLAidrgs+mPRNBtu5pjdhDPAo8X0+W4UzIABiCExl/+8pduFdRL6plrtrvA3YrMTLNi7W+dqLM377t0Pifq9WDcpzvp0Cd5/fZodMfsrnFa8dKZRWvlABCkcWxszK2CehDn6OBPi7W7CAEn6rrJ08QAP/WzZ6inopwqjtlPHKfh633O4dvGjUFJEImHH36YHybV4aeeWaKQz+fdWjhR85M0HKLbCieJ+GqXu1IYO0EmnSydE/xsdvvHu2RfZ2F8kbcmOn1p5s2x4QVOtjhe6KThAj/5Hd73njLfm8+W8i4uWZvanu+iSy8Ll7Xgz2++wO0I3p8tzEm9mLJ8aTl/P0nUX5T84k4nbPf45G9Qi7jLjZpO8Ndfw+c+97nC0NAQff7zn+e4ddY7wyqMemZ2YYZkJXGXi/h0kohPxp42+7qqJz5//TV+9atfpWw2azYAAMCj4b333it88YtfpA8++MDtqqQe5Yn7HX6itNzCcXt0kogvznKTiE+Iq1zEp5NEfPKL0WZfV/XE56+/xocffpjS6TT96Ec/MjsAAEAw8xzOnz9Pr7/+utkBAACCEYdDhw6ZjV/84hfmEwAAjDhI10J+rUDrAQDgUZw+/bWvfQ0tBwBAkaI4SNdCFggEAEAoioPw3HPPmcFJAAAIvEPyd7/7Hcmch/fee89se9TzO2ncM9QwQ7KSuMtFfDpJxLejZkiafx0yMCldC/xnLABAhcu2/Bdu6Vq89dZbbk99yhP3DDXMkKwk7nIRn04S8e2oGZLmXx+Y8wAAECrEAXMeAABChTgImPMAAFDFAXMeAACqOAiY8wDA3iZUHL7whS9UfccDAGB3EyoO0q3Aex4A2LuEioMg3QqIAwB7k4bl5eWCmGdqLC4u0je+8Q0aGBigtrY2Y7JZi9XVVWpqanJbOmtra+azVn6Sbv/+/ZTPh5m3vU3fS32Z/s5tFfnbNyg/8Bl6+1KKvvzdl+iN/Iv0GXPgQ5o4+TgN/AvRS2/m6cW/MjsrqF2upZ7zEBKtv5VpOnX4BXrTbUodLL9oXbBqx/dr+v7+p6mhSp14BOIzZf6eni/Wr8XE95vv0/6nG3x1X8m2qj+FJOJLpVKbfl3VE1+g/mSGZDVeeeWVQn9//7pebR2G5OXlJ/lr5HK5wrlz52Qqmduj4V7Bfn5Ojc++3t17Xbv36nf/a+R1JK/q5Vr851GNqOmEeuvPsDDM8QZfOW/O/cRYYTFSfHOFLJ+veWV+DQLxVbxe32Liu5n11b1O1HqJmk5YV/2FEHc6YSuuq6jpBH/91ZSSkydPminVSfHtb3/brVlkEFS6MzLeEScLF5qp7zrRUz98h6Z6nHflRliaoO59ozR5tZusJZ3nqs2I+3V3xjpbe6a1t0ddOt8+MaPpbqCRyZIL9qmZD302d37zGZtW9svU7tHbbrcztBleCLpYtZ5boTHqpysmnf1uhmOS71svHl9+I6Wp8oYwV24+r9TXTwXPy4/7nonv524f2LHUFAfvP2MlbZtXLgosXCR+GnGQm8xQm2SVnafLHQ/ZnbEwRP3vD5hYVyaI+gZ8NwwLUUYcsK/1UmppkrqPDvENLFZ0KzROfdTsWfEzgzNEr3IeYmn35vOP08VHV2y6rkG66Dw4jbjxN8XWjp/KNHS024rR0ixNXS8Z5ZZIUfrTHOHPS65c04+dMbGe5bSB/L4kZ+JhLfxDXbl/6jsvt8tiv0cTK+Z/HR735Qh2JrU7IQx3K+jChQtuK37KRaHu+RXnj5mnlX3S+Z7ghkHq6522q0MXaXrFrsZDB409Z+/KVM8ZGr4+RbPFsn0muX/4gGZOjNEpkzRFvQPcGRqaLT6ROzva7Y12IE1P0Ut0xrRs+OZ+THYKecrd40b6gLshnzhJYydmaGqu4tkd4NAjHW7N0vmo1xrT8jMHuHUwW8OV+zHd9s/4eA672ImOPDdGnWYN7FQiiYP8XwtpOdibr/oiAy7afv8iN7J3Mwte10I+y9NF4vyceVqJsKgmsdxi4P4xX6zT9MLQdGVzeN0cDvfH7EpT8VbM3XVrDhYB/43TkrY3VDh8c/rctb1WQb2UyinPr5wqrtxPf6p4XgFYHJwEg11CJHGQrkXp5qu+5PN5db9/kby8/IRXXnnFlCGfuVwukG7jDNP8uVa+IXvpjBh7/fQFOh1ml183d0s3jXly6qTSh92ao+4biYWmy60a+Mn/rls90E4Z7n7MVjh85+mtn8xQ9ksV/Q2mPL8y1uPKXSZ4YOcTSRySRroR3pjG8ePHzXYSszNbz81zo5373r2XfQN9G2GGZm5aocnPTdF0V4batZvok4eo40a/c7q2A4iUbSeWrIjYLsbgJW9w8wr13+igzDFpCdhuymBrsDslYwr9NEYnn3A7AqSovaOzLD9zgPsD7etz5XYi5Y2R3Hq9Hy2JHc62EAdBWg4iCvKSGWnOikjE7+HZSr0/fIo/udnsGxBcP1k6/P5BE29zbwvNVwzSOQ700LWbWb6BpanuBgKlNVMH8uuDGciU7tbRIcrevFZ6mh85y92mDE0dLHXJ2mie7k/26PEwqZ5XS/l97xCNFYd5Wuksd8HumFjlvIjGF89GEDIWqUvjRL3Npjt46ZExbrOBnUzgHZJh1PMmmXrf4ScCoP0qIe+zvHLlCo2MjNTsXiQRX813SC5N0on0b+mbH32LPruF9VeNuNMJiK+SeuIT4Yzrek4iPn/9bbk4VEPSbdsXzPrE4QucFujIYPbPf65PeqjnOhC24voT4oxvR4kDBxqrOMT9Dj+pTG/gMowk4ouz3CTiE+IqF/HpJBGfdNU2+7qqJz5//W2bMQcAwPYC4gAAUIE4AABUIA4AABWIAwBABeIAAFCBOAAAVDAJSiHucpOIT4irXMSnk0R8O2kSFFoOAAAVzJBUiLvcJOIT4ioX8ekkER9mSAIAdjwQBwCACsQBAKACcQAAqEAcAAAqEAcAgArEAQCgghmSCnGXm0R8QlzlIj6dJOLDDEkQkVs0yheL9b206+LuLReQt5Q8Matza2QfdV+Ny48DAEZmSNZC0kRJJ8Ttcswhuq1wkogvznLD01mXcOtubddferPcxbrS/VrLT1y1y93Dw8sNEjWdsN1drLd7fJtzXQWJmk7w1x9aDhtBDHL56W69IoJu1A3dIzRSdMXupsmi4UzJ3brhwqzbF8KBXnp1wmc+w4jJjNeq8HxBZZ8YBU/3NlPGc/PiGIrpNEdsAGoAcVg3CzSa7qfDN62tX4Ub9fVBogGxklsxprf9r1sLKb+7deFJsdepTupYpmRkyze8mOfMcZ+VnwRc5jT1XVmgVM8UrxNxy4GmxMhWrPBb79BYTtItWvOaWEx8wF4C4rBebs3SEGXpuLObq3Sj9pyqU3T8K57bdZm79ZFTNF7Ns7IccbYqnCXP/TL9qO5O6VnzHTeOWM7V+14pMgCiAHHYEEN0zOtWlLtR+1y2S9Ryt1YImO7aLonXXWjureJGeb2PDnrdilZun7BwAVAPEIeNcGKMFrl5L90Ku9Ryo67hbq2Qz90pCk1+8rTpkkiZ0q1Ymajia52dN2lksbGddQcAiAbEYb0caafsjX664n5qjOZGXeZufesy9VVrSSxN0GluHRS7IQFu0eWQloMZpxi6WBwEXbjALZvuCbsBQEQgDuumlV7OjdHdo7ZbEdWN2u9u3XApTeNlRuJ/91TKdlNcV6VloUBn3SBDqueMsce33YW3qH3BjiWI0Mj4Q/HXigO9NLXQQv1p261oGxo2DuAA1APeBKUQd7lJxCfEVS7i00kiPhH9zb6u6onPX38Ny8vLhcbG6g2ItbU181krnbC6ukpNTU1uSydqfpJOZgzm89V/pU8ivjjLTSI+Ia5yEZ9OEvGlUqlNv67qic9ff2g5KMRdbhLxCXGVi/h0kohvJ7UcaksJAGBPAnEAAKhAHAAAKhAHAIAKxAEAoAJxAACoQBwAACp4h6RC3OUmEZ8QV7mITyeJ+GT+zGZfV/XE568/tBwAACqYIakQd7lJxCfEVS7i00kiPsyQBADseCAOAAAViAMAQAXiAABQgTgAAFQgDgAAFYgDAEAFMyQV4i43ifiEuMpFfDpJxIcZkiDIr75DD/b9Y8kqD4AdAGZIKsRdbhLxCXGVi/h0kogPMyT3AksT1L1vlCavdps/uOd4bTAu2xnKyH4x1709Svt6JostB2MyY77TQCPWX5exVnfyduLgfgC2BojDhhii/vcHzJNgZYKob8Dvsk2UWSxQ4VrQrcrY5dO8+U5hcZzutFqXLOO+/di8eW15YWGYBlt9YgPAFgBx2BAdNPactaOyblRTNFu8oVsoXeGbmafZmWkaftL5YokzVUFcshZodohK+4379nTJlBeALQDisCEOKwLgWIfL9mCr163gVgSnu5PDECbYOiAOG+Ju6em+lKM7bjWcai7bnTTO3RDTrZAuBy9TPZX2uQBsFhCHDTFDMzft0z0/N0XTXRlqr2rBn6L0Y9xC+Jnz4l6aoIwZyGyl9uw09V3x78egJNhaIA4bIkuH3z9ofl1o7m0xTta1nvWt51Zo/F6b/bXCuGhPUS8LirffdCt4P02sFN21AdgKMENSIVK5S5N0Iv1b+uZH36LPbuP6E+JKJyC+SuqJDzMkAQA7HsyQVIi73CTiE+IqF/HpJBGfdCc3+7qqJz5//aHlAABQgTgAAFQgDgAAFYgDAEAF4gAAUIE4AABUIA4AABWIAwBApWF5ebnQ2FhdI9bW1sxnrXTC6uoqNTU1uS2dqPlJuv3795v/qViNJOKLs9wk4hPiKhfx6SQRn/zfmc2+ruqJz19/mCGpEHe5ScQnxFUu4tNJIj7MkAQA7HggDgAAFYgDAEAF4gAAUIE4AABUIA4AABWIAwBABe+QVIi73CTiE+IqF/HpJBEf3iEJthdLk8bX07zp3qzvC3h3Wv5Ikz28f183TdZy2qrIz62vm7wpu/tq9ZmDYHNpFDWJc5Epmtr+9S6Ctn+9S9T44i436hJ3/dnlAWrg58ADxfVO6mz4J/rXvC9N/l/pnxp4Px+16fTFxleen7e+/uWBBm7GPqAfq2dJpv7iW7bquoq6+OsPLYf1Us1lmxHDXLu/ofQ0Nu7bPrNdMa8x29Zhe2Rygk45l+3MZN7nxm3Ndi32KSvNUzlWNL4xRjgjNOJz8B69LQdu0cjBPpqmQWor5tNCmQ6iqbnSkzp/c4aoI8NHfDhznWAMbyv5EeWK55sJtjzknL08/OfO3Bpx59F9mXJuH9g+QBw2RIjLNt8QxuSG98uxufMz1P8638VH2gNmu+KSRR3tRSOcQb4/R53L9nRvM118dIW/v0LjXYN0kcVCEDfu/k/PmX5rpRv3IN0x3ynQfJaj+550HY7Q2cVxbhEMczxi2mtJp1toembW3ax5eusnRJljfnfPBSMCLQv2HOazLAZ8c39In1HyG6QpetWlm6b+v3FdFhGX1kEaNnnweVAfNV+wciLieex8lubkPC6l6U4VD1GwNUAcNkSIy/aRs3wzlG7EQ4/wY9pgbe+sv6Y4bssNWfLI6mSheEhWDqTNzXfGeGVaCz2LdePOfslZYVW4cXcW82t9cth8huIXqqW3aIbPJWDld2uWb/lhandFtZ5kQbieo9/bzTJCyl3K0XTXOJ0yeaSod4CPDc2a1kbuvWnq+PFJli7mQC+dYTED2wuIw4YIc9m23QSvOX3wWVYBh9w8xitzaZaftkFvzZZ0SSiqMXTU61aUu3Frtv9hlIRKuhQzn04rVn7SdXDnYboSd+j3K+5QAL3cfK7MWtiInpCn3D2zArYxEIcNobts5ydPcwN6nFZct2Lxx17LgZEnNj89J8q6FNHppLHcfdutcPmv143bCtUEdylmSq0RP/zU987BLlPU2eyORSDFXZcA0pIwK/7WENiuQBw2RBSX7QW64ms52Cf2IPX1BrsU0bBPezN+IbgBw3W7ccuTfKiP+m9k6fgTbp+H6Xb00WWXtx1gHaG37WY0JP9iHtyaujTIfaJ2090SYZp59or7OXSCLnJ3CWwvIA4bQnfZtuMPfdRsmuSzdPwmd6jfzdlBOsb0y2va9euIG/fYu8dstyKqGzffpC1lvy4YDrRTpos/zx+3ff8ArWbg8U6r7VY0s5iNL56lz8ihsPzKOdBLU2bQVPLgLpC0ps65kZgjZ2nu/BAdM+eRo8yE7XCA7QNmSCpEKncDLtvyE96lRxbp2jOVLQfMQKxkN8WHGZIgBDtH4di7Y/QDRRgA2E7gHZIKcZebRHxCXOUiPp0k4pMu2mZfV/XE568/tBwAACoQBwCACsQBAKACcQAAqEAcAAAqEAcAgArEAQCgghmSCnGXm0R8QlzlIj6dJOLDDEkAwI4HMyQV4i43ifiEuMpFfDpJxIcZkgCAHQ/EAQCgAnEAAKhAHAAAKhAHAIAKxAEAoAJxAACoQBwAACoNy8vLBTHPrMba2pr5rJVOWF1dpaamJrelEzU/Sbd//37K5733NuskEV/tct+mv0+9Rp/6zT9Q5pPbr/7evpSi1w79G/3Df36IGu/+gFL/81P0zv/utI5aZUSN78OZU/T482+6LaKX3szTi3/lNnxUze8336PUU0Rv5F+klojlbkX9CXGnE1KpVGzXcxLxBepPZkjWQtJESSfwibu1cKLmJ2k4RLcVThLx1S53vpCljsJYbnvW33yWCh0/XoxUbpT8ViY6uU6GC28U45svDHMdDS+4TR9V81sYNvnM82qUcoWo6YS4r7840wlxXs9xpxP89VdbSoDKRHcbDdEM9ae7aWLJ2t9luq3TtDWZWaAR41shLtv7aJ/nPKO4YZdMafI0/XXrsi2LOG17qK7djpIbt81L0rYNEc08e5C6r3IeAXfvoFVfseylySpxLdDl3mkaXnC+FYZWOiueFJcq85XztQ7fDp9b98jP3D6P26PF8spduMEWk6TyhBE1P0nDIbqtcJKIr3a5/pbDSmG8iwqUleehYLc7J1bM1v3cWKGD044v8sbieKGT8/aOyROeusb5G+7p/LdvmP32yWyfsP6nrTB3nr9zfs6sm+945Zq8bbpAy0G+78rwl2fz7TTnIDGGxeUvP6z+/Onv38xyene+5jzK8vVaDv564W8G67BEEn/fKPnFnU6I83qOO52AlkNCdD7qWdinqPeaz8PyQJoO2zVHFDdsfjJ7Tt2hrt3i1M1P9CfdEXGY8qWrxBrYDg9YZy7Ppduz9KsaV1ea/Ab9QcryfeIkjZ2Yoak5ztd4iHqO4ZyvuHWbNf6WGPie8Ny9uc7EhftezhwDWw/EIUYCLtnSlHfN5X37jnEXxI/uSp3qmaI36MvF7/m7G7prd45y191qJMrTlxvaVnHpvs7fdauVKPl+2q0WzXNDuNHvbAN5aR005YDtAcQhERZohC/04QXrTn3//hxl3ZFafGYgb77DDXB+zGZoQizyQ127+WkuXpeRKU8f0QpfTHVpkGaLYuWQsQQzTqDk+65bFTNdt6pyfs6dr7ecdQfAVgNx2ATyVy+VtRx0ZGDx1MyHbkvQnuR+12775B/8mbOzNQN/VlB0XHpvEPHWZeq73kkdR30tHpVWOjXRSYOtfpdtFkAx8u1o51zL8r19hfpvdNguijHrHaSLbnB14UpfsSWROtpBHecvFeM1A6ssNmCbkOSARhhR85M0HKLbCieJ+GqXu1IYOyGDazKgZgfT/D/r2Z/+5LgMDM6ZtOa4b9DQ4BsslMG7l9x3ZCnlZwf17P7hwpwM+J0Yc99xA3ll3/HKl0HJYBmV6U39mQHJsLgs/nOSxRtktATzzd70/T3cIKz9znhxoNWUawYvve/5yveRxN83Sn5xpxPkPGsRd7lR0wn++sM7JBXiLjeJ+IS4ykV8OknEh3dIAgB2PHiHpELc5SYRnxBXuYhPJ4n45FeZzb6u6onPX39oOQAAVCAOAAAViAMAQAXiAABQgTgAAFQgDgAAFYgDAEAFMyQV4i43ifiEuMpFfDpJxIcZkgCAHQ9mSCrEXW4S8QlxlYv4dJKIDzMkAQA7HogDAEAF4gAAUIE4AABUIA4AABWIAwBABeIAAFDBDEmFuMtNIj4hrnIRn04S8WGG5J7gFn3nwWfoH//gNrcZt0b20TPX/mg3bo/Svp5J+9r49bI0Sd18YYv7uFzggfzMsVGukRpETQe2BzJDshaSJko6Ye+8mn4PuWy7V8vLa+y9+AJemmWv2w/NL2q6MqKmE+K+/uJMJ8R5PcedTvDXH8RBIUq5JY+Gkm9FZ5f1dbDeEX6vCV6c8a13gwwbQ1m7lPwpVgqvPV3a7/eFCHpGBEXJmtPaRfIKembU51uhxqUZ6Zrz6ORzD3pqGD+KgBeFVh+cjr/fQdnCnPd3qxJjVJETIA6VRE0nQBxqEK3cPeSybWLhbU772l2l/nzlyrqcqydeJj4vn4p0ujgEzolTZ/3pagBxqCRqOsFffxhziJHd67ItsRRoZYLohcMpZ+gbYrvHMVy7f416nI1fKt1iV9ZNK718/2U64rbA5gFxiJFd7bLNSHz8ZJFHHxUWWqjv4Ag5l84AMhgqg5YmXnHOrhMpZ57aiuc7etsdAJsKxCERdpfLdn4yQxlnhFvEOG/foVx564FF8dj5LHE3wIlIWMsoSD53x61ZWs/ZczX1cLSbJkPNgUFSQBw2gZ3usp06liHqPR3INz95kQZrtDREfCYuVWs5DNFbplVgu0ceUg9BMTpcoxyQBBCHdZOmQydmqD/drdyMnmW9bRb/NxqgMU5b8ZQto/XcPD32/OOuOd3Gd4kdP0j1nKHh633UbPbP0vGb3A55N2du8NZzKzR+zzXBD/ZRy8IU9fKNlH60k2aePUjdV4NPfJOe2yEmL9O6mSqOD4QiYxmLGZo62ECplB1zaO5toXlvfONAmmVikNoauJtx5BSf6xAdM92K00QD49R5nbsz5ek4zx9wC2joqEvXUWphSD209Dbbc5J6uIkxh60Ab4JSiLvcJOIT4ioX8ekkEZ8I3mZfV/XE56+/huXl5UJjY/UGxNramvmslU5YXV2lpqYmt6UTNT9JJzPyZBCsGknEF2e5ScQnxFUu4tNJIj5peW32dVVPfP76Q8tBIe5yk4hPiKtcxKeTRHw7qeVQW0oAAHsSiAMAQAXiAABQgTgAAFQgDgAAFYgDAEAF4gAAUME7JBXiLjeJ+IS4ykV8OknEJ/NnNvu6qic+f/2h5QAAUMEMSYW4y00iPiGuchGfThLxYYYkAGDHA3EAAKhAHAAAKhAHAIAKxAEAoAJxAACoQBwAACqYIakQd7lJxCfEVS7i00kiPsyQBBtGjGHK3xxdm1s0yhefNYERF/AHjcjJBektUQ1i1lc+2E00iprEuchLLLX9610Ebf96l6jxxV1u1MWL7wGW7YYH9DThywNG7RvN9+x69qYzl5FlcZz+7eg++s7b5d+rXMLKj/vvG/ey3ePbqusq6uKvP7QcNoR9Ult/BWcN54xlMsa+zts3Sd3l6RziJmX3y5Kh6RW7r22IaLq3uWTu4rfX65m0pjQGn1XehVm3L4QDvfSq+Gl4pjaMlOW1Kjz/y2rlG9+K7tL3we4F4rBu8jTZc4zIPZlXJu5Q2wXvtp+mlgF5WovpywKNpvvpsEs3nx2kNu/m4hvOmsPYJ/t8dppemHzbekVmiTonVqwZrwhO6x0aX5R0KzRG/XTQGWkuXGguWeU9SVTLmVLcq4omM658sa6TfrCU33dloWr5+fw71hSneK5gtwJxWC9LszRzI0vHn7CbckMVznn+1p0l+7ZbszREpXStJ30OUGXu2eJSpZGfm6Lprgy1mzxT1POi53iluWbLSkRc+Z6bVLTyH6LegWGie+YMwC4G4rBelnLkOVZWUu4h6dnDcdP/YB+3KzwD2qB7dnNvyS+ygqIdHncrjnKb/8YH4pldp8s2w3GXSrHle92KKOWbboU4Z7PAgd0NxGG9HEiT53VdkxNjtMjN9uLAYMH6WZa7Z69M6E9uQ3a++H3pAty//zK3OOp12eYyxc26i78n6658iU3yjFJ+0YKfWxxgdwNxWC8sDoeLLtFyo2X0gboj7ZS90U9X/OnKBiUtC3Q55MltxgmGLhYNe+VnRjsomaL2Dt8Ao3HNNkl0liboNJdR7IYEuBW5fHHBlnMFuxx+YvCDoDqSJko6gZ8sbi2cqPlJGg7RbYWTRHyRys2NFbj1YNJyz78wLzsXxwud3rojmK6zML7oDnAq7r2Xvr8wXKCnXytwS6LAT3Gzv3NCthg5VkybLcwVz3elMN7l9neNF8azVBhekP3zhWwxfWmxxzz85Wdt+ZxH7fKD51dO1L9H3OmEuK+/ONMJUn+1iLvcqOkEf/1hhqRC3OUmEZ8QV7mITyeJ+GRsZ7Ovq3ri89cfuhUAABW8Q1Ih7nKTiE+Iq1zEp5NEfPJr02ZfV/XE568/tBwAACoQBwCACsQBAKACcQAAqEAcAAAqEAcAgArEAQCgAnEAAKg0LC8vF+TVUNVYW1szn7XSCaurq9TU1OS2dKLmJ+n279/vtgDYHcj/bK1GPfeHkNT9u+1nSAqILwjiCwfxVbLe+GpLCQBgTwJxAACoQBwAACoQBwCACsQBAKACcQAAqEAcAAAq2/4dkgLiC4L4wkF8law3PrQcAAAqmCGpgPjCQXyV7Nb40HIAAKhAHAAAKhAHAIAKxAEAoAJxAACoQBwAACoQBwCACmZIKiC+cBBfJbs1PrQcAAAqmCGpgPjCQXyV7Nb40HIAAKhAHAAAKhAHAIAKxAEAoAJxAACoQBwAACoQBwCACmZIKiC+cBBfJbs1PrQcAAAqmCGpgPjCQXyV7Nb40HIAAKhAHAAAKhAHAIAKxAEAoAJxAACoQBwAACoQBwCACsQBAKDSsLy8XGhsrK4Ra2tr5rNWOmF1dZWamprclk7U/OJOJyC+ShCfzl6PDzMkFRBfOIivkt0aX20pAQDsSSAOAAAViAMAQAXiAABQgTgAAFQgDgAAFYgDAEAF75BUQHzhIL5Kdmt8aDkAAFQwQ1IB8YWD+CrZrfGh5QAAUIE4AABUIA4AAAWi/w8tJtII7T9hsAAAAABJRU5ErkJggg==;" parent="1" vertex="1">
          <mxGeometry x="1610" y="1060" width="263" height="384" as="geometry" />
        </mxCell>
        <mxCell id="NNFUY4mLSP4heDJd7QKt-3" value="Old" style="ellipse;shape=cloud;whiteSpace=wrap;html=1;fillColor=#fff2cc;strokeColor=#d6b656;" parent="1" vertex="1">
          <mxGeometry x="1681.5" y="1000" width="120" height="80" as="geometry" />
        </mxCell>
        <mxCell id="NNFUY4mLSP4heDJd7QKt-4" value="bỏ end date, thay bằng remainedDate" style="ellipse;shape=cloud;whiteSpace=wrap;html=1;" parent="1" vertex="1">
          <mxGeometry x="930" y="1000" width="190" height="110" as="geometry" />
        </mxCell>
        <mxCell id="NNFUY4mLSP4heDJd7QKt-9" value="quantity: số lượng gói mua / tháng" style="ellipse;shape=cloud;whiteSpace=wrap;html=1;" parent="1" vertex="1">
          <mxGeometry x="1300" y="1350" width="140" height="110" as="geometry" />
        </mxCell>
        <mxCell id="2xHPVuqisg_KwcrWKDcG-1" value="status:&amp;nbsp;&lt;br&gt;Inactive&lt;br&gt;Active&lt;br&gt;Peding" style="ellipse;shape=cloud;whiteSpace=wrap;html=1;" parent="1" vertex="1">
          <mxGeometry x="1160" y="1160" width="190" height="110" as="geometry" />
        </mxCell>
      </root>
    </mxGraphModel>
  </diagram>
</mxfile>
